<?xml version="1.0" encoding="UTF-8"?>
<!DOCTYPE svg PUBLIC "-//W3C//DTD SVG 1.1//EN" "http://www.w3.org/Graphics/SVG/1.1/DTD/svg11.dtd">
<svg xmlns="http://www.w3.org/2000/svg" version="1.1" width="1592px" height="1592px" style="shape-rendering:geometricPrecision; text-rendering:geometricPrecision; image-rendering:optimizeQuality; fill-rule:evenodd; clip-rule:evenodd" xmlns:xlink="http://www.w3.org/1999/xlink">
<g><path style="opacity:0.987" fill="#020101" d="M 1124.5,1435.5 C 1120.05,1432.77 1115.39,1430.27 1110.5,1428C 1055.18,1415.06 999.843,1402.22 944.5,1389.5C 946.085,1421.5 932.418,1444.34 903.5,1458C 875.067,1471.58 845.067,1479.25 813.5,1481C 780.891,1484.1 748.558,1482.43 716.5,1476C 691.583,1470.04 669.25,1459.04 649.5,1443C 634.254,1428.11 626.921,1409.94 627.5,1388.5C 572.905,1401.65 518.238,1414.49 463.5,1427C 456.548,1429.14 450.214,1432.31 444.5,1436.5C 437.578,1434.04 431.244,1430.54 425.5,1426C 443.902,1411.53 464.902,1403.53 488.5,1402C 537.694,1389.7 587.028,1378.03 636.5,1367C 595.357,1337.53 561.524,1301.36 535,1258.5C 516.641,1226.09 504.641,1191.43 499,1154.5C 494.994,1130.63 490.828,1106.8 486.5,1083C 486.095,1082.05 485.428,1081.39 484.5,1081C 467.086,1078.24 453.253,1069.74 443,1055.5C 407.663,1011.82 394.663,962.158 404,906.5C 412.049,875.234 431.549,863.734 462.5,872C 464.333,873.167 466.167,874.333 468,875.5C 465.668,850.839 463.001,826.172 460,801.5C 457.835,766.529 456.335,731.529 455.5,696.5C 455.449,667.66 457.616,638.993 462,610.5C 464.687,592.77 470.354,576.104 479,560.5C 482.208,537.432 490.875,516.765 505,498.5C 507.031,480.589 515.531,466.756 530.5,457C 536.712,453.727 543.046,450.727 549.5,448C 557.91,437.587 567.577,428.587 578.5,421C 575.226,419.798 571.893,418.798 568.5,418C 567.643,417.311 566.977,416.478 566.5,415.5C 576.114,403.676 588.447,395.843 603.5,392C 611.712,389.909 620.045,388.576 628.5,388C 629.022,387.439 629.355,386.772 629.5,386C 627.501,380.714 626.834,375.381 627.5,370C 637.433,368.921 646.933,370.421 656,374.5C 655.672,368.377 655.172,362.21 654.5,356C 654.927,351.159 655.427,346.326 656,341.5C 656.612,338.968 658.112,338.135 660.5,339C 685.065,358.379 712.731,364.379 743.5,357C 734.264,347.932 725.264,338.766 716.5,329.5C 716.977,328.522 717.643,327.689 718.5,327C 729.159,325.073 739.825,325.073 750.5,327C 769.024,330.005 787.357,333.838 805.5,338.5C 803.214,331.159 800.047,324.159 796,317.5C 795.506,315.866 795.34,314.199 795.5,312.5C 802.79,312.572 809.79,314.072 816.5,317C 851.969,334.794 880.969,360.128 903.5,393C 932.554,406.848 959.221,424.181 983.5,445C 994.471,456.298 1004.3,468.465 1013,481.5C 1024.93,488.143 1035.6,496.476 1045,506.5C 1051.95,516.063 1057.62,526.396 1062,537.5C 1074.54,549.892 1083.54,564.559 1089,581.5C 1101.59,616.767 1108.92,653.101 1111,690.5C 1111.67,721.167 1111.67,751.833 1111,782.5C 1108.37,812.266 1104.87,841.933 1100.5,871.5C 1100.83,872.833 1101.17,874.167 1101.5,875.5C 1130.33,861.331 1151.17,868.997 1164,898.5C 1178.16,964.375 1161.66,1021.21 1114.5,1069C 1105.53,1075.49 1095.53,1079.32 1084.5,1080.5C 1078.97,1116.01 1072.47,1151.34 1065,1186.5C 1052.65,1232.88 1030.65,1273.88 999,1309.5C 979.773,1330.32 958.939,1349.15 936.5,1366C 996.894,1381.6 1057.56,1396.26 1118.5,1410C 1127.63,1413.73 1135.96,1418.73 1143.5,1425C 1137.43,1429.03 1131.1,1432.53 1124.5,1435.5 Z"/></g>
<g><path style="opacity:1" fill="#5b5b5b" d="M 911.5,439.5 C 892.279,416.102 872.446,393.102 852,370.5C 854.091,374.982 856.758,379.315 860,383.5C 862.284,387.382 863.951,391.382 865,395.5C 847.427,383.795 828.594,374.961 808.5,369C 814.124,376.41 819.124,384.243 823.5,392.5C 823.03,393.463 822.363,393.463 821.5,392.5C 806.52,374.023 788.186,359.856 766.5,350C 796.171,354.782 823.838,365.115 849.5,381C 851.134,381.494 852.801,381.66 854.5,381.5C 848.848,370.225 841.682,359.891 833,350.5C 832.333,349.833 832.333,349.167 833,348.5C 844.259,357.088 854.926,366.421 865,376.5C 874.333,387.833 883.667,399.167 893,410.5C 899.687,419.884 905.854,429.551 911.5,439.5 Z"/></g>
<g><path style="opacity:1" fill="#201e1e" d="M 911.5,439.5 C 924.224,458.945 934.891,479.611 943.5,501.5C 944.628,502.262 945.795,502.929 947,503.5C 952.823,525.211 954.489,547.211 952,569.5C 950.354,580.662 944.187,587.828 933.5,591C 917.744,594.417 904.911,589.917 895,577.5C 892.667,573.5 890.333,569.5 888,565.5C 884.046,553.683 880.712,541.683 878,529.5C 874.645,508.705 870.645,488.039 866,467.5C 862.135,453.772 856.135,441.105 848,429.5C 845.8,428.01 843.966,428.343 842.5,430.5C 844.2,433.039 845.7,435.705 847,438.5C 852.996,460.8 855.329,483.466 854,506.5C 853.904,509.451 853.071,512.118 851.5,514.5C 841.136,503.635 831.302,492.302 822,480.5C 807.833,466.333 793.667,452.167 779.5,438C 769.495,428.99 758.661,421.157 747,414.5C 745.5,414.667 744.667,415.5 744.5,417C 759.268,431.099 774.102,445.265 789,459.5C 817.952,490.706 841.452,525.706 859.5,564.5C 860.991,565.244 862.491,565.91 864,566.5C 868.861,577.666 871.361,589.333 871.5,601.5C 869.61,601.703 868.11,601.037 867,599.5C 861.586,589.669 855.919,580.002 850,570.5C 847.669,566.971 844.503,564.971 840.5,564.5C 842.553,574.559 844.219,584.725 845.5,595C 845.193,599.727 844.027,604.227 842,608.5C 840.867,610.211 839.367,610.711 837.5,610C 812.298,589.131 789.464,565.965 769,540.5C 763.751,533.004 758.751,525.337 754,517.5C 753.689,529.077 754.522,540.577 756.5,552C 754.672,553.163 753.672,554.83 753.5,557C 758.605,579.221 769.605,597.888 786.5,613C 778.354,613.991 770.354,613.324 762.5,611C 725.968,594.798 702.801,567.298 693,528.5C 690.187,508.518 687.521,488.518 685,468.5C 683.738,462.715 682.072,457.048 680,451.5C 677.524,449.937 676.024,450.604 675.5,453.5C 676.554,457.436 677.221,461.436 677.5,465.5C 676.256,479.527 674.756,493.527 673,507.5C 670.246,536.059 675.079,563.226 687.5,589C 686.092,589.315 684.759,588.982 683.5,588C 680.333,585.5 677.167,583 674,580.5C 658.212,555.712 638.045,535.212 613.5,519C 609.809,516.981 606.142,515.314 602.5,514C 613.011,524.179 621.178,536.013 627,549.5C 634.982,566.441 640.315,584.108 643,602.5C 619,590.5 601,572.5 589,548.5C 586.833,547 585.333,547.5 584.5,550C 589.544,562.849 591.044,576.016 589,589.5C 586.658,592.754 583.491,594.588 579.5,595C 564.027,593.741 549.693,597.075 536.5,605C 532.607,608.39 529.273,612.223 526.5,616.5C 526.833,616.833 527.167,617.167 527.5,617.5C 533.227,614.522 539.227,613.856 545.5,615.5C 536.406,621.447 530.573,629.78 528,640.5C 527.118,643.789 526.452,647.123 526,650.5C 525.485,662.17 524.985,673.836 524.5,685.5C 525.5,685.5 526.5,685.5 527.5,685.5C 526.242,689.123 526.242,692.79 527.5,696.5C 528.833,695.833 530.167,695.167 531.5,694.5C 532.72,694.887 533.387,695.72 533.5,697C 530.349,702.156 527.182,707.323 524,712.5C 523.333,715.5 523.333,718.5 524,721.5C 526.222,718.697 528.055,718.863 529.5,722C 525.956,729.588 522.289,737.088 518.5,744.5C 517.167,744.5 515.833,744.5 514.5,744.5C 514.724,740.821 515.058,737.154 515.5,733.5C 503.167,733.5 490.833,733.5 478.5,733.5C 478.046,740.159 477.713,746.826 477.5,753.5C 474.672,714.975 474.839,676.309 478,637.5C 479.916,617.582 484.249,598.249 491,579.5C 492.958,574.41 495.792,569.91 499.5,566C 520.096,555.712 541.43,553.879 563.5,560.5C 565.266,560.566 566.266,559.732 566.5,558C 561.304,548.815 553.637,542.481 543.5,539C 532.953,536.555 522.62,537.222 512.5,541C 510.963,542.11 510.297,543.61 510.5,545.5C 508.063,545.756 505.729,546.423 503.5,547.5C 506.014,523.681 518.68,507.847 541.5,500C 548.691,499.744 555.857,499.244 563,498.5C 566.359,499.06 569.692,499.726 573,500.5C 573.5,500.167 574,499.833 574.5,499.5C 568.609,486.464 558.442,480.131 544,480.5C 539.698,480.647 535.531,481.147 531.5,482C 534.203,478.962 537.203,476.295 540.5,474C 547.595,470.119 554.929,466.785 562.5,464C 572.226,449.268 585.226,438.601 601.5,432C 607.793,430.977 614.126,430.311 620.5,430C 621.517,428.951 621.684,427.784 621,426.5C 615.796,420.796 609.63,416.463 602.5,413.5C 654.189,397.427 688.356,415.094 705,466.5C 705.483,465.552 705.649,464.552 705.5,463.5C 707.702,492.964 715.536,520.964 729,547.5C 729.654,548.696 730.154,548.696 730.5,547.5C 719.946,519.795 713.779,491.129 712,461.5C 708.562,441.451 699.062,424.951 683.5,412C 676.273,406.895 668.939,402.061 661.5,397.5C 671.58,399.581 681.413,402.581 691,406.5C 691.873,406.265 692.707,405.931 693.5,405.5C 707.264,414.799 720.764,424.465 734,434.5C 734.399,434.272 734.565,433.938 734.5,433.5C 758.737,460.338 779.237,489.672 796,521.5C 774.398,503.233 754.065,483.566 735,462.5C 734.333,463.167 734.333,463.833 735,464.5C 759.229,499.897 788.729,530.23 823.5,555.5C 823.833,555 824.167,554.5 824.5,554C 811.957,523.399 795.457,495.233 775,469.5C 747.274,436.274 716.774,405.94 683.5,378.5C 680.782,376.839 679.116,374.839 678.5,372.5C 691.385,377.203 704.719,379.537 718.5,379.5C 739.938,378.322 761.271,376.155 782.5,373C 783.646,372.355 784.646,371.522 785.5,370.5C 798.557,376.35 810.557,383.683 821.5,392.5C 822.363,393.463 823.03,393.463 823.5,392.5C 819.124,384.243 814.124,376.41 808.5,369C 828.594,374.961 847.427,383.795 865,395.5C 863.951,391.382 862.284,387.382 860,383.5C 856.758,379.315 854.091,374.982 852,370.5C 872.446,393.102 892.279,416.102 911.5,439.5 Z"/></g>
<g><path style="opacity:1" fill="#5c5c5c" d="M 701.5,381.5 C 743.874,393.974 779.041,417.64 807,452.5C 807.667,453.167 807.667,453.833 807,454.5C 776.044,424.103 740.877,399.77 701.5,381.5 Z"/></g>
<g><path style="opacity:1" fill="#5e5e5e" d="M 683.5,378.5 C 716.774,405.94 747.274,436.274 775,469.5C 795.457,495.233 811.957,523.399 824.5,554C 824.167,554.5 823.833,555 823.5,555.5C 788.729,530.23 759.229,499.897 735,464.5C 734.333,463.833 734.333,463.167 735,462.5C 754.065,483.566 774.398,503.233 796,521.5C 779.237,489.672 758.737,460.338 734.5,433.5C 717.867,414.866 700.867,396.533 683.5,378.5 Z"/></g>
<g><path style="opacity:1" fill="#5c5c5c" d="M 661.5,397.5 C 668.939,402.061 676.273,406.895 683.5,412C 699.062,424.951 708.562,441.451 712,461.5C 713.779,491.129 719.946,519.795 730.5,547.5C 730.154,548.696 729.654,548.696 729,547.5C 715.536,520.964 707.702,492.964 705.5,463.5C 702.013,441.692 691.68,423.858 674.5,410C 667.833,405.333 661.167,400.667 654.5,396C 656.831,396.157 659.164,396.657 661.5,397.5 Z"/></g>
<g><path style="opacity:1" fill="#5d5d5d" d="M 759.5,399.5 C 782.429,409.616 802.929,423.949 821,442.5C 820.31,430.972 818.643,419.639 816,408.5C 828.527,429.242 835.693,451.576 837.5,475.5C 817.082,449.581 794.082,426.081 768.5,405C 765.472,403.156 762.472,401.322 759.5,399.5 Z"/></g>
<g><path style="opacity:1" fill="#5c5c5c" d="M 625.5,410.5 C 643.644,408.484 659.311,413.651 672.5,426C 657.999,420.623 642.999,416.623 627.5,414C 625.061,413.467 624.395,412.3 625.5,410.5 Z"/></g>
<g><path style="opacity:1" fill="#5b5b5b" d="M 853.5,409.5 C 879.023,442.543 894.523,479.876 900,521.5C 888.047,482.606 872.547,445.273 853.5,409.5 Z"/></g>
<g><path style="opacity:1" fill="#040202" d="M 875.5,420.5 C 883.21,428.894 889.71,438.227 895,448.5C 911.782,480.18 922.115,513.846 926,549.5C 926.667,555.5 926.667,561.5 926,567.5C 924.284,564.36 922.951,561.027 922,557.5C 914.161,509.148 898.661,463.481 875.5,420.5 Z"/></g>
<g><path style="opacity:1" fill="#030202" d="M 623.5,427.5 C 635.918,426.625 645.751,431.292 653,441.5C 662.7,455.653 666.7,471.319 665,488.5C 661.875,469.413 653.375,453.247 639.5,440C 634.997,436.245 629.997,433.245 624.5,431C 623.663,429.989 623.33,428.822 623.5,427.5 Z"/></g>
<g><path style="opacity:1" fill="#5c5c5c" d="M 1020.5,543.5 C 1020.67,547.514 1020.5,551.514 1020,555.5C 1009.47,523.093 992.807,494.426 970,469.5C 971.078,474.083 971.745,478.749 972,483.5C 959.535,462.535 943.702,444.535 924.5,429.5C 923.167,428.067 921.667,426.733 920,425.5C 948.996,438.449 973.33,458.782 993,486.5C 1002.43,504.694 1010.76,523.361 1018,542.5C 1018.67,543.252 1019.5,543.586 1020.5,543.5 Z"/></g>
<g><path style="opacity:1" fill="#1f1d1d" d="M 924.5,429.5 C 943.702,444.535 959.535,462.535 972,483.5C 971.745,478.749 971.078,474.083 970,469.5C 992.807,494.426 1009.47,523.093 1020,555.5C 1020.5,551.514 1020.67,547.514 1020.5,543.5C 1022.08,540.468 1022.75,537.135 1022.5,533.5C 1022.21,528.491 1021.87,523.491 1021.5,518.5C 1029.59,526.92 1036.92,535.92 1043.5,545.5C 1047.06,550.568 1051.23,555.234 1056,559.5C 1068.19,580.068 1076.86,602.068 1082,625.5C 1089.8,661.408 1093.3,697.742 1092.5,734.5C 1091.57,733.432 1091.23,732.099 1091.5,730.5C 1077.83,730.5 1064.17,730.5 1050.5,730.5C 1051.49,735.117 1052.15,739.784 1052.5,744.5C 1049.64,744.972 1047.64,743.972 1046.5,741.5C 1043.69,735.041 1040.69,728.541 1037.5,722C 1038.03,719.98 1039.37,719.147 1041.5,719.5C 1041.33,715.466 1040.83,711.466 1040,707.5C 1037.82,703.99 1035.65,700.49 1033.5,697C 1034.12,694.52 1035.46,694.02 1037.5,695.5C 1038.68,691.825 1038.68,688.159 1037.5,684.5C 1039.04,685.301 1040.71,685.634 1042.5,685.5C 1041.68,671.09 1040.18,656.757 1038,642.5C 1034.79,631.896 1028.95,623.063 1020.5,616C 1029.01,615.78 1036.68,618.28 1043.5,623.5C 1040.82,610.944 1033.32,601.944 1021,596.5C 1020.86,592.349 1021.02,588.182 1021.5,584C 1021.62,580.33 1020.95,576.83 1019.5,573.5C 1014.53,584.475 1006.53,592.475 995.5,597.5C 994.702,595.922 994.202,594.256 994,592.5C 986.006,599.94 976.839,603.107 966.5,602C 981.126,558.279 977.96,515.779 957,474.5C 946.65,459.126 935.817,444.126 924.5,429.5 Z"/></g>
<g><path style="opacity:1" fill="#5b5b5b" d="M 610.5,434.5 C 626.528,434.064 636.695,441.397 641,456.5C 638.5,451.333 634.667,447.5 629.5,445C 622.882,442.461 616.215,440.128 609.5,438C 609.043,437.586 608.709,437.086 608.5,436.5C 609.243,435.818 609.909,435.151 610.5,434.5 Z"/></g>
<g><path style="opacity:1" fill="#5c5c5c" d="M 604.5,440.5 C 612.155,441.105 618.321,444.439 623,450.5C 629.358,459.906 632.691,470.239 633,481.5C 628.135,465.072 618.468,452.406 604,443.5C 603.53,442.423 603.697,441.423 604.5,440.5 Z"/></g>
<g><path style="opacity:1" fill="#5d5d5d" d="M 569.5,467.5 C 588.979,467.603 605.979,474.103 620.5,487C 628.238,494.068 635.238,501.734 641.5,510C 640.833,510.667 640.167,510.667 639.5,510C 617.527,488.515 591.194,475.849 560.5,472C 563.437,470.199 566.437,468.699 569.5,467.5 Z"/></g>
<g><path style="opacity:1" fill="#5d5d5d" d="M 545.5,505.5 C 559.114,504.377 571.78,507.21 583.5,514C 586.833,516 589.5,518.667 591.5,522C 584.196,517.669 576.196,514.669 567.5,513C 563.833,512.333 560.167,512.333 556.5,513C 563.648,514.823 569.815,518.323 575,523.5C 575.688,524.332 575.521,524.998 574.5,525.5C 560.377,518.454 545.377,514.954 529.5,515C 534.148,510.516 539.481,507.349 545.5,505.5 Z"/></g>
<g><path style="opacity:1" fill="#5b5b5b" d="M 1043.5,545.5 C 1036.92,535.92 1029.59,526.92 1021.5,518.5C 1021.34,516.143 1021.5,513.81 1022,511.5C 1032.47,520.772 1039.63,532.106 1043.5,545.5 Z"/></g>
<g><path style="opacity:1" fill="#f0ac87" d="M 1037.5,684.5 C 1038.68,688.159 1038.68,691.825 1037.5,695.5C 1035.46,694.02 1034.12,694.52 1033.5,697C 1035.65,700.49 1037.82,703.99 1040,707.5C 1040.83,711.466 1041.33,715.466 1041.5,719.5C 1039.37,719.147 1038.03,719.98 1037.5,722C 1040.69,728.541 1043.69,735.041 1046.5,741.5C 1046.5,743.167 1046.5,744.833 1046.5,746.5C 1046.22,747.778 1045.55,748.778 1044.5,749.5C 1043.96,755.438 1045.46,761.105 1049,766.5C 1050.76,768.765 1052.92,770.432 1055.5,771.5C 1058.09,775.674 1060.42,780.007 1062.5,784.5C 1066.66,791.812 1069.99,799.479 1072.5,807.5C 1074.3,813.386 1075.8,819.386 1077,825.5C 1077.68,836.303 1079.18,846.97 1081.5,857.5C 1080.89,863.815 1080.56,870.149 1080.5,876.5C 1078.85,867.989 1074.18,861.489 1066.5,857C 1058.55,852.685 1050.22,849.352 1041.5,847C 1034.93,845.94 1028.6,844.44 1022.5,842.5C 1018.47,818.609 1006.47,799.775 986.5,786C 973.009,778.918 958.676,776.251 943.5,778C 914.246,780.096 886.246,787.096 859.5,799C 850.116,802.745 846.116,809.745 847.5,820C 846.321,829.489 850.321,833.489 859.5,832C 889.725,819.941 921.058,814.608 953.5,816C 975.801,818.809 995.468,827.309 1012.5,841.5C 967.298,836.607 922.298,838.107 877.5,846C 857.825,849.249 841.325,858.083 828,872.5C 820.635,882.955 817.468,894.622 818.5,907.5C 799.109,898.228 779.775,898.228 760.5,907.5C 761.951,885.565 753.285,869.065 734.5,858C 718.168,849.583 700.835,844.583 682.5,843C 640.825,837.188 599.158,837.021 557.5,842.5C 585.037,819.528 616.704,811.028 652.5,817C 671.908,820.269 690.908,825.269 709.5,832C 719.915,834.423 724.582,830.256 723.5,819.5C 723.302,813.537 721.635,808.037 718.5,803C 681.59,784.916 642.59,776.916 601.5,779C 574.366,788.803 556.866,807.636 549,835.5C 548.502,838.482 548.335,841.482 548.5,844.5C 535.405,846.365 523.071,850.532 511.5,857C 502.835,862.824 498.169,870.991 497.5,881.5C 494.833,881.5 492.167,881.5 489.5,881.5C 487.969,869.189 486.636,856.856 485.5,844.5C 486.332,829.673 489.332,815.34 494.5,801.5C 497.029,795.914 499.362,790.247 501.5,784.5C 503.916,779.999 506.583,775.666 509.5,771.5C 513.912,770.93 517.078,768.597 519,764.5C 521.617,759.817 523.117,754.817 523.5,749.5C 521.585,749.216 519.919,749.549 518.5,750.5C 518.167,750.5 517.833,750.5 517.5,750.5C 517.517,748.435 517.85,746.435 518.5,744.5C 522.289,737.088 525.956,729.588 529.5,722C 528.055,718.863 526.222,718.697 524,721.5C 523.333,718.5 523.333,715.5 524,712.5C 527.182,707.323 530.349,702.156 533.5,697C 533.387,695.72 532.72,694.887 531.5,694.5C 530.167,695.167 528.833,695.833 527.5,696.5C 526.242,692.79 526.242,689.123 527.5,685.5C 537.945,639.258 567.111,615.925 615,615.5C 628.18,616.092 641.347,616.925 654.5,618C 682.757,622.24 711.09,625.907 739.5,629C 773.899,631.467 808.232,630.8 842.5,627C 868.734,623.015 895.067,619.681 921.5,617C 945.372,613.377 968.705,615.377 991.5,623C 1018.09,634.999 1033.43,655.499 1037.5,684.5 Z"/></g>
<g><path style="opacity:1" fill="#3a2f2b" d="M 1092.5,734.5 C 1092.83,743.682 1092.49,752.682 1091.5,761.5C 1091.5,761.167 1091.5,760.833 1091.5,760.5C 1091.5,755.833 1091.5,751.167 1091.5,746.5C 1076.43,747.443 1061.43,747.443 1046.5,746.5C 1046.5,744.833 1046.5,743.167 1046.5,741.5C 1047.64,743.972 1049.64,744.972 1052.5,744.5C 1052.15,739.784 1051.49,735.117 1050.5,730.5C 1064.17,730.5 1077.83,730.5 1091.5,730.5C 1091.23,732.099 1091.57,733.432 1092.5,734.5 Z"/></g>
<g><path style="opacity:1" fill="#3c312c" d="M 518.5,744.5 C 517.85,746.435 517.517,748.435 517.5,750.5C 504.908,751.314 492.242,751.814 479.5,752C 478.915,753.302 478.249,754.469 477.5,755.5C 477.5,754.833 477.5,754.167 477.5,753.5C 477.713,746.826 478.046,740.159 478.5,733.5C 490.833,733.5 503.167,733.5 515.5,733.5C 515.058,737.154 514.724,740.821 514.5,744.5C 515.833,744.5 517.167,744.5 518.5,744.5 Z"/></g>
<g><path style="opacity:1" fill="#0a0705" d="M 509.5,771.5 C 508.766,770.292 508.433,768.959 508.5,767.5C 511.004,761.333 514.337,755.666 518.5,750.5C 519.919,749.549 521.585,749.216 523.5,749.5C 523.117,754.817 521.617,759.817 519,764.5C 517.078,768.597 513.912,770.93 509.5,771.5 Z"/></g>
<g><path style="opacity:1" fill="#070504" d="M 1044.5,749.5 C 1045.98,749.238 1047.31,749.571 1048.5,750.5C 1051.62,754.269 1054.28,758.269 1056.5,762.5C 1057.58,765.402 1058.24,768.402 1058.5,771.5C 1057.5,771.5 1056.5,771.5 1055.5,771.5C 1052.92,770.432 1050.76,768.765 1049,766.5C 1045.46,761.105 1043.96,755.438 1044.5,749.5 Z"/></g>
<g><path style="opacity:1" fill="#4d3c34" d="M 1046.5,746.5 C 1061.43,747.443 1076.43,747.443 1091.5,746.5C 1091.5,751.167 1091.5,755.833 1091.5,760.5C 1079.45,759.855 1067.79,760.522 1056.5,762.5C 1054.28,758.269 1051.62,754.269 1048.5,750.5C 1047.31,749.571 1045.98,749.238 1044.5,749.5C 1045.55,748.778 1046.22,747.778 1046.5,746.5 Z"/></g>
<g><path style="opacity:1" fill="#534137" d="M 517.5,750.5 C 517.833,750.5 518.167,750.5 518.5,750.5C 514.337,755.666 511.004,761.333 508.5,767.5C 498.5,767.5 488.5,767.5 478.5,767.5C 477.517,763.702 477.183,759.702 477.5,755.5C 478.249,754.469 478.915,753.302 479.5,752C 492.242,751.814 504.908,751.314 517.5,750.5 Z"/></g>
<g><path style="opacity:1" fill="#684f42" d="M 478.5,767.5 C 488.5,767.5 498.5,767.5 508.5,767.5C 508.433,768.959 508.766,770.292 509.5,771.5C 506.583,775.666 503.916,779.999 501.5,784.5C 494.167,784.5 486.833,784.5 479.5,784.5C 478.593,778.894 478.26,773.227 478.5,767.5 Z"/></g>
<g><path style="opacity:1" fill="#6d5244" d="M 1091.5,760.5 C 1091.5,760.833 1091.5,761.167 1091.5,761.5C 1091.67,770.378 1091,779.045 1089.5,787.5C 1089.5,786.5 1089.5,785.5 1089.5,784.5C 1080.5,784.5 1071.5,784.5 1062.5,784.5C 1060.42,780.007 1058.09,775.674 1055.5,771.5C 1056.5,771.5 1057.5,771.5 1058.5,771.5C 1058.24,768.402 1057.58,765.402 1056.5,762.5C 1067.79,760.522 1079.45,759.855 1091.5,760.5 Z"/></g>
<g><path style="opacity:1" fill="#1a1b1b" d="M 557.5,842.5 C 554.454,843.062 551.454,843.729 548.5,844.5C 548.335,841.482 548.502,838.482 549,835.5C 556.866,807.636 574.366,788.803 601.5,779C 642.59,776.916 681.59,784.916 718.5,803C 721.635,808.037 723.302,813.537 723.5,819.5C 724.582,830.256 719.915,834.423 709.5,832C 690.908,825.269 671.908,820.269 652.5,817C 616.704,811.028 585.037,819.528 557.5,842.5 Z"/></g>
<g><path style="opacity:1" fill="#1a1c1b" d="M 1022.5,842.5 C 1019.06,842.747 1015.73,842.414 1012.5,841.5C 995.468,827.309 975.801,818.809 953.5,816C 921.058,814.608 889.725,819.941 859.5,832C 850.321,833.489 846.321,829.489 847.5,820C 846.116,809.745 850.116,802.745 859.5,799C 886.246,787.096 914.246,780.096 943.5,778C 958.676,776.251 973.009,778.918 986.5,786C 1006.47,799.775 1018.47,818.609 1022.5,842.5 Z"/></g>
<g><path style="opacity:1" fill="#82614f" d="M 479.5,784.5 C 486.833,784.5 494.167,784.5 501.5,784.5C 499.362,790.247 497.029,795.914 494.5,801.5C 489.833,801.5 485.167,801.5 480.5,801.5C 479.593,795.894 479.26,790.227 479.5,784.5 Z"/></g>
<g><path style="opacity:1" fill="#8f6a56" d="M 1062.5,784.5 C 1071.5,784.5 1080.5,784.5 1089.5,784.5C 1089.5,785.5 1089.5,786.5 1089.5,787.5C 1089.48,795.701 1088.82,803.701 1087.5,811.5C 1087.5,810.167 1087.5,808.833 1087.5,807.5C 1082.5,807.5 1077.5,807.5 1072.5,807.5C 1069.99,799.479 1066.66,791.812 1062.5,784.5 Z"/></g>
<g><path style="opacity:1" fill="#c08b6f" d="M 1072.5,807.5 C 1077.5,807.5 1082.5,807.5 1087.5,807.5C 1087.5,808.833 1087.5,810.167 1087.5,811.5C 1086.44,827.093 1084.44,842.426 1081.5,857.5C 1079.18,846.97 1077.68,836.303 1077,825.5C 1075.8,819.386 1074.3,813.386 1072.5,807.5 Z"/></g>
<g><path style="opacity:1" fill="#b28167" d="M 480.5,801.5 C 485.167,801.5 489.833,801.5 494.5,801.5C 489.332,815.34 486.332,829.673 485.5,844.5C 482.826,830.422 481.159,816.088 480.5,801.5 Z"/></g>
<g><path style="opacity:1" fill="#fefbfa" d="M 760.5,907.5 C 760.344,917.922 759.344,928.255 757.5,938.5C 754.495,954.02 748.662,968.354 740,981.5C 728.911,992.301 716.078,1000.47 701.5,1006C 656.629,1020.36 610.962,1023.36 564.5,1015C 552.699,1013.22 541.366,1009.88 530.5,1005C 520.101,996.913 513.267,986.413 510,973.5C 502.931,948.485 498.431,923.151 496.5,897.5C 496.5,896.5 496.5,895.5 496.5,894.5C 490.167,894.5 483.833,894.5 477.5,894.5C 477.5,893.167 477.5,891.833 477.5,890.5C 484.167,890.5 490.833,890.5 497.5,890.5C 497.5,887.5 497.5,884.5 497.5,881.5C 498.169,870.991 502.835,862.824 511.5,857C 523.071,850.532 535.405,846.365 548.5,844.5C 551.454,843.729 554.454,843.062 557.5,842.5C 599.158,837.021 640.825,837.188 682.5,843C 700.835,844.583 718.168,849.583 734.5,858C 753.285,869.065 761.951,885.565 760.5,907.5 Z"/></g>
<g><path style="opacity:1" fill="#fefbfa" d="M 1012.5,841.5 C 1015.73,842.414 1019.06,842.747 1022.5,842.5C 1028.6,844.44 1034.93,845.94 1041.5,847C 1050.22,849.352 1058.55,852.685 1066.5,857C 1074.18,861.489 1078.85,867.989 1080.5,876.5C 1080.26,877.791 1080.6,878.791 1081.5,879.5C 1081.5,882.833 1081.5,886.167 1081.5,889.5C 1088.17,889.5 1094.83,889.5 1101.5,889.5C 1101.5,891.167 1101.5,892.833 1101.5,894.5C 1094.75,893.877 1088.41,894.544 1082.5,896.5C 1081.52,899.287 1081.19,902.287 1081.5,905.5C 1080.92,917.925 1079.58,930.258 1077.5,942.5C 1076.55,943.919 1076.22,945.585 1076.5,947.5C 1073.28,961.011 1069.11,974.345 1064,987.5C 1058.05,1000.73 1047.89,1008.57 1033.5,1011C 990.362,1020.96 947.029,1021.96 903.5,1014C 882.418,1009.12 863.085,1000.46 845.5,988C 834.992,977.813 827.992,965.646 824.5,951.5C 823.809,946.74 822.809,942.074 821.5,937.5C 819.717,927.584 818.717,917.584 818.5,907.5C 817.468,894.622 820.635,882.955 828,872.5C 841.325,858.083 857.825,849.249 877.5,846C 922.298,838.107 967.298,836.607 1012.5,841.5 Z"/></g>
<g><path style="opacity:1" fill="#f0ac87" d="M 588.5,846.5 C 623.027,845.147 657.36,846.98 691.5,852C 709.75,853.635 726.084,859.968 740.5,871C 753.002,884.837 757.169,901.004 753,919.5C 751.469,939.969 745.469,958.969 735,976.5C 731.466,980.369 727.633,983.869 723.5,987C 695.408,1003.16 665.075,1011.49 632.5,1012C 602.907,1014.46 574.241,1010.46 546.5,1000C 530.121,992.284 520.621,979.451 518,961.5C 511.684,933.77 509.684,905.77 512,877.5C 518.004,867.506 526.504,860.339 537.5,856C 554.205,850.627 571.205,847.46 588.5,846.5 Z"/></g>
<g><path style="opacity:1" fill="#f0ac87" d="M 826.5,910.5 C 827.079,903.282 828.079,896.115 829.5,889C 829.486,887.615 829.152,886.449 828.5,885.5C 835.183,872.988 845.183,864.155 858.5,859C 880.94,851.936 903.94,847.936 927.5,847C 955.217,845.923 982.884,846.59 1010.5,849C 1025.7,850.513 1040.04,854.846 1053.5,862C 1060.37,866.583 1065.21,872.749 1068,880.5C 1069.74,910.989 1066.74,940.989 1059,970.5C 1054.06,983.772 1045.23,993.605 1032.5,1000C 999.08,1011.83 964.747,1015.49 929.5,1011C 902.467,1008.66 877.467,1000.32 854.5,986C 844.342,978.53 837.508,968.696 834,956.5C 829.01,941.561 826.51,926.228 826.5,910.5 Z"/></g>
<g><path style="opacity:1" fill="#cb6e56" d="M 898.5,851.5 C 916.678,850.436 934.345,852.936 951.5,859C 938.977,856.853 926.31,855.686 913.5,855.5C 902.682,855.469 892.015,856.303 881.5,858C 886.882,854.712 892.549,852.545 898.5,851.5 Z"/></g>
<g><path style="opacity:1" fill="#cb6e56" d="M 648.5,851.5 C 662.491,849.962 675.825,852.128 688.5,858C 677.079,856.676 665.579,855.842 654,855.5C 642.968,855.316 632.135,856.65 621.5,859.5C 620.833,859.333 620.167,859.167 619.5,859C 629.172,856 638.839,853.5 648.5,851.5 Z"/></g>
<g><path style="opacity:1" fill="#060504" d="M 637.5,863.5 C 660.828,860.282 682.828,864.115 703.5,875C 719.729,888.298 730.229,905.132 735,925.5C 726.464,933.705 717.631,941.538 708.5,949C 673.412,972.003 637.412,973.336 600.5,953C 589.124,945.961 579.291,937.128 571,926.5C 578.618,890.254 600.785,869.254 637.5,863.5 Z"/></g>
<g><path style="opacity:1" fill="#080605" d="M 902.5,862.5 C 920.991,861.566 938.991,864.066 956.5,870C 979.508,881.19 993.842,899.357 999.5,924.5C 995.457,931.731 990.124,937.898 983.5,943C 952.298,967.268 917.965,972.935 880.5,960C 863.952,950.794 849.119,939.294 836,925.5C 843.465,888.865 865.632,867.865 902.5,862.5 Z"/></g>
<g><path style="opacity:1" fill="#141414" d="M 671.5,878.5 C 691.142,890.942 695.642,907.609 685,928.5C 674.678,942.13 661.178,946.63 644.5,942C 625.998,933.158 619.165,918.658 624,898.5C 626.963,889.869 632.463,883.369 640.5,879C 639.906,878.536 639.239,878.369 638.5,878.5C 649.5,875.833 660.5,875.833 671.5,878.5 Z"/></g>
<g><path style="opacity:1" fill="#141414" d="M 926.5,877.5 C 947.388,889.04 952.888,905.707 943,927.5C 932.752,941.251 919.252,946.084 902.5,942C 890.837,937.67 883.337,929.503 880,917.5C 877.718,900.739 883.551,887.739 897.5,878.5C 907.016,876.365 916.683,876.032 926.5,877.5 Z"/></g>
<g><path style="opacity:1" fill="#fafafa" d="M 638.5,878.5 C 639.239,878.369 639.906,878.536 640.5,879C 632.463,883.369 626.963,889.869 624,898.5C 619.165,918.658 625.998,933.158 644.5,942C 661.178,946.63 674.678,942.13 685,928.5C 695.642,907.609 691.142,890.942 671.5,878.5C 698.821,882.315 716.488,897.481 724.5,924C 705.391,946.971 680.891,959.138 651,960.5C 627.137,959.899 607.137,950.899 591,933.5C 588.699,930.212 586.866,926.712 585.5,923C 593.257,896.413 610.924,881.579 638.5,878.5 Z"/></g>
<g><path style="opacity:1" fill="#fbfbfb" d="M 926.5,877.5 C 947.9,878.328 964.733,887.328 977,904.5C 980.34,910.177 982.84,916.177 984.5,922.5C 983.732,926.703 981.898,930.37 979,933.5C 952.685,959.966 921.851,966.799 886.5,954C 871.025,947.183 857.859,937.35 847,924.5C 853.414,897.927 870.247,882.593 897.5,878.5C 883.551,887.739 877.718,900.739 880,917.5C 883.337,929.503 890.837,937.67 902.5,942C 919.252,946.084 932.752,941.251 943,927.5C 952.888,905.707 947.388,889.04 926.5,877.5 Z"/></g>
<g><path style="opacity:1" fill="#363535" d="M 1081.5,879.5 C 1089.84,879.334 1098.17,879.5 1106.5,880C 1108.26,881.008 1109.43,882.508 1110,884.5C 1110.18,887.365 1110.68,890.031 1111.5,892.5C 1111.37,896.654 1110.54,900.654 1109,904.5C 1105.42,906.29 1101.58,906.957 1097.5,906.5C 1092.36,905.512 1087.03,905.179 1081.5,905.5C 1081.19,902.287 1081.52,899.287 1082.5,896.5C 1089.25,897.123 1095.59,896.456 1101.5,894.5C 1101.5,892.833 1101.5,891.167 1101.5,889.5C 1094.83,889.5 1088.17,889.5 1081.5,889.5C 1081.5,886.167 1081.5,882.833 1081.5,879.5 Z"/></g>
<g><path style="opacity:1" fill="#343333" d="M 489.5,881.5 C 492.167,881.5 494.833,881.5 497.5,881.5C 497.5,884.5 497.5,887.5 497.5,890.5C 490.833,890.5 484.167,890.5 477.5,890.5C 477.5,891.833 477.5,893.167 477.5,894.5C 477.414,895.496 477.748,896.329 478.5,897C 484.491,897.499 490.491,897.666 496.5,897.5C 496.5,900.5 496.5,903.5 496.5,906.5C 495.167,906.5 493.833,906.5 492.5,906.5C 492.5,907.5 492.5,908.5 492.5,909.5C 491.596,908.791 491.263,907.791 491.5,906.5C 485.167,906.5 478.833,906.5 472.5,906.5C 470.367,904.909 468.701,902.909 467.5,900.5C 468.325,896.353 468.825,892.019 469,887.5C 469.36,885.579 470.194,883.912 471.5,882.5C 477.439,881.543 483.439,881.21 489.5,881.5 Z"/></g>
<g><path style="opacity:1" fill="#f7f7f7" d="M 660.5,892.5 C 660.207,902.292 655.207,906.459 645.5,905C 644.429,904.148 643.429,903.315 642.5,902.5C 637.989,896.395 638.656,890.895 644.5,886C 651.479,883.986 656.812,886.153 660.5,892.5 Z"/></g>
<g><path style="opacity:1" fill="#f6f6f6" d="M 917.5,892.5 C 916.314,904.666 910.314,907.999 899.5,902.5C 893.928,891.472 897.261,885.638 909.5,885C 913.323,886.324 915.989,888.824 917.5,892.5 Z"/></g>
<g><path style="opacity:1" fill="#edaa85" d="M 467.5,900.5 C 468.701,902.909 470.367,904.909 472.5,906.5C 473.342,911.787 473.676,917.12 473.5,922.5C 473.663,924.857 473.497,927.19 473,929.5C 467.533,919.067 459.699,910.9 449.5,905C 444.315,902.553 438.982,902.053 433.5,903.5C 432.289,904.274 432.289,905.107 433.5,906C 436.312,907.328 438.978,908.828 441.5,910.5C 437.33,915.497 434.163,921.164 432,927.5C 428.42,957.524 435.587,984.524 453.5,1008.5C 458.595,1019.93 466.928,1027.93 478.5,1032.5C 480.048,1041.79 481.381,1051.12 482.5,1060.5C 475.265,1059.13 469.099,1055.8 464,1050.5C 426.174,1008.2 413.174,959.201 425,903.5C 432.043,887.486 443.21,883.653 458.5,892C 461.999,894.396 464.999,897.229 467.5,900.5 Z"/></g>
<g><path style="opacity:1" fill="#edaa85" d="M 1092.5,1032.5 C 1103.52,1027.48 1111.52,1019.48 1116.5,1008.5C 1134.89,984.265 1142.06,956.932 1138,926.5C 1136.07,920.281 1132.9,914.948 1128.5,910.5C 1131.02,908.828 1133.69,907.328 1136.5,906C 1137.83,905 1137.83,904 1136.5,903C 1130.08,901.699 1124.08,902.699 1118.5,906C 1109.43,912.661 1102.1,920.828 1096.5,930.5C 1096.2,922.414 1096.53,914.414 1097.5,906.5C 1101.58,906.957 1105.42,906.29 1109,904.5C 1110.54,900.654 1111.37,896.654 1111.5,892.5C 1126.03,883.727 1137.2,887.06 1145,902.5C 1157.32,958.554 1144.32,1007.89 1106,1050.5C 1101.38,1055.23 1095.88,1058.56 1089.5,1060.5C 1089.17,1059.33 1088.83,1058.17 1088.5,1057C 1090.08,1048.73 1091.42,1040.56 1092.5,1032.5 Z"/></g>
<g><path style="opacity:1" fill="#010101" d="M 660.5,892.5 C 672.483,897.596 675.983,906.263 671,918.5C 664.623,926.687 656.79,928.521 647.5,924C 640.66,919.155 638.16,912.655 640,904.5C 640.417,903.244 641.25,902.577 642.5,902.5C 643.429,903.315 644.429,904.148 645.5,905C 655.207,906.459 660.207,902.292 660.5,892.5 Z"/></g>
<g><path style="opacity:1" fill="#010101" d="M 917.5,892.5 C 929.056,896.626 932.89,904.626 929,916.5C 922.474,926.59 913.974,928.756 903.5,923C 898.082,918.338 895.916,912.505 897,905.5C 897.236,903.881 898.069,902.881 899.5,902.5C 910.314,907.999 916.314,904.666 917.5,892.5 Z"/></g>
<g><path style="opacity:1" fill="#909090" d="M 477.5,894.5 C 483.833,894.5 490.167,894.5 496.5,894.5C 496.5,895.5 496.5,896.5 496.5,897.5C 490.491,897.666 484.491,897.499 478.5,897C 477.748,896.329 477.414,895.496 477.5,894.5 Z"/></g>
<g><path style="opacity:1" fill="#858585" d="M 1101.5,894.5 C 1095.59,896.456 1089.25,897.123 1082.5,896.5C 1088.41,894.544 1094.75,893.877 1101.5,894.5 Z"/></g>
<g><path style="opacity:1" fill="#383736" d="M 818.5,907.5 C 818.717,917.584 819.717,927.584 821.5,937.5C 819.421,937.029 817.421,936.363 815.5,935.5C 795.722,929.366 776.388,930.366 757.5,938.5C 759.344,928.255 760.344,917.922 760.5,907.5C 779.775,898.228 799.109,898.228 818.5,907.5 Z"/></g>
<g><path style="opacity:1" fill="#6a261d" d="M 473.5,922.5 C 474.494,931.652 474.827,940.985 474.5,950.5C 471.025,944.897 467.525,939.231 464,933.5C 450.884,949.126 447.884,966.46 455,985.5C 444.407,971.566 442.74,956.566 450,940.5C 452.74,935.936 455.24,931.269 457.5,926.5C 453.174,920.174 447.841,914.841 441.5,910.5C 438.978,908.828 436.312,907.328 433.5,906C 432.289,905.107 432.289,904.274 433.5,903.5C 438.982,902.053 444.315,902.553 449.5,905C 459.699,910.9 467.533,919.067 473,929.5C 473.497,927.19 473.663,924.857 473.5,922.5 Z"/></g>
<g><path style="opacity:1" fill="#6a261d" d="M 1128.5,910.5 C 1122.36,914.804 1117.03,919.971 1112.5,926C 1117.68,933.855 1121.51,942.355 1124,951.5C 1126.03,963.708 1123.36,974.708 1116,984.5C 1122.33,966.466 1119.49,949.966 1107.5,935C 1106.83,934.333 1106.17,934.333 1105.5,935C 1102.6,939.981 1099.6,944.815 1096.5,949.5C 1096.5,943.167 1096.5,936.833 1096.5,930.5C 1102.1,920.828 1109.43,912.661 1118.5,906C 1124.08,902.699 1130.08,901.699 1136.5,903C 1137.83,904 1137.83,905 1136.5,906C 1133.69,907.328 1131.02,908.828 1128.5,910.5 Z"/></g>
<g><path style="opacity:1" fill="#f0ac87" d="M 496.5,897.5 C 498.431,923.151 502.931,948.485 510,973.5C 513.267,986.413 520.101,996.913 530.5,1005C 541.366,1009.88 552.699,1013.22 564.5,1015C 610.962,1023.36 656.629,1020.36 701.5,1006C 716.078,1000.47 728.911,992.301 740,981.5C 748.662,968.354 754.495,954.02 757.5,938.5C 776.388,930.366 795.722,929.366 815.5,935.5C 815.208,965.971 820.708,995.304 832,1023.5C 833.444,1025.16 835.278,1025.82 837.5,1025.5C 834.735,1012.51 831.902,999.511 829,986.5C 826.925,974.897 825.425,963.231 824.5,951.5C 827.992,965.646 834.992,977.813 845.5,988C 863.085,1000.46 882.418,1009.12 903.5,1014C 947.029,1021.96 990.362,1020.96 1033.5,1011C 1047.89,1008.57 1058.05,1000.73 1064,987.5C 1069.11,974.345 1073.28,961.011 1076.5,947.5C 1072.58,990.338 1064.58,1032.34 1052.5,1073.5C 1048.15,1085.88 1043.49,1098.21 1038.5,1110.5C 1032.61,1123.94 1025.95,1136.94 1018.5,1149.5C 1007.99,1165.85 996.49,1181.52 984,1196.5C 978.268,1202.07 972.101,1207.07 965.5,1211.5C 965.167,1210.17 964.833,1208.83 964.5,1207.5C 967.677,1191.24 968.177,1174.91 966,1158.5C 957.9,1126.02 937.067,1109.69 903.5,1109.5C 873.473,1113.47 843.473,1117.64 813.5,1122C 808.648,1122.82 803.981,1122.65 799.5,1121.5C 802.786,1119.55 805.786,1117.22 808.5,1114.5C 817.602,1111.58 826.936,1109.91 836.5,1109.5C 843.802,1114.13 849.968,1112.79 855,1105.5C 863.313,1092.77 863.646,1079.77 856,1066.5C 854.167,1064.67 852.333,1062.83 850.5,1061C 849.517,1060.41 848.85,1060.74 848.5,1062C 852.973,1071.38 854.806,1081.21 854,1091.5C 853.146,1096.36 850.646,1100.2 846.5,1103C 844.5,1103.67 842.5,1103.67 840.5,1103C 835.199,1098.7 830.199,1094.03 825.5,1089C 822.112,1088.34 818.779,1088.51 815.5,1089.5C 809.318,1089.58 803.651,1091.42 798.5,1095C 785.757,1100.41 773.757,1099.07 762.5,1091C 759.568,1090.05 756.568,1089.55 753.5,1089.5C 750.555,1088.53 747.555,1088.37 744.5,1089C 738.833,1094 733.167,1099 727.5,1104C 725.212,1104.42 723.212,1103.75 721.5,1102C 715.845,1095.13 714.012,1087.3 716,1078.5C 717.434,1072.86 719.268,1067.36 721.5,1062C 720.423,1060.46 719.089,1060.46 717.5,1062C 703.506,1078.69 704.172,1094.69 719.5,1110C 721.513,1111.26 723.679,1112.09 726,1112.5C 728.423,1111.37 730.923,1110.37 733.5,1109.5C 743.326,1110.73 752.992,1112.73 762.5,1115.5C 765.275,1118.6 768.608,1120.94 772.5,1122.5C 771.207,1123.16 769.707,1123.49 768,1123.5C 737.396,1119.41 706.896,1114.58 676.5,1109C 635.471,1102.57 610.304,1119.41 601,1159.5C 600.876,1172.53 600.709,1185.53 600.5,1198.5C 581.854,1185.69 566.021,1170.02 553,1151.5C 549.725,1145.93 546.225,1140.6 542.5,1135.5C 537.241,1125.32 532.241,1114.98 527.5,1104.5C 509.636,1058.27 498.302,1010.6 493.5,961.5C 493.762,944.143 493.429,926.81 492.5,909.5C 492.5,908.5 492.5,907.5 492.5,906.5C 493.833,906.5 495.167,906.5 496.5,906.5C 496.5,903.5 496.5,900.5 496.5,897.5 Z"/></g>
<g><path style="opacity:1" fill="#9b6356" d="M 828.5,885.5 C 829.152,886.449 829.486,887.615 829.5,889C 828.079,896.115 827.079,903.282 826.5,910.5C 824.949,902.128 825.615,893.795 828.5,885.5 Z"/></g>
<g><path style="opacity:1" fill="#f9f9f9" d="M 815.5,920.5 C 815.53,921.497 815.03,922.164 814,922.5C 796.658,915.57 779.492,915.904 762.5,923.5C 762.589,920.061 763.922,917.228 766.5,915C 769.674,913.275 773.007,911.942 776.5,911C 784.167,910.333 791.833,910.333 799.5,911C 804.383,912.072 809.05,913.739 813.5,916C 815.037,917.11 815.703,918.61 815.5,920.5 Z"/></g>
<g><path style="opacity:1" fill="#cf785e" d="M 1128.5,910.5 C 1132.9,914.948 1136.07,920.281 1138,926.5C 1142.06,956.932 1134.89,984.265 1116.5,1008.5C 1111,1013.83 1105.34,1019 1099.5,1024C 1097.83,1024.83 1096.17,1025.67 1094.5,1026.5C 1093.57,1025.31 1093.24,1023.98 1093.5,1022.5C 1095.95,998.233 1096.95,973.9 1096.5,949.5C 1099.6,944.815 1102.6,939.981 1105.5,935C 1106.17,934.333 1106.83,934.333 1107.5,935C 1119.49,949.966 1122.33,966.466 1116,984.5C 1123.36,974.708 1126.03,963.708 1124,951.5C 1121.51,942.355 1117.68,933.855 1112.5,926C 1117.03,919.971 1122.36,914.804 1128.5,910.5 Z"/></g>
<g><path style="opacity:1" fill="#cf785e" d="M 441.5,910.5 C 447.841,914.841 453.174,920.174 457.5,926.5C 455.24,931.269 452.74,935.936 450,940.5C 442.74,956.566 444.407,971.566 455,985.5C 447.884,966.46 450.884,949.126 464,933.5C 467.525,939.231 471.025,944.897 474.5,950.5C 474.423,975.216 475.423,999.882 477.5,1024.5C 477.649,1025.55 477.483,1026.55 477,1027.5C 474.913,1026.21 472.746,1025.04 470.5,1024C 464.618,1018.95 458.951,1013.78 453.5,1008.5C 435.587,984.524 428.42,957.524 432,927.5C 434.163,921.164 437.33,915.497 441.5,910.5 Z"/></g>
<g><path style="opacity:1" fill="#969696" d="M 815.5,920.5 C 816.451,921.919 816.784,923.585 816.5,925.5C 802.653,922.637 788.653,921.803 774.5,923C 771.219,923.455 768.052,924.289 765,925.5C 763.624,925.316 762.791,924.649 762.5,923.5C 779.492,915.904 796.658,915.57 814,922.5C 815.03,922.164 815.53,921.497 815.5,920.5 Z"/></g>
<g><path style="opacity:1" fill="#6c281f" d="M 815.5,935.5 C 817.421,936.363 819.421,937.029 821.5,937.5C 822.809,942.074 823.809,946.74 824.5,951.5C 825.425,963.231 826.925,974.897 829,986.5C 831.902,999.511 834.735,1012.51 837.5,1025.5C 835.278,1025.82 833.444,1025.16 832,1023.5C 820.708,995.304 815.208,965.971 815.5,935.5 Z"/></g>
<g><path style="opacity:1" fill="#d27b61" d="M 732.5,941.5 C 733.043,941.56 733.376,941.893 733.5,942.5C 730.06,949.045 726.894,955.712 724,962.5C 715.208,975.282 703.041,982.116 687.5,983C 705.856,972.811 720.856,958.978 732.5,941.5 Z"/></g>
<g><path style="opacity:1" fill="#d27b61" d="M 837.5,942.5 C 850.118,958.993 865.452,972.493 883.5,983C 868.102,982.387 855.936,975.887 847,963.5C 843.731,956.518 840.564,949.518 837.5,942.5 Z"/></g>
<g><path style="opacity:1" fill="#d69a79" d="M 1077.5,942.5 C 1078.61,986.597 1074.95,1030.26 1066.5,1073.5C 1061.83,1073.5 1057.17,1073.5 1052.5,1073.5C 1064.58,1032.34 1072.58,990.338 1076.5,947.5C 1076.22,945.585 1076.55,943.919 1077.5,942.5 Z"/></g>
<g><path style="opacity:1" fill="#cf9575" d="M 493.5,961.5 C 498.302,1010.6 509.636,1058.27 527.5,1104.5C 521.5,1103.83 515.5,1103.17 509.5,1102.5C 505.017,1077.23 500.85,1051.9 497,1026.5C 494.149,1004.92 492.983,983.257 493.5,961.5 Z"/></g>
<g><path style="opacity:1" fill="#722e24" d="M 453.5,1008.5 C 458.951,1013.78 464.618,1018.95 470.5,1024C 472.746,1025.04 474.913,1026.21 477,1027.5C 477.483,1026.55 477.649,1025.55 477.5,1024.5C 478.473,1026.95 478.806,1029.61 478.5,1032.5C 466.928,1027.93 458.595,1019.93 453.5,1008.5 Z"/></g>
<g><path style="opacity:1" fill="#712e23" d="M 1116.5,1008.5 C 1111.52,1019.48 1103.52,1027.48 1092.5,1032.5C 1092.19,1028.96 1092.52,1025.62 1093.5,1022.5C 1093.24,1023.98 1093.57,1025.31 1094.5,1026.5C 1096.17,1025.67 1097.83,1024.83 1099.5,1024C 1105.34,1019 1111,1013.83 1116.5,1008.5 Z"/></g>
<g><path style="opacity:1" fill="#6b271e" d="M 753.5,1089.5 C 757.709,1094.22 761.209,1099.55 764,1105.5C 773.514,1118.58 785.347,1121.08 799.5,1113C 805.462,1105.57 810.795,1097.74 815.5,1089.5C 818.779,1088.51 822.112,1088.34 825.5,1089C 830.199,1094.03 835.199,1098.7 840.5,1103C 842.5,1103.67 844.5,1103.67 846.5,1103C 850.646,1100.2 853.146,1096.36 854,1091.5C 854.806,1081.21 852.973,1071.38 848.5,1062C 848.85,1060.74 849.517,1060.41 850.5,1061C 852.333,1062.83 854.167,1064.67 856,1066.5C 863.646,1079.77 863.313,1092.77 855,1105.5C 849.968,1112.79 843.802,1114.13 836.5,1109.5C 832.062,1105.56 827.729,1101.4 823.5,1097C 820.682,1096.16 818.516,1096.99 817,1099.5C 814.143,1104.55 811.309,1109.55 808.5,1114.5C 805.786,1117.22 802.786,1119.55 799.5,1121.5C 790.66,1126.39 781.66,1126.72 772.5,1122.5C 768.608,1120.94 765.275,1118.6 762.5,1115.5C 758.51,1110.2 755.01,1104.53 752,1098.5C 750.938,1097.1 749.605,1096.1 748,1095.5C 742.676,1099.66 737.843,1104.32 733.5,1109.5C 730.923,1110.37 728.423,1111.37 726,1112.5C 723.679,1112.09 721.513,1111.26 719.5,1110C 704.172,1094.69 703.506,1078.69 717.5,1062C 719.089,1060.46 720.423,1060.46 721.5,1062C 719.268,1067.36 717.434,1072.86 716,1078.5C 714.012,1087.3 715.845,1095.13 721.5,1102C 723.212,1103.75 725.212,1104.42 727.5,1104C 733.167,1099 738.833,1094 744.5,1089C 747.555,1088.37 750.555,1088.53 753.5,1089.5 Z"/></g>
<g><path style="opacity:1" fill="#c66751" d="M 753.5,1089.5 C 756.568,1089.55 759.568,1090.05 762.5,1091C 773.757,1099.07 785.757,1100.41 798.5,1095C 803.651,1091.42 809.318,1089.58 815.5,1089.5C 810.795,1097.74 805.462,1105.57 799.5,1113C 785.347,1121.08 773.514,1118.58 764,1105.5C 761.209,1099.55 757.709,1094.22 753.5,1089.5 Z"/></g>
<g><path style="opacity:1" fill="#c48d6e" d="M 1052.5,1073.5 C 1057.17,1073.5 1061.83,1073.5 1066.5,1073.5C 1064.67,1083.15 1062.84,1092.81 1061,1102.5C 1058.65,1104.75 1057.15,1107.42 1056.5,1110.5C 1050.5,1110.5 1044.5,1110.5 1038.5,1110.5C 1043.49,1098.21 1048.15,1085.88 1052.5,1073.5 Z"/></g>
<g><path style="opacity:1" fill="#bb775d" d="M 762.5,1115.5 C 752.992,1112.73 743.326,1110.73 733.5,1109.5C 737.843,1104.32 742.676,1099.66 748,1095.5C 749.605,1096.1 750.938,1097.1 752,1098.5C 755.01,1104.53 758.51,1110.2 762.5,1115.5 Z"/></g>
<g><path style="opacity:1" fill="#bc785e" d="M 836.5,1109.5 C 826.936,1109.91 817.602,1111.58 808.5,1114.5C 811.309,1109.55 814.143,1104.55 817,1099.5C 818.516,1096.99 820.682,1096.16 823.5,1097C 827.729,1101.4 832.062,1105.56 836.5,1109.5 Z"/></g>
<g><path style="opacity:1" fill="#8f6651" d="M 772.5,1122.5 C 781.66,1126.72 790.66,1126.39 799.5,1121.5C 803.981,1122.65 808.648,1122.82 813.5,1122C 843.473,1117.64 873.473,1113.47 903.5,1109.5C 937.067,1109.69 957.9,1126.02 966,1158.5C 968.177,1174.91 967.677,1191.24 964.5,1207.5C 964.833,1208.83 965.167,1210.17 965.5,1211.5C 972.101,1207.07 978.268,1202.07 984,1196.5C 996.49,1181.52 1007.99,1165.85 1018.5,1149.5C 1022.97,1150.09 1026.97,1149.42 1030.5,1147.5C 1032.89,1151.94 1035.56,1156.27 1038.5,1160.5C 1039.72,1158.1 1039.56,1155.77 1038,1153.5C 1035.61,1150.62 1033.45,1147.62 1031.5,1144.5C 1036.36,1144.82 1041.03,1144.49 1045.5,1143.5C 1047.27,1146.61 1048.77,1149.94 1050,1153.5C 1050.17,1152.17 1050.33,1150.83 1050.5,1149.5C 1049.3,1142.9 1047.3,1136.56 1044.5,1130.5C 1045.83,1130.5 1046.5,1129.83 1046.5,1128.5C 1047.62,1130.74 1048.79,1133.07 1050,1135.5C 1051,1136.83 1052,1136.83 1053,1135.5C 1053.73,1130.45 1053.56,1125.45 1052.5,1120.5C 1054.78,1120.92 1056.45,1120.26 1057.5,1118.5C 1056.23,1133.8 1053.73,1149.13 1050,1164.5C 1047.94,1159.49 1045.77,1154.49 1043.5,1149.5C 1042.64,1148.23 1041.97,1148.39 1041.5,1150C 1046.03,1164.38 1046.53,1178.88 1043,1193.5C 1042.67,1189.17 1042.33,1184.83 1042,1180.5C 1041.75,1179.38 1041.25,1178.38 1040.5,1177.5C 1039.89,1177.62 1039.56,1177.96 1039.5,1178.5C 1038.6,1179.21 1038.26,1180.21 1038.5,1181.5C 1032.17,1181.5 1025.83,1181.5 1019.5,1181.5C 1017.71,1176.53 1014.87,1172.2 1011,1168.5C 1010.13,1169.11 1009.63,1169.94 1009.5,1171C 1010.54,1174.53 1012.21,1177.7 1014.5,1180.5C 1011.04,1181.48 1007.37,1181.81 1003.5,1181.5C 1002.03,1180.71 1000.7,1180.71 999.5,1181.5C 1002.12,1186.4 1004.45,1191.4 1006.5,1196.5C 1003.5,1196.5 1000.5,1196.5 997.5,1196.5C 995.563,1195.07 993.73,1193.4 992,1191.5C 995.114,1199.08 998.28,1206.74 1001.5,1214.5C 997.366,1215.48 993.032,1215.82 988.5,1215.5C 985.351,1211.91 982.184,1208.24 979,1204.5C 980.113,1208.09 981.279,1211.76 982.5,1215.5C 976.5,1215.5 970.5,1215.5 964.5,1215.5C 963.871,1221.57 962.871,1227.57 961.5,1233.5C 961.5,1235.83 961.5,1238.17 961.5,1240.5C 960.691,1242.03 960.024,1243.69 959.5,1245.5C 959.425,1248.21 959.092,1250.87 958.5,1253.5C 957.095,1257.75 956.095,1262.08 955.5,1266.5C 954.699,1268.04 954.366,1269.71 954.5,1271.5C 953.845,1274.96 952.845,1278.3 951.5,1281.5C 950.656,1286.88 949.489,1292.21 948,1297.5C 947.502,1300.82 947.335,1304.15 947.5,1307.5C 946.25,1307.58 945.417,1308.24 945,1309.5C 941.928,1320.21 938.761,1330.88 935.5,1341.5C 934.167,1344.83 931.833,1347.17 928.5,1348.5C 932.269,1334.56 932.436,1320.56 929,1306.5C 927.141,1322.73 924.308,1338.73 920.5,1354.5C 918.396,1356.1 916.396,1357.93 914.5,1360C 913.517,1360.59 912.85,1360.26 912.5,1359C 914.412,1352.57 914.745,1346.07 913.5,1339.5C 911.029,1346.04 908.862,1352.71 907,1359.5C 906.063,1362.66 904.563,1365.49 902.5,1368C 898.973,1370.59 895.306,1372.59 891.5,1374C 895.727,1367.07 897.56,1359.57 897,1351.5C 892.939,1360.62 888.606,1369.62 884,1378.5C 875.621,1383.77 866.788,1388.11 857.5,1391.5C 867.902,1376.9 872.235,1360.57 870.5,1342.5C 869.5,1342.5 868.5,1342.5 867.5,1342.5C 864.926,1359.22 859.926,1375.22 852.5,1390.5C 853.127,1391.42 853.461,1392.42 853.5,1393.5C 846.911,1395.48 840.245,1397.15 833.5,1398.5C 840.272,1382.2 843.272,1365.2 842.5,1347.5C 844.806,1347.01 847.139,1346.67 849.5,1346.5C 848.445,1362.56 845.445,1378.22 840.5,1393.5C 841.978,1393.76 843.311,1393.43 844.5,1392.5C 852.118,1377.53 854.785,1361.87 852.5,1345.5C 861.158,1342.39 869.825,1339.05 878.5,1335.5C 878.337,1337.86 878.503,1340.19 879,1342.5C 881.753,1339.74 883.253,1336.41 883.5,1332.5C 891.578,1325.76 898.578,1318.09 904.5,1309.5C 904.835,1314.18 905.335,1318.84 906,1323.5C 907,1324.83 908,1324.83 909,1323.5C 909.667,1316.83 909.667,1310.17 909,1303.5C 908.617,1302.94 908.117,1302.61 907.5,1302.5C 911.119,1294.3 914.119,1285.97 916.5,1277.5C 916.967,1293.57 916.3,1309.57 914.5,1325.5C 915.822,1325.67 916.989,1325.34 918,1324.5C 919.197,1321.91 920.197,1319.24 921,1316.5C 921.573,1302.82 921.239,1289.15 920,1275.5C 918.855,1274.32 917.688,1274.32 916.5,1275.5C 919.091,1265.1 921.425,1254.76 923.5,1244.5C 926.794,1255.53 928.627,1266.87 929,1278.5C 930.119,1285.22 931.453,1291.88 933,1298.5C 937.245,1278.15 934.578,1258.81 925,1240.5C 924.722,1241.42 924.222,1242.08 923.5,1242.5C 927.237,1217.83 929.237,1193.16 929.5,1168.5C 929.159,1176.49 931.659,1183.49 937,1189.5C 936.506,1180.51 934.006,1172.18 929.5,1164.5C 929.672,1163.51 929.338,1162.84 928.5,1162.5C 929.729,1159.04 931.729,1158.71 934.5,1161.5C 940.815,1173.83 941.815,1173.5 937.5,1160.5C 940.242,1158.07 941.075,1155.07 940,1151.5C 937.629,1148.79 934.963,1146.46 932,1144.5C 928.196,1132.71 921.363,1123.21 911.5,1116C 910.123,1114.76 908.79,1114.59 907.5,1115.5C 912.381,1124.1 917.381,1132.6 922.5,1141C 921.264,1143.25 919.597,1143.75 917.5,1142.5C 912.095,1134.87 906.095,1127.7 899.5,1121C 898.668,1120.31 898.002,1120.48 897.5,1121.5C 901.565,1130.7 905.232,1140.03 908.5,1149.5C 904.731,1149.24 901.064,1149.58 897.5,1150.5C 894.139,1137.31 887.305,1126.31 877,1117.5C 881.911,1128.66 887.411,1139.66 893.5,1150.5C 890.167,1150.5 886.833,1150.5 883.5,1150.5C 879.864,1136.22 872.03,1124.88 860,1116.5C 866.351,1127.52 872.518,1138.85 878.5,1150.5C 875.5,1150.5 872.5,1150.5 869.5,1150.5C 865.179,1142.53 860.846,1134.53 856.5,1126.5C 855.833,1125.17 855.167,1125.17 854.5,1126.5C 857.401,1133.03 859.567,1139.7 861,1146.5C 856.24,1136.64 850.24,1127.64 843,1119.5C 842.333,1120.5 842.333,1121.5 843,1122.5C 847.708,1131.12 851.541,1140.12 854.5,1149.5C 852.167,1149.5 849.833,1149.5 847.5,1149.5C 843.681,1141.19 839.847,1132.86 836,1124.5C 836.943,1132.83 838.11,1141.16 839.5,1149.5C 830.833,1149.5 822.167,1149.5 813.5,1149.5C 809.607,1117.78 807.607,1117.78 807.5,1149.5C 808.833,1149.5 810.167,1149.5 811.5,1149.5C 808.038,1150.48 804.371,1150.81 800.5,1150.5C 799.805,1142.77 797.139,1135.77 792.5,1129.5C 792.167,1130.33 791.833,1131.17 791.5,1132C 792.437,1138.81 793.104,1145.64 793.5,1152.5C 789.469,1154.37 785.469,1154.7 781.5,1153.5C 782.748,1152.67 783.415,1151.33 783.5,1149.5C 783.022,1143.29 781.689,1137.29 779.5,1131.5C 777.125,1138.28 776.125,1145.28 776.5,1152.5C 774.565,1151.85 772.565,1151.52 770.5,1151.5C 771.032,1143.76 771.532,1136.09 772,1128.5C 767.804,1135.62 765.304,1143.29 764.5,1151.5C 761.609,1150.6 758.609,1150.26 755.5,1150.5C 756.128,1143.42 756.961,1136.42 758,1129.5C 754.331,1136.15 751.831,1143.15 750.5,1150.5C 743.167,1150.5 735.833,1150.5 728.5,1150.5C 732.123,1143.13 734.623,1135.46 736,1127.5C 730.125,1134.53 725.292,1142.2 721.5,1150.5C 717.833,1150.5 714.167,1150.5 710.5,1150.5C 715.912,1140.57 721.578,1130.74 727.5,1121C 727.167,1120.83 726.833,1120.67 726.5,1120.5C 716.531,1128.08 709.198,1137.74 704.5,1149.5C 706.045,1150.45 707.712,1150.79 709.5,1150.5C 704.36,1151.49 699.026,1151.82 693.5,1151.5C 695.99,1147.86 698.49,1144.2 701,1140.5C 702.497,1135.53 703.497,1130.53 704,1125.5C 697.201,1133.79 691.034,1142.45 685.5,1151.5C 681.5,1151.5 677.5,1151.5 673.5,1151.5C 680.508,1140.82 686.508,1129.49 691.5,1117.5C 690.635,1116.42 689.635,1116.25 688.5,1117C 682.035,1120.65 676.202,1125.15 671,1130.5C 669.991,1132.02 669.491,1133.69 669.5,1135.5C 673.131,1134.39 676.131,1132.23 678.5,1129C 680.369,1127.4 682.369,1126.4 684.5,1126C 677.867,1134.12 671.867,1142.62 666.5,1151.5C 666.5,1151.83 666.5,1152.17 666.5,1152.5C 663.474,1151.83 660.474,1150.99 657.5,1150C 654.289,1147.59 651.289,1144.92 648.5,1142C 655.383,1133.61 661.716,1124.77 667.5,1115.5C 663.929,1114.75 660.595,1115.58 657.5,1118C 651.639,1121.03 647.306,1125.53 644.5,1131.5C 644.833,1131.83 645.167,1132.17 645.5,1132.5C 649.518,1128.65 653.685,1124.98 658,1121.5C 658.167,1121.83 658.333,1122.17 658.5,1122.5C 653.466,1128.74 648.799,1135.24 644.5,1142C 642,1142.89 639.667,1144.05 637.5,1145.5C 636.985,1141.55 636.819,1137.55 637,1133.5C 631.44,1145.18 627.273,1157.35 624.5,1170C 624.833,1170.83 625.167,1171.67 625.5,1172.5C 629.521,1169.63 632.187,1165.8 633.5,1161C 636.856,1159.82 640.19,1159.65 643.5,1160.5C 640.797,1166.44 638.797,1172.61 637.5,1179C 638.178,1182.2 639.012,1185.36 640,1188.5C 640.878,1184.95 642.044,1181.61 643.5,1178.5C 643.5,1183.83 643.5,1189.17 643.5,1194.5C 634.47,1207.61 631.304,1221.94 634,1237.5C 636.905,1226.51 640.405,1215.84 644.5,1205.5C 644.559,1214.6 645.226,1223.6 646.5,1232.5C 645.504,1232.41 644.671,1232.75 644,1233.5C 636.571,1246.55 632.905,1260.55 633,1275.5C 637.272,1263.31 641.772,1251.31 646.5,1239.5C 648.734,1249.67 650.734,1260.01 652.5,1270.5C 649.783,1273.64 648.949,1277.3 650,1281.5C 650.926,1279.31 652.093,1277.31 653.5,1275.5C 654.64,1278.37 655.64,1281.37 656.5,1284.5C 653.092,1287.64 650.925,1291.64 650,1296.5C 647.711,1302.38 647.211,1308.38 648.5,1314.5C 652.099,1306.37 655.099,1298.04 657.5,1289.5C 660.128,1295.43 662.795,1301.43 665.5,1307.5C 664.187,1325.53 666.021,1343.19 671,1360.5C 671.5,1345.5 671.667,1330.5 671.5,1315.5C 674.138,1318.47 676.805,1321.47 679.5,1324.5C 677.873,1341.96 681.373,1358.29 690,1373.5C 692.647,1377.31 695.813,1380.65 699.5,1383.5C 700.652,1380.89 700.818,1378.23 700,1375.5C 690.733,1361.2 685.566,1345.53 684.5,1328.5C 687.869,1330.51 691.202,1332.51 694.5,1334.5C 693.957,1334.56 693.624,1334.89 693.5,1335.5C 694.36,1337.93 696.027,1339.26 698.5,1339.5C 698.5,1338.5 698.5,1337.5 698.5,1336.5C 707.639,1340.33 716.973,1343.33 726.5,1345.5C 725.556,1348.67 725.556,1352 726.5,1355.5C 727.93,1355.58 729.264,1355.25 730.5,1354.5C 731.484,1351.57 731.817,1348.57 731.5,1345.5C 735.991,1346.11 739.991,1345.11 743.5,1342.5C 742.263,1363.76 746.596,1383.76 756.5,1402.5C 754.139,1402.33 751.806,1401.99 749.5,1401.5C 741.456,1392.74 736.622,1382.41 735,1370.5C 734.333,1369.17 733.333,1368.17 732,1367.5C 731.046,1379.01 733.546,1389.68 739.5,1399.5C 735.5,1398.5 731.5,1397.5 727.5,1396.5C 723.214,1383.56 721.047,1370.22 721,1356.5C 720.586,1356.04 720.086,1355.71 719.5,1355.5C 717.931,1356.71 717.098,1358.38 717,1360.5C 715.94,1371.79 717.106,1382.79 720.5,1393.5C 719.041,1393.57 717.708,1393.23 716.5,1392.5C 713.756,1376.69 710.589,1361.02 707,1345.5C 705.603,1346.23 704.769,1347.39 704.5,1349C 702.752,1362.93 704.419,1376.43 709.5,1389.5C 702.921,1387.21 696.588,1384.38 690.5,1381C 685.959,1374.75 681.792,1368.25 678,1361.5C 677.462,1365.44 677.962,1369.28 679.5,1373C 679.167,1373.5 678.833,1374 678.5,1374.5C 673.963,1371.74 669.63,1368.74 665.5,1365.5C 656.328,1349.31 653.995,1332.14 658.5,1314C 656.704,1313.56 655.371,1314.23 654.5,1316C 650.253,1330.29 650.586,1344.46 655.5,1358.5C 651.854,1356.18 648.52,1353.52 645.5,1350.5C 643.054,1339.67 641.887,1328.67 642,1317.5C 637.982,1326 636.482,1335 637.5,1344.5C 635.806,1343.47 634.473,1342.14 633.5,1340.5C 633.662,1338.47 633.495,1336.47 633,1334.5C 623.119,1305.31 614.953,1275.65 608.5,1245.5C 607.841,1242.54 607.508,1239.54 607.5,1236.5C 605.715,1226.94 603.715,1217.61 601.5,1208.5C 601.662,1206.47 601.495,1204.47 601,1202.5C 599.925,1206.77 599.425,1211.1 599.5,1215.5C 597.833,1215.5 596.167,1215.5 594.5,1215.5C 594.666,1210.49 594.499,1205.49 594,1200.5C 591.134,1205.05 589.968,1210.05 590.5,1215.5C 589.5,1215.5 588.5,1215.5 587.5,1215.5C 587.818,1210.97 587.485,1206.63 586.5,1202.5C 586.824,1198.45 586.491,1194.45 585.5,1190.5C 584.534,1192.4 584.201,1194.4 584.5,1196.5C 582.5,1196.5 580.5,1196.5 578.5,1196.5C 579.221,1193.18 579.388,1189.85 579,1186.5C 577.226,1193.55 575.393,1200.55 573.5,1207.5C 572.834,1210.03 572.168,1212.69 571.5,1215.5C 570.83,1213.71 570.163,1212.04 569.5,1210.5C 568.849,1209.91 568.182,1209.24 567.5,1208.5C 566.534,1210.4 566.201,1212.4 566.5,1214.5C 563.69,1216.18 561.357,1215.84 559.5,1213.5C 559.29,1210.03 558.123,1210.03 556,1213.5C 550.795,1226.41 550.295,1239.41 554.5,1252.5C 550.173,1245.85 546.339,1238.85 543,1231.5C 542.956,1221.83 542.956,1212.17 543,1202.5C 542.333,1201.83 541.667,1201.17 541,1200.5C 540.05,1207.81 539.383,1215.14 539,1222.5C 536.946,1219.06 535.446,1215.39 534.5,1211.5C 535.234,1200.12 536.401,1188.79 538,1177.5C 538.667,1169.83 538.667,1162.17 538,1154.5C 535.924,1160.6 534.591,1166.94 534,1173.5C 533.831,1185.34 533.331,1197.01 532.5,1208.5C 531.644,1204.43 530.477,1200.43 529,1196.5C 528.523,1184.49 527.857,1172.49 527,1160.5C 525.593,1166.76 524.593,1173.09 524,1179.5C 520.601,1163.2 517.434,1146.87 514.5,1130.5C 516.483,1130.84 517.817,1130.18 518.5,1128.5C 519.232,1129.81 520.066,1131.14 521,1132.5C 521.177,1128.64 521.677,1124.98 522.5,1121.5C 522.5,1124.5 522.5,1127.5 522.5,1130.5C 523.833,1130.5 525.167,1130.5 526.5,1130.5C 526.172,1135.87 526.505,1141.21 527.5,1146.5C 528.829,1140.42 529.829,1134.42 530.5,1128.5C 530.5,1130.83 530.5,1133.17 530.5,1135.5C 534.5,1135.5 538.5,1135.5 542.5,1135.5C 546.225,1140.6 549.725,1145.93 553,1151.5C 566.021,1170.02 581.854,1185.69 600.5,1198.5C 600.709,1185.53 600.876,1172.53 601,1159.5C 610.304,1119.41 635.471,1102.57 676.5,1109C 706.896,1114.58 737.396,1119.41 768,1123.5C 769.707,1123.49 771.207,1123.16 772.5,1122.5 Z"/></g>
<g><path style="opacity:1" fill="#b58266" d="M 509.5,1102.5 C 515.5,1103.17 521.5,1103.83 527.5,1104.5C 532.241,1114.98 537.241,1125.32 542.5,1135.5C 538.5,1135.5 534.5,1135.5 530.5,1135.5C 530.5,1133.17 530.5,1130.83 530.5,1128.5C 530.631,1127.62 530.298,1126.96 529.5,1126.5C 527.45,1127.08 526.45,1128.41 526.5,1130.5C 525.167,1130.5 523.833,1130.5 522.5,1130.5C 522.5,1127.5 522.5,1124.5 522.5,1121.5C 522.665,1118.15 522.498,1114.82 522,1111.5C 520.748,1113 519.748,1114.67 519,1116.5C 518.501,1120.49 518.334,1124.49 518.5,1128.5C 517.817,1130.18 516.483,1130.84 514.5,1130.5C 513.264,1121.08 511.597,1111.75 509.5,1102.5 Z"/></g>
<g><path style="opacity:1" fill="#22211f" d="M 522.5,1121.5 C 521.677,1124.98 521.177,1128.64 521,1132.5C 520.066,1131.14 519.232,1129.81 518.5,1128.5C 518.334,1124.49 518.501,1120.49 519,1116.5C 519.748,1114.67 520.748,1113 522,1111.5C 522.498,1114.82 522.665,1118.15 522.5,1121.5 Z"/></g>
<g><path style="opacity:1" fill="#1f1f1e" d="M 1052.5,1120.5 C 1053.56,1125.45 1053.73,1130.45 1053,1135.5C 1052,1136.83 1051,1136.83 1050,1135.5C 1048.79,1133.07 1047.62,1130.74 1046.5,1128.5C 1046.21,1124.06 1046.71,1119.73 1048,1115.5C 1049.52,1117.24 1051.02,1118.91 1052.5,1120.5 Z"/></g>
<g><path style="opacity:1" fill="#21201e" d="M 1044.5,1130.5 C 1047.3,1136.56 1049.3,1142.9 1050.5,1149.5C 1050.33,1150.83 1050.17,1152.17 1050,1153.5C 1048.77,1149.94 1047.27,1146.61 1045.5,1143.5C 1042.06,1136.78 1038.72,1129.95 1035.5,1123C 1035.85,1121.74 1036.52,1121.41 1037.5,1122C 1039.73,1125 1042.07,1127.83 1044.5,1130.5 Z"/></g>
<g><path style="opacity:1" fill="#1d1e1d" d="M 931.5,1122.5 C 935.888,1123.45 939.388,1125.78 942,1129.5C 951.609,1142.34 957.276,1156.67 959,1172.5C 953.176,1160.18 946.843,1148.18 940,1136.5C 941.058,1141.69 942.558,1146.85 944.5,1152C 944.333,1152.5 944.167,1153 944,1153.5C 937.983,1143.96 933.817,1133.62 931.5,1122.5 Z"/></g>
<g><path style="opacity:1" fill="#1e1e1d" d="M 631.5,1122.5 C 632.043,1122.56 632.376,1122.89 632.5,1123.5C 627.958,1134.62 623.125,1145.62 618,1156.5C 615.83,1163.52 613.83,1170.52 612,1177.5C 608.517,1164.67 610.517,1152.67 618,1141.5C 622.331,1135.01 626.831,1128.68 631.5,1122.5 Z"/></g>
<g><path style="opacity:1" fill="#201f1e" d="M 530.5,1128.5 C 529.829,1134.42 528.829,1140.42 527.5,1146.5C 526.505,1141.21 526.172,1135.87 526.5,1130.5C 526.45,1128.41 527.45,1127.08 529.5,1126.5C 530.298,1126.96 530.631,1127.62 530.5,1128.5 Z"/></g>
<g><path style="opacity:1" fill="#ad7c62" d="M 1038.5,1110.5 C 1044.5,1110.5 1050.5,1110.5 1056.5,1110.5C 1056.4,1113.24 1056.73,1115.9 1057.5,1118.5C 1056.45,1120.26 1054.78,1120.92 1052.5,1120.5C 1051.02,1118.91 1049.52,1117.24 1048,1115.5C 1046.71,1119.73 1046.21,1124.06 1046.5,1128.5C 1046.5,1129.83 1045.83,1130.5 1044.5,1130.5C 1042.07,1127.83 1039.73,1125 1037.5,1122C 1036.52,1121.41 1035.85,1121.74 1035.5,1123C 1038.72,1129.95 1042.06,1136.78 1045.5,1143.5C 1041.03,1144.49 1036.36,1144.82 1031.5,1144.5C 1030.42,1143.03 1029.08,1142.19 1027.5,1142C 1028.64,1143.78 1029.64,1145.61 1030.5,1147.5C 1026.97,1149.42 1022.97,1150.09 1018.5,1149.5C 1025.95,1136.94 1032.61,1123.94 1038.5,1110.5 Z"/></g>
<g><path style="opacity:1" fill="#242220" d="M 532.5,1136.5 C 535.905,1138.81 537.238,1142.14 536.5,1146.5C 536.7,1151.73 535.2,1156.4 532,1160.5C 531.567,1152.49 531.734,1144.49 532.5,1136.5 Z"/></g>
<g><path style="opacity:1" fill="#080706" d="M 666.5,1152.5 C 748.776,1171.83 830.776,1171 912.5,1150C 911.207,1149.51 909.873,1149.34 908.5,1149.5C 905.232,1140.03 901.565,1130.7 897.5,1121.5C 898.002,1120.48 898.668,1120.31 899.5,1121C 906.095,1127.7 912.095,1134.87 917.5,1142.5C 919.597,1143.75 921.264,1143.25 922.5,1141C 917.381,1132.6 912.381,1124.1 907.5,1115.5C 908.79,1114.59 910.123,1114.76 911.5,1116C 921.363,1123.21 928.196,1132.71 932,1144.5C 934.963,1146.46 937.629,1148.79 940,1151.5C 941.075,1155.07 940.242,1158.07 937.5,1160.5C 941.815,1173.5 940.815,1173.83 934.5,1161.5C 931.729,1158.71 929.729,1159.04 928.5,1162.5C 926.562,1166.04 924.895,1169.71 923.5,1173.5C 910.537,1198.76 897.037,1223.76 883,1248.5C 865.455,1279.04 838.955,1295.54 803.5,1298C 779.364,1300.73 756.031,1297.73 733.5,1289C 719.57,1282.4 708.07,1272.9 699,1260.5C 683.968,1235.76 669.468,1210.76 655.5,1185.5C 652.205,1177.58 648.372,1169.91 644,1162.5C 643.501,1167.82 643.334,1173.16 643.5,1178.5C 642.044,1181.61 640.878,1184.95 640,1188.5C 639.012,1185.36 638.178,1182.2 637.5,1179C 638.797,1172.61 640.797,1166.44 643.5,1160.5C 640.19,1159.65 636.856,1159.82 633.5,1161C 632.187,1165.8 629.521,1169.63 625.5,1172.5C 625.167,1171.67 624.833,1170.83 624.5,1170C 627.273,1157.35 631.44,1145.18 637,1133.5C 636.819,1137.55 636.985,1141.55 637.5,1145.5C 639.667,1144.05 642,1142.89 644.5,1142C 648.799,1135.24 653.466,1128.74 658.5,1122.5C 658.333,1122.17 658.167,1121.83 658,1121.5C 653.685,1124.98 649.518,1128.65 645.5,1132.5C 645.167,1132.17 644.833,1131.83 644.5,1131.5C 647.306,1125.53 651.639,1121.03 657.5,1118C 660.595,1115.58 663.929,1114.75 667.5,1115.5C 661.716,1124.77 655.383,1133.61 648.5,1142C 651.289,1144.92 654.289,1147.59 657.5,1150C 660.474,1150.99 663.474,1151.83 666.5,1152.5 Z"/></g>
<g><path style="opacity:1" fill="#292522" d="M 781.5,1153.5 C 779.708,1153.63 778.042,1153.3 776.5,1152.5C 776.125,1145.28 777.125,1138.28 779.5,1131.5C 781.689,1137.29 783.022,1143.29 783.5,1149.5C 783.415,1151.33 782.748,1152.67 781.5,1153.5 Z"/></g>
<g><path style="opacity:1" fill="#21201e" d="M 755.5,1150.5 C 753.833,1150.5 752.167,1150.5 750.5,1150.5C 751.831,1143.15 754.331,1136.15 758,1129.5C 756.961,1136.42 756.128,1143.42 755.5,1150.5 Z"/></g>
<g><path style="opacity:1" fill="#1e1e1d" d="M 770.5,1151.5 C 768.5,1151.5 766.5,1151.5 764.5,1151.5C 765.304,1143.29 767.804,1135.62 772,1128.5C 771.532,1136.09 771.032,1143.76 770.5,1151.5 Z"/></g>
<g><path style="opacity:1" fill="#21201e" d="M 800.5,1150.5 C 798.401,1151.61 796.067,1152.28 793.5,1152.5C 793.104,1145.64 792.437,1138.81 791.5,1132C 791.833,1131.17 792.167,1130.33 792.5,1129.5C 797.139,1135.77 799.805,1142.77 800.5,1150.5 Z"/></g>
<g><path style="opacity:1" fill="#201f1e" d="M 728.5,1150.5 C 726.167,1150.5 723.833,1150.5 721.5,1150.5C 725.292,1142.2 730.125,1134.53 736,1127.5C 734.623,1135.46 732.123,1143.13 728.5,1150.5 Z"/></g>
<g><path style="opacity:1" fill="#1e1e1d" d="M 847.5,1149.5 C 844.833,1149.5 842.167,1149.5 839.5,1149.5C 838.11,1141.16 836.943,1132.83 836,1124.5C 839.847,1132.86 843.681,1141.19 847.5,1149.5 Z"/></g>
<g><path style="opacity:1" fill="#1f1e1d" d="M 818.5,1124.5 C 819.497,1124.47 820.164,1124.97 820.5,1126C 823.149,1133.44 825.482,1140.94 827.5,1148.5C 824.833,1148.5 822.167,1148.5 819.5,1148.5C 818.677,1140.53 818.344,1132.53 818.5,1124.5 Z"/></g>
<g><path style="opacity:1" fill="#201f1e" d="M 813.5,1149.5 C 812.833,1149.5 812.167,1149.5 811.5,1149.5C 810.167,1149.5 808.833,1149.5 807.5,1149.5C 807.607,1117.78 809.607,1117.78 813.5,1149.5 Z"/></g>
<g><path style="opacity:1" fill="#1e1e1d" d="M 693.5,1151.5 C 690.833,1151.5 688.167,1151.5 685.5,1151.5C 691.034,1142.45 697.201,1133.79 704,1125.5C 703.497,1130.53 702.497,1135.53 701,1140.5C 698.49,1144.2 695.99,1147.86 693.5,1151.5 Z"/></g>
<g><path style="opacity:1" fill="#1f1e1d" d="M 748.5,1123.5 C 749.376,1123.37 750.043,1123.7 750.5,1124.5C 747.551,1132.68 745.217,1141.01 743.5,1149.5C 741.833,1149.5 740.167,1149.5 738.5,1149.5C 740.461,1140.28 743.794,1131.61 748.5,1123.5 Z"/></g>
<g><path style="opacity:1" fill="#201f1e" d="M 869.5,1150.5 C 864.405,1150.78 859.405,1150.45 854.5,1149.5C 851.541,1140.12 847.708,1131.12 843,1122.5C 842.333,1121.5 842.333,1120.5 843,1119.5C 850.24,1127.64 856.24,1136.64 861,1146.5C 859.567,1139.7 857.401,1133.03 854.5,1126.5C 855.167,1125.17 855.833,1125.17 856.5,1126.5C 860.846,1134.53 865.179,1142.53 869.5,1150.5 Z"/></g>
<g><path style="opacity:1" fill="#1e1e1d" d="M 710.5,1150.5 C 710.167,1150.5 709.833,1150.5 709.5,1150.5C 707.712,1150.79 706.045,1150.45 704.5,1149.5C 709.198,1137.74 716.531,1128.08 726.5,1120.5C 726.833,1120.67 727.167,1120.83 727.5,1121C 721.578,1130.74 715.912,1140.57 710.5,1150.5 Z"/></g>
<g><path style="opacity:1" fill="#1f1e1d" d="M 883.5,1150.5 C 881.833,1150.5 880.167,1150.5 878.5,1150.5C 872.518,1138.85 866.351,1127.52 860,1116.5C 872.03,1124.88 879.864,1136.22 883.5,1150.5 Z"/></g>
<g><path style="opacity:1" fill="#201f1e" d="M 897.5,1150.5 C 896.167,1150.5 894.833,1150.5 893.5,1150.5C 887.411,1139.66 881.911,1128.66 877,1117.5C 887.305,1126.31 894.139,1137.31 897.5,1150.5 Z"/></g>
<g><path style="opacity:1" fill="#1f1e1d" d="M 673.5,1151.5 C 671.167,1151.5 668.833,1151.5 666.5,1151.5C 671.867,1142.62 677.867,1134.12 684.5,1126C 682.369,1126.4 680.369,1127.4 678.5,1129C 676.131,1132.23 673.131,1134.39 669.5,1135.5C 669.491,1133.69 669.991,1132.02 671,1130.5C 676.202,1125.15 682.035,1120.65 688.5,1117C 689.635,1116.25 690.635,1116.42 691.5,1117.5C 686.508,1129.49 680.508,1140.82 673.5,1151.5 Z"/></g>
<g><path style="opacity:1" fill="#262321" d="M 1031.5,1144.5 C 1033.45,1147.62 1035.61,1150.62 1038,1153.5C 1039.56,1155.77 1039.72,1158.1 1038.5,1160.5C 1035.56,1156.27 1032.89,1151.94 1030.5,1147.5C 1029.64,1145.61 1028.64,1143.78 1027.5,1142C 1029.08,1142.19 1030.42,1143.03 1031.5,1144.5 Z"/></g>
<g><path style="opacity:1" fill="#1e1e1d" d="M 546.5,1147.5 C 548.807,1149.18 549.807,1151.51 549.5,1154.5C 548.479,1162.92 546.979,1171.25 545,1179.5C 542.788,1168.79 543.288,1158.12 546.5,1147.5 Z"/></g>
<g><path style="opacity:1" fill="#db8a63" d="M 811.5,1149.5 C 812.167,1149.5 812.833,1149.5 813.5,1149.5C 822.167,1149.5 830.833,1149.5 839.5,1149.5C 842.167,1149.5 844.833,1149.5 847.5,1149.5C 849.833,1149.5 852.167,1149.5 854.5,1149.5C 859.405,1150.45 864.405,1150.78 869.5,1150.5C 872.5,1150.5 875.5,1150.5 878.5,1150.5C 880.167,1150.5 881.833,1150.5 883.5,1150.5C 886.833,1150.5 890.167,1150.5 893.5,1150.5C 894.833,1150.5 896.167,1150.5 897.5,1150.5C 901.064,1149.58 904.731,1149.24 908.5,1149.5C 909.873,1149.34 911.207,1149.51 912.5,1150C 830.776,1171 748.776,1171.83 666.5,1152.5C 666.5,1152.17 666.5,1151.83 666.5,1151.5C 668.833,1151.5 671.167,1151.5 673.5,1151.5C 677.5,1151.5 681.5,1151.5 685.5,1151.5C 688.167,1151.5 690.833,1151.5 693.5,1151.5C 699.026,1151.82 704.36,1151.49 709.5,1150.5C 709.833,1150.5 710.167,1150.5 710.5,1150.5C 714.167,1150.5 717.833,1150.5 721.5,1150.5C 723.833,1150.5 726.167,1150.5 728.5,1150.5C 735.833,1150.5 743.167,1150.5 750.5,1150.5C 752.167,1150.5 753.833,1150.5 755.5,1150.5C 758.609,1150.26 761.609,1150.6 764.5,1151.5C 766.5,1151.5 768.5,1151.5 770.5,1151.5C 772.565,1151.52 774.565,1151.85 776.5,1152.5C 778.042,1153.3 779.708,1153.63 781.5,1153.5C 785.469,1154.7 789.469,1154.37 793.5,1152.5C 796.067,1152.28 798.401,1151.61 800.5,1150.5C 804.371,1150.81 808.038,1150.48 811.5,1149.5 Z"/></g>
<g><path style="opacity:1" fill="#21201e" d="M 534.5,1211.5 C 533.599,1210.71 532.932,1209.71 532.5,1208.5C 533.331,1197.01 533.831,1185.34 534,1173.5C 534.591,1166.94 535.924,1160.6 538,1154.5C 538.667,1162.17 538.667,1169.83 538,1177.5C 536.401,1188.79 535.234,1200.12 534.5,1211.5 Z"/></g>
<g><path style="opacity:1" fill="#1e1e1d" d="M 1023.5,1156.5 C 1031.24,1159.97 1034.91,1165.97 1034.5,1174.5C 1033.32,1174.72 1032.32,1174.39 1031.5,1173.5C 1028.55,1167.93 1025.88,1162.27 1023.5,1156.5 Z"/></g>
<g><path style="opacity:1" fill="#f0ac87" d="M 928.5,1162.5 C 929.338,1162.84 929.672,1163.51 929.5,1164.5C 929.5,1165.83 929.5,1167.17 929.5,1168.5C 929.237,1193.16 927.237,1217.83 923.5,1242.5C 923.5,1243.17 923.5,1243.83 923.5,1244.5C 921.425,1254.76 919.091,1265.1 916.5,1275.5C 916.5,1276.17 916.5,1276.83 916.5,1277.5C 914.119,1285.97 911.119,1294.3 907.5,1302.5C 906.227,1304.71 905.227,1307.05 904.5,1309.5C 898.578,1318.09 891.578,1325.76 883.5,1332.5C 881.566,1333.11 879.899,1334.11 878.5,1335.5C 869.825,1339.05 861.158,1342.39 852.5,1345.5C 851.209,1345.26 850.209,1345.6 849.5,1346.5C 847.139,1346.67 844.806,1347.01 842.5,1347.5C 839.545,1348.16 836.545,1348.49 833.5,1348.5C 831.073,1348.48 828.74,1347.98 826.5,1347C 824.297,1344.63 821.963,1342.46 819.5,1340.5C 815.887,1335.68 813.22,1330.34 811.5,1324.5C 810.564,1323.03 809.23,1322.03 807.5,1321.5C 817.761,1318.51 828.095,1315.34 838.5,1312C 861.72,1299.78 879.22,1281.95 891,1258.5C 904.645,1231.21 915.479,1202.88 923.5,1173.5C 924.895,1169.71 926.562,1166.04 928.5,1162.5 Z"/></g>
<g><path style="opacity:1" fill="#f7f7f7" d="M 907.5,1176.5 C 879.268,1187.66 849.934,1194.16 819.5,1196C 785.087,1198.57 750.753,1197.91 716.5,1194C 698.377,1191.24 681.377,1185.4 665.5,1176.5C 662.997,1171.84 660.83,1167.17 659,1162.5C 672.9,1166.57 687.067,1169.74 701.5,1172C 729.243,1175.77 757.076,1178.61 785,1180.5C 827.651,1178.34 869.818,1172.67 911.5,1163.5C 912.167,1163.83 912.833,1164.17 913.5,1164.5C 911.487,1168.53 909.487,1172.53 907.5,1176.5 Z"/></g>
<g><path style="opacity:1" fill="#201f1e" d="M 945.5,1162.5 C 954.008,1169.52 957.508,1178.52 956,1189.5C 950.633,1181.23 947.133,1172.23 945.5,1162.5 Z"/></g>
<g><path style="opacity:1" fill="#efac87" d="M 655.5,1185.5 C 664.127,1212.21 674.627,1238.21 687,1263.5C 703.063,1294.43 727.897,1313.76 761.5,1321.5C 760.833,1321.5 760.5,1321.83 760.5,1322.5C 758.629,1322.86 757.129,1323.86 756,1325.5C 754.326,1329.52 752.159,1333.19 749.5,1336.5C 747.833,1338.83 745.833,1340.83 743.5,1342.5C 739.991,1345.11 735.991,1346.11 731.5,1345.5C 729.833,1345.5 728.167,1345.5 726.5,1345.5C 716.973,1343.33 707.639,1340.33 698.5,1336.5C 697.395,1335.4 696.062,1334.73 694.5,1334.5C 691.202,1332.51 687.869,1330.51 684.5,1328.5C 683.055,1326.94 681.389,1325.6 679.5,1324.5C 676.805,1321.47 674.138,1318.47 671.5,1315.5C 669.853,1312.53 667.853,1309.86 665.5,1307.5C 662.795,1301.43 660.128,1295.43 657.5,1289.5C 657.371,1287.78 657.038,1286.12 656.5,1284.5C 655.64,1281.37 654.64,1278.37 653.5,1275.5C 653.371,1273.78 653.038,1272.12 652.5,1270.5C 650.734,1260.01 648.734,1249.67 646.5,1239.5C 646.5,1237.17 646.5,1234.83 646.5,1232.5C 645.226,1223.6 644.559,1214.6 644.5,1205.5C 644.815,1201.63 644.482,1197.96 643.5,1194.5C 643.5,1189.17 643.5,1183.83 643.5,1178.5C 643.334,1173.16 643.501,1167.82 644,1162.5C 648.372,1169.91 652.205,1177.58 655.5,1185.5 Z"/></g>
<g><path style="opacity:1" fill="#21201e" d="M 929.5,1164.5 C 934.006,1172.18 936.506,1180.51 937,1189.5C 931.659,1183.49 929.159,1176.49 929.5,1168.5C 929.5,1167.17 929.5,1165.83 929.5,1164.5 Z"/></g>
<g><path style="opacity:1" fill="#20201e" d="M 1019.5,1181.5 C 1019.63,1182.24 1019.46,1182.91 1019,1183.5C 1017.73,1182.12 1016.23,1181.12 1014.5,1180.5C 1012.21,1177.7 1010.54,1174.53 1009.5,1171C 1009.63,1169.94 1010.13,1169.11 1011,1168.5C 1014.87,1172.2 1017.71,1176.53 1019.5,1181.5 Z"/></g>
<g><path style="opacity:1" fill="#23211f" d="M 556.5,1168.5 C 557.043,1168.56 557.376,1168.89 557.5,1169.5C 553.996,1187.51 550.496,1205.51 547,1223.5C 545.215,1204.26 548.382,1185.93 556.5,1168.5 Z"/></g>
<g><path style="opacity:1" fill="#959393" d="M 665.5,1176.5 C 681.377,1185.4 698.377,1191.24 716.5,1194C 750.753,1197.91 785.087,1198.57 819.5,1196C 849.934,1194.16 879.268,1187.66 907.5,1176.5C 906.071,1179.7 904.405,1182.7 902.5,1185.5C 882.926,1193.43 862.593,1198.6 841.5,1201C 799.816,1205.54 758.149,1205.54 716.5,1201C 701.273,1198.69 686.606,1194.53 672.5,1188.5C 669.662,1184.83 667.329,1180.83 665.5,1176.5 Z"/></g>
<g><path style="opacity:1" fill="#262320" d="M 564.5,1176.5 C 565.794,1178.05 566.461,1180.05 566.5,1182.5C 566.534,1187.84 565.368,1192.84 563,1197.5C 562.755,1190.46 563.255,1183.46 564.5,1176.5 Z"/></g>
<g><path style="opacity:1" fill="#dd8b64" d="M 923.5,1173.5 C 915.479,1202.88 904.645,1231.21 891,1258.5C 879.22,1281.95 861.72,1299.78 838.5,1312C 828.095,1315.34 817.761,1318.51 807.5,1321.5C 803.399,1320.21 799.399,1320.21 795.5,1321.5C 794.5,1321.5 793.5,1321.5 792.5,1321.5C 788.833,1321.5 785.167,1321.5 781.5,1321.5C 779.833,1321.5 778.167,1321.5 776.5,1321.5C 773.061,1321.75 769.728,1321.41 766.5,1320.5C 764.708,1320.37 763.042,1320.7 761.5,1321.5C 727.897,1313.76 703.063,1294.43 687,1263.5C 674.627,1238.21 664.127,1212.21 655.5,1185.5C 669.468,1210.76 683.968,1235.76 699,1260.5C 708.07,1272.9 719.57,1282.4 733.5,1289C 756.031,1297.73 779.364,1300.73 803.5,1298C 838.955,1295.54 865.455,1279.04 883,1248.5C 897.037,1223.76 910.537,1198.76 923.5,1173.5 Z"/></g>
<g><path style="opacity:1" fill="#21201e" d="M 1003.5,1181.5 C 1006.16,1184.01 1008.33,1187.01 1010,1190.5C 1012.93,1197.28 1014.6,1204.28 1015,1211.5C 1012.14,1206.44 1009.31,1201.44 1006.5,1196.5C 1004.45,1191.4 1002.12,1186.4 999.5,1181.5C 1000.7,1180.71 1002.03,1180.71 1003.5,1181.5 Z"/></g>
<g><path style="opacity:1" fill="#272421" d="M 616.5,1182.5 C 617.124,1182.92 617.457,1183.58 617.5,1184.5C 614.953,1197.16 612.453,1209.83 610,1222.5C 608.09,1208.42 610.257,1195.09 616.5,1182.5 Z"/></g>
<g><path style="opacity:1" fill="#262320" d="M 629.5,1184.5 C 630.097,1184.74 630.43,1185.24 630.5,1186C 628.04,1198.93 625.207,1211.77 622,1224.5C 621.193,1215.45 621.526,1206.45 623,1197.5C 624.666,1192.83 626.833,1188.5 629.5,1184.5 Z"/></g>
<g><path style="opacity:1" fill="#5c0203" d="M 902.5,1185.5 C 890.952,1210.27 877.618,1233.94 862.5,1256.5C 825.312,1261.73 787.979,1263.23 750.5,1261C 736.969,1259.9 723.636,1257.73 710.5,1254.5C 696.811,1233.13 684.144,1211.13 672.5,1188.5C 686.606,1194.53 701.273,1198.69 716.5,1201C 758.149,1205.54 799.816,1205.54 841.5,1201C 862.593,1198.6 882.926,1193.43 902.5,1185.5 Z"/></g>
<g><path style="opacity:1" fill="#22201f" d="M 948.5,1189.5 C 951.937,1192.7 954.104,1196.7 955,1201.5C 956.914,1207.4 957.914,1213.4 958,1219.5C 955.392,1211.68 952.392,1204.01 949,1196.5C 948.503,1194.19 948.337,1191.86 948.5,1189.5 Z"/></g>
<g><path style="opacity:1" fill="#201f1e" d="M 997.5,1196.5 C 1000.82,1200.46 1003.65,1204.8 1006,1209.5C 1009.25,1219.66 1012.41,1229.83 1015.5,1240C 1014.52,1240.59 1013.85,1240.26 1013.5,1239C 1009.59,1230.68 1005.59,1222.51 1001.5,1214.5C 998.28,1206.74 995.114,1199.08 992,1191.5C 993.73,1193.4 995.563,1195.07 997.5,1196.5 Z"/></g>
<g><path style="opacity:1" fill="#24211f" d="M 578.5,1196.5 C 576.973,1208.11 575.473,1219.78 574,1231.5C 573.5,1223.51 573.334,1215.51 573.5,1207.5C 575.393,1200.55 577.226,1193.55 579,1186.5C 579.388,1189.85 579.221,1193.18 578.5,1196.5 Z"/></g>
<g><path style="opacity:1" fill="#21201e" d="M 586.5,1202.5 C 586.714,1219.87 586.047,1237.2 584.5,1254.5C 581.927,1235.15 581.927,1215.82 584.5,1196.5C 584.201,1194.4 584.534,1192.4 585.5,1190.5C 586.491,1194.45 586.824,1198.45 586.5,1202.5 Z"/></g>
<g><path style="opacity:1" fill="#201f1e" d="M 643.5,1194.5 C 644.482,1197.96 644.815,1201.63 644.5,1205.5C 640.405,1215.84 636.905,1226.51 634,1237.5C 631.304,1221.94 634.47,1207.61 643.5,1194.5 Z"/></g>
<g><path style="opacity:1" fill="#262321" d="M 594.5,1215.5 C 593.174,1242.09 591.841,1242.09 590.5,1215.5C 589.968,1210.05 591.134,1205.05 594,1200.5C 594.499,1205.49 594.666,1210.49 594.5,1215.5 Z"/></g>
<g><path style="opacity:1" fill="#23211f" d="M 986.5,1199.5 C 989.879,1202.57 992.546,1206.23 994.5,1210.5C 993.311,1211.43 991.978,1211.76 990.5,1211.5C 989.368,1207.44 988.035,1203.44 986.5,1199.5 Z"/></g>
<g><path style="opacity:1" fill="#282421" d="M 601.5,1208.5 C 602.874,1224.82 603.708,1241.15 604,1257.5C 600.117,1243.77 598.617,1229.77 599.5,1215.5C 599.425,1211.1 599.925,1206.77 601,1202.5C 601.495,1204.47 601.662,1206.47 601.5,1208.5 Z"/></g>
<g><path style="opacity:1" fill="#282421" d="M 937.5,1200.5 C 944.535,1211.79 947.368,1224.13 946,1237.5C 942.952,1225.21 940.119,1212.88 937.5,1200.5 Z"/></g>
<g><path style="opacity:1" fill="#201f1e" d="M 988.5,1215.5 C 994.097,1225.45 996.931,1236.12 997,1247.5C 992.391,1236.62 987.558,1225.96 982.5,1215.5C 981.279,1211.76 980.113,1208.09 979,1204.5C 982.184,1208.24 985.351,1211.91 988.5,1215.5 Z"/></g>
<g><path style="opacity:1" fill="#1c1d1c" d="M 569.5,1210.5 C 569.666,1220.51 569.5,1230.51 569,1240.5C 566.925,1231.97 566.091,1223.3 566.5,1214.5C 566.201,1212.4 566.534,1210.4 567.5,1208.5C 568.182,1209.24 568.849,1209.91 569.5,1210.5 Z"/></g>
<g><path style="opacity:1" fill="#22201f" d="M 559.5,1213.5 C 556.883,1226.39 555.216,1239.39 554.5,1252.5C 550.295,1239.41 550.795,1226.41 556,1213.5C 558.123,1210.03 559.29,1210.03 559.5,1213.5 Z"/></g>
<g><path style="opacity:1" fill="#87614c" d="M 578.5,1196.5 C 580.5,1196.5 582.5,1196.5 584.5,1196.5C 581.927,1215.82 581.927,1235.15 584.5,1254.5C 586.047,1237.2 586.714,1219.87 586.5,1202.5C 587.485,1206.63 587.818,1210.97 587.5,1215.5C 588.5,1215.5 589.5,1215.5 590.5,1215.5C 591.841,1242.09 593.174,1242.09 594.5,1215.5C 596.167,1215.5 597.833,1215.5 599.5,1215.5C 598.617,1229.77 600.117,1243.77 604,1257.5C 603.708,1241.15 602.874,1224.82 601.5,1208.5C 603.715,1217.61 605.715,1226.94 607.5,1236.5C 606.188,1238.74 605.522,1241.41 605.5,1244.5C 605.128,1254.81 606.128,1255.15 608.5,1245.5C 614.953,1275.65 623.119,1305.31 633,1334.5C 633.495,1336.47 633.662,1338.47 633.5,1340.5C 631.163,1338.33 628.663,1336.33 626,1334.5C 625.326,1326.79 624.326,1319.12 623,1311.5C 622.22,1318.66 622.553,1325.66 624,1332.5C 618.333,1327.5 612.667,1322.5 607,1317.5C 604.654,1305.09 601.988,1292.76 599,1280.5C 598.333,1286.83 598.333,1293.17 599,1299.5C 600.35,1304.21 601.683,1308.88 603,1313.5C 598.318,1308.99 593.818,1304.32 589.5,1299.5C 590.311,1298.78 590.978,1297.95 591.5,1297C 589.399,1289.36 586.899,1281.86 584,1274.5C 583.333,1273.83 582.667,1273.17 582,1272.5C 581.833,1274 581.667,1275.5 581.5,1277C 582.324,1283.46 583.824,1289.62 586,1295.5C 579.428,1288.02 573.095,1280.35 567,1272.5C 564.966,1261.63 563.799,1250.63 563.5,1239.5C 562.178,1239.33 561.011,1239.66 560,1240.5C 559.495,1247.54 559.495,1254.54 560,1261.5C 557.642,1258.78 555.809,1255.78 554.5,1252.5C 555.216,1239.39 556.883,1226.39 559.5,1213.5C 561.357,1215.84 563.69,1216.18 566.5,1214.5C 566.091,1223.3 566.925,1231.97 569,1240.5C 569.5,1230.51 569.666,1220.51 569.5,1210.5C 570.163,1212.04 570.83,1213.71 571.5,1215.5C 572.168,1212.69 572.834,1210.03 573.5,1207.5C 573.334,1215.51 573.5,1223.51 574,1231.5C 575.473,1219.78 576.973,1208.11 578.5,1196.5 Z"/></g>
<g><path style="opacity:1" fill="#89624d" d="M 1039.5,1178.5 C 1040.19,1186.49 1040.36,1194.49 1040,1202.5C 1039.64,1204.61 1038.97,1206.61 1038,1208.5C 1037.88,1201.69 1036.88,1195.02 1035,1188.5C 1034.59,1188.04 1034.09,1187.71 1033.5,1187.5C 1033.17,1189.5 1032.83,1191.5 1032.5,1193.5C 1033.75,1201.81 1034.25,1210.14 1034,1218.5C 1032.27,1222.95 1030.27,1227.29 1028,1231.5C 1028.57,1222.91 1025.74,1215.74 1019.5,1210C 1018.67,1209.31 1018,1209.48 1017.5,1210.5C 1023.06,1218.35 1025.9,1227.02 1026,1236.5C 1024.41,1238.67 1023.08,1241 1022,1243.5C 1022.11,1235.39 1020.44,1227.72 1017,1220.5C 1017.62,1230.47 1017.95,1240.47 1018,1250.5C 1015.92,1254.34 1013.58,1258 1011,1261.5C 1011.23,1252.74 1008.57,1245.08 1003,1238.5C 1002.67,1242.53 1003,1246.53 1004,1250.5C 1005.78,1255.81 1007.11,1261.14 1008,1266.5C 1005.58,1270.34 1002.91,1274.01 1000,1277.5C 1000.4,1272.37 1000.9,1267.2 1001.5,1262C 1001.83,1257.5 1000.83,1253.33 998.5,1249.5C 997.668,1260.15 997.168,1270.82 997,1281.5C 992.052,1287.76 986.885,1293.76 981.5,1299.5C 981.473,1290.02 981.306,1280.36 981,1270.5C 979.92,1262.59 977.253,1255.26 973,1248.5C 974.644,1257.09 976.311,1265.76 978,1274.5C 978.194,1283.58 978.694,1292.58 979.5,1301.5C 973.369,1308.13 967.036,1314.63 960.5,1321C 952.293,1328.05 943.96,1334.88 935.5,1341.5C 938.761,1330.88 941.928,1320.21 945,1309.5C 945.417,1308.24 946.25,1307.58 947.5,1307.5C 947.02,1316.35 945.854,1325.02 944,1333.5C 951.823,1317.42 954.823,1300.42 953,1282.5C 952.617,1281.94 952.117,1281.61 951.5,1281.5C 952.845,1278.3 953.845,1274.96 954.5,1271.5C 956.059,1274.87 956.892,1278.53 957,1282.5C 957.333,1293.5 957.667,1304.5 958,1315.5C 962.539,1300.9 962.539,1286.23 958,1271.5C 957.243,1269.69 956.41,1268.02 955.5,1266.5C 956.095,1262.08 957.095,1257.75 958.5,1253.5C 961.989,1267.71 965.489,1282.05 969,1296.5C 974.103,1277.85 970.936,1260.85 959.5,1245.5C 960.024,1243.69 960.691,1242.03 961.5,1240.5C 964.144,1243.77 966.311,1247.44 968,1251.5C 967.307,1244.92 965.141,1238.92 961.5,1233.5C 962.871,1227.57 963.871,1221.57 964.5,1215.5C 970.5,1215.5 976.5,1215.5 982.5,1215.5C 987.558,1225.96 992.391,1236.62 997,1247.5C 996.931,1236.12 994.097,1225.45 988.5,1215.5C 993.032,1215.82 997.366,1215.48 1001.5,1214.5C 1005.59,1222.51 1009.59,1230.68 1013.5,1239C 1013.85,1240.26 1014.52,1240.59 1015.5,1240C 1012.41,1229.83 1009.25,1219.66 1006,1209.5C 1003.65,1204.8 1000.82,1200.46 997.5,1196.5C 1000.5,1196.5 1003.5,1196.5 1006.5,1196.5C 1009.31,1201.44 1012.14,1206.44 1015,1211.5C 1014.6,1204.28 1012.93,1197.28 1010,1190.5C 1008.33,1187.01 1006.16,1184.01 1003.5,1181.5C 1007.37,1181.81 1011.04,1181.48 1014.5,1180.5C 1016.23,1181.12 1017.73,1182.12 1019,1183.5C 1019.46,1182.91 1019.63,1182.24 1019.5,1181.5C 1025.83,1181.5 1032.17,1181.5 1038.5,1181.5C 1038.26,1180.21 1038.6,1179.21 1039.5,1178.5 Z"/></g>
<g><path style="opacity:1" fill="#1e1e1d" d="M 1020.5,1187.5 C 1028.44,1195.16 1031.27,1204.49 1029,1215.5C 1025.83,1207.33 1022.67,1199.17 1019.5,1191C 1019.99,1189.86 1020.32,1188.69 1020.5,1187.5 Z"/></g>
<g><path style="opacity:1" fill="#24211f" d="M 964.5,1220.5 C 971.243,1226.66 974.743,1234.32 975,1243.5C 971.204,1235.94 967.704,1228.27 964.5,1220.5 Z"/></g>
<g><path style="opacity:1" fill="#1e1e1d" d="M 973.5,1220.5 C 973.56,1219.96 973.893,1219.62 974.5,1219.5C 987.366,1235.64 992.199,1253.97 989,1274.5C 985.962,1259.68 982.295,1245.01 978,1230.5C 976.768,1226.94 975.268,1223.61 973.5,1220.5 Z"/></g>
<g><path style="opacity:1" fill="#1f1f1d" d="M 931.5,1226.5 C 945.603,1240.31 950.77,1256.98 947,1276.5C 945.379,1260.06 940.379,1244.73 932,1230.5C 931.51,1229.21 931.343,1227.87 931.5,1226.5 Z"/></g>
<g><path style="opacity:1" fill="#1f1e1d" d="M 616.5,1229.5 C 618.049,1243.32 618.882,1257.32 619,1271.5C 614.427,1257.67 613.594,1243.67 616.5,1229.5 Z"/></g>
<g><path style="opacity:1" fill="#20201e" d="M 646.5,1232.5 C 646.5,1234.83 646.5,1237.17 646.5,1239.5C 641.772,1251.31 637.272,1263.31 633,1275.5C 632.905,1260.55 636.571,1246.55 644,1233.5C 644.671,1232.75 645.504,1232.41 646.5,1232.5 Z"/></g>
<g><path style="opacity:1" fill="#252220" d="M 961.5,1233.5 C 965.141,1238.92 967.307,1244.92 968,1251.5C 966.311,1247.44 964.144,1243.77 961.5,1240.5C 961.5,1238.17 961.5,1235.83 961.5,1233.5 Z"/></g>
<g><path style="opacity:1" fill="#1b1c1b" d="M 576.5,1237.5 C 577.66,1250.33 577.827,1263.33 577,1276.5C 573.562,1267.09 572.229,1257.43 573,1247.5C 573.895,1244.05 575.062,1240.72 576.5,1237.5 Z"/></g>
<g><path style="opacity:1" fill="#1f1f1d" d="M 593.5,1241.5 C 594.5,1241.5 595.5,1241.5 596.5,1241.5C 597.607,1251.84 598.44,1262.17 599,1272.5C 594.794,1262.6 592.961,1252.27 593.5,1241.5 Z"/></g>
<g><path style="opacity:1" fill="#201f1e" d="M 923.5,1244.5 C 923.5,1243.83 923.5,1243.17 923.5,1242.5C 924.222,1242.08 924.722,1241.42 925,1240.5C 934.578,1258.81 937.245,1278.15 933,1298.5C 931.453,1291.88 930.119,1285.22 929,1278.5C 928.627,1266.87 926.794,1255.53 923.5,1244.5 Z"/></g>
<g><path style="opacity:1" fill="#21201e" d="M 628.5,1245.5 C 629.16,1246.96 629.493,1248.63 629.5,1250.5C 628.409,1261.51 627.243,1272.51 626,1283.5C 621.86,1270.39 622.694,1257.73 628.5,1245.5 Z"/></g>
<g><path style="opacity:1" fill="#1e1e1d" d="M 959.5,1245.5 C 970.936,1260.85 974.103,1277.85 969,1296.5C 965.489,1282.05 961.989,1267.71 958.5,1253.5C 959.092,1250.87 959.425,1248.21 959.5,1245.5 Z"/></g>
<g><path style="opacity:1" fill="#332c27" d="M 607.5,1236.5 C 607.508,1239.54 607.841,1242.54 608.5,1245.5C 606.128,1255.15 605.128,1254.81 605.5,1244.5C 605.522,1241.41 606.188,1238.74 607.5,1236.5 Z"/></g>
<g><path style="opacity:1" fill="#22201f" d="M 981.5,1299.5 C 981.167,1300.5 980.5,1301.17 979.5,1301.5C 978.694,1292.58 978.194,1283.58 978,1274.5C 976.311,1265.76 974.644,1257.09 973,1248.5C 977.253,1255.26 979.92,1262.59 981,1270.5C 981.306,1280.36 981.473,1290.02 981.5,1299.5 Z"/></g>
<g><path style="opacity:1" fill="#22201f" d="M 587.5,1253.5 C 590.8,1260.25 592.3,1267.58 592,1275.5C 587.453,1268.72 585.953,1261.38 587.5,1253.5 Z"/></g>
<g><path style="opacity:1" fill="#959393" d="M 710.5,1254.5 C 723.636,1257.73 736.969,1259.9 750.5,1261C 787.979,1263.23 825.312,1261.73 862.5,1256.5C 860.167,1259.5 857.5,1262.17 854.5,1264.5C 818.946,1269.18 783.279,1270.34 747.5,1268C 737.732,1267.02 728.065,1265.52 718.5,1263.5C 715.119,1261.12 712.453,1258.12 710.5,1254.5 Z"/></g>
<g><path style="opacity:1" fill="#1f1e1d" d="M 936.5,1261.5 C 938.847,1264.68 940.347,1268.35 941,1272.5C 943.461,1288.02 942.628,1303.36 938.5,1318.5C 936.897,1318.69 935.563,1318.19 934.5,1317C 937.041,1308.22 938.374,1299.22 938.5,1290C 937.796,1280.5 937.129,1271 936.5,1261.5 Z"/></g>
<g><path style="opacity:1" fill="#f5f5f5" d="M 718.5,1263.5 C 728.065,1265.52 737.732,1267.02 747.5,1268C 783.279,1270.34 818.946,1269.18 854.5,1264.5C 844.852,1273.5 833.519,1279.66 820.5,1283C 795.648,1288.22 770.982,1287.55 746.5,1281C 735.683,1277.31 726.35,1271.48 718.5,1263.5 Z"/></g>
<g><path style="opacity:1" fill="#1c1d1c" d="M 643.5,1266.5 C 644.552,1266.35 645.552,1266.52 646.5,1267C 642.281,1283.38 638.448,1299.88 635,1316.5C 630.531,1298.67 633.364,1282 643.5,1266.5 Z"/></g>
<g><path style="opacity:1" fill="#23211f" d="M 955.5,1266.5 C 956.41,1268.02 957.243,1269.69 958,1271.5C 962.539,1286.23 962.539,1300.9 958,1315.5C 957.667,1304.5 957.333,1293.5 957,1282.5C 956.892,1278.53 956.059,1274.87 954.5,1271.5C 954.366,1269.71 954.699,1268.04 955.5,1266.5 Z"/></g>
<g><path style="opacity:1" fill="#22211f" d="M 652.5,1270.5 C 653.038,1272.12 653.371,1273.78 653.5,1275.5C 652.093,1277.31 650.926,1279.31 650,1281.5C 648.949,1277.3 649.783,1273.64 652.5,1270.5 Z"/></g>
<g><path style="opacity:1" fill="#252320" d="M 916.5,1277.5 C 916.5,1276.83 916.5,1276.17 916.5,1275.5C 917.688,1274.32 918.855,1274.32 920,1275.5C 921.239,1289.15 921.573,1302.82 921,1316.5C 920.197,1319.24 919.197,1321.91 918,1324.5C 916.989,1325.34 915.822,1325.67 914.5,1325.5C 916.3,1309.57 916.967,1293.57 916.5,1277.5 Z"/></g>
<g><path style="opacity:1" fill="#201f1e" d="M 608.5,1273.5 C 610.045,1274.23 610.878,1275.56 611,1277.5C 613.229,1289.54 615.229,1301.54 617,1313.5C 609.99,1301.12 607.157,1287.79 608.5,1273.5 Z"/></g>
<g><path style="opacity:1" fill="#21201e" d="M 951.5,1281.5 C 952.117,1281.61 952.617,1281.94 953,1282.5C 954.823,1300.42 951.823,1317.42 944,1333.5C 945.854,1325.02 947.02,1316.35 947.5,1307.5C 947.335,1304.15 947.502,1300.82 948,1297.5C 949.489,1292.21 950.656,1286.88 951.5,1281.5 Z"/></g>
<g><path style="opacity:1" fill="#21201e" d="M 656.5,1284.5 C 657.038,1286.12 657.371,1287.78 657.5,1289.5C 655.099,1298.04 652.099,1306.37 648.5,1314.5C 647.211,1308.38 647.711,1302.38 650,1296.5C 650.925,1291.64 653.092,1287.64 656.5,1284.5 Z"/></g>
<g><path style="opacity:1" fill="#22201f" d="M 907.5,1302.5 C 908.117,1302.61 908.617,1302.94 909,1303.5C 909.667,1310.17 909.667,1316.83 909,1323.5C 908,1324.83 907,1324.83 906,1323.5C 905.335,1318.84 904.835,1314.18 904.5,1309.5C 905.227,1307.05 906.227,1304.71 907.5,1302.5 Z"/></g>
<g><path style="opacity:1" fill="#21201e" d="M 928.5,1348.5 C 926.557,1351.47 923.891,1353.47 920.5,1354.5C 924.308,1338.73 927.141,1322.73 929,1306.5C 932.436,1320.56 932.269,1334.56 928.5,1348.5 Z"/></g>
<g><path style="opacity:1" fill="#262320" d="M 665.5,1307.5 C 667.853,1309.86 669.853,1312.53 671.5,1315.5C 671.667,1330.5 671.5,1345.5 671,1360.5C 666.021,1343.19 664.187,1325.53 665.5,1307.5 Z"/></g>
<g><path style="opacity:1" fill="#21201e" d="M 665.5,1365.5 C 661.779,1363.65 658.446,1361.31 655.5,1358.5C 650.586,1344.46 650.253,1330.29 654.5,1316C 655.371,1314.23 656.704,1313.56 658.5,1314C 653.995,1332.14 656.328,1349.31 665.5,1365.5 Z"/></g>
<g><path style="opacity:1" fill="#1f1e1d" d="M 645.5,1350.5 C 642.109,1349.47 639.443,1347.47 637.5,1344.5C 636.482,1335 637.982,1326 642,1317.5C 641.887,1328.67 643.054,1339.67 645.5,1350.5 Z"/></g>
<g><path style="opacity:1" fill="#1b1c1c" d="M 766.5,1320.5 C 766.807,1326.09 766.473,1331.59 765.5,1337C 764.216,1337.68 763.049,1337.52 762,1336.5C 761.006,1331.88 760.506,1327.22 760.5,1322.5C 760.5,1321.83 760.833,1321.5 761.5,1321.5C 763.042,1320.7 764.708,1320.37 766.5,1320.5 Z"/></g>
<g><path style="opacity:1" fill="#8e6650" d="M 766.5,1320.5 C 769.728,1321.41 773.061,1321.75 776.5,1321.5C 776.5,1323.17 776.5,1324.83 776.5,1326.5C 780.5,1327.17 782.167,1325.5 781.5,1321.5C 785.167,1321.5 788.833,1321.5 792.5,1321.5C 792.333,1341.84 792.5,1362.17 793,1382.5C 795.075,1368.79 797.408,1355.12 800,1341.5C 800.5,1334.84 800.666,1328.17 800.5,1321.5C 798.833,1321.5 797.167,1321.5 795.5,1321.5C 799.399,1320.21 803.399,1320.21 807.5,1321.5C 809.23,1322.03 810.564,1323.03 811.5,1324.5C 810.853,1325.27 810.52,1326.27 810.5,1327.5C 815.482,1352.43 815.815,1377.43 811.5,1402.5C 808.904,1403.27 806.237,1403.6 803.5,1403.5C 804.994,1395.87 806.494,1388.21 808,1380.5C 808.499,1376.51 808.666,1372.51 808.5,1368.5C 807.178,1368.33 806.011,1368.66 805,1369.5C 803.405,1376.29 801.405,1382.95 799,1389.5C 797.911,1394.56 798.744,1399.22 801.5,1403.5C 793.195,1404.33 784.862,1404.67 776.5,1404.5C 768.252,1388.18 763.419,1370.85 762,1352.5C 756.668,1370.78 759.168,1387.78 769.5,1403.5C 765.958,1403.81 762.625,1403.48 759.5,1402.5C 756.843,1392.21 754.343,1381.87 752,1371.5C 751.031,1359.69 750.197,1348.02 749.5,1336.5C 752.159,1333.19 754.326,1329.52 756,1325.5C 757.129,1323.86 758.629,1322.86 760.5,1322.5C 760.506,1327.22 761.006,1331.88 762,1336.5C 763.049,1337.52 764.216,1337.68 765.5,1337C 766.473,1331.59 766.807,1326.09 766.5,1320.5 Z"/></g>
<g><path style="opacity:1" fill="#262320" d="M 776.5,1321.5 C 778.167,1321.5 779.833,1321.5 781.5,1321.5C 782.167,1325.5 780.5,1327.17 776.5,1326.5C 776.5,1324.83 776.5,1323.17 776.5,1321.5 Z"/></g>
<g><path style="opacity:1" fill="#21201f" d="M 792.5,1321.5 C 793.5,1321.5 794.5,1321.5 795.5,1321.5C 797.167,1321.5 798.833,1321.5 800.5,1321.5C 800.666,1328.17 800.5,1334.84 800,1341.5C 797.408,1355.12 795.075,1368.79 793,1382.5C 792.5,1362.17 792.333,1341.84 792.5,1321.5 Z"/></g>
<g><path style="opacity:1" fill="#1c1d1c" d="M 811.5,1324.5 C 813.22,1330.34 815.887,1335.68 819.5,1340.5C 823.454,1361.68 821.787,1382.34 814.5,1402.5C 813.5,1402.5 812.5,1402.5 811.5,1402.5C 815.815,1377.43 815.482,1352.43 810.5,1327.5C 810.52,1326.27 810.853,1325.27 811.5,1324.5 Z"/></g>
<g><path style="opacity:1" fill="#1e1e1d" d="M 679.5,1324.5 C 681.389,1325.6 683.055,1326.94 684.5,1328.5C 685.566,1345.53 690.733,1361.2 700,1375.5C 700.818,1378.23 700.652,1380.89 699.5,1383.5C 695.813,1380.65 692.647,1377.31 690,1373.5C 681.373,1358.29 677.873,1341.96 679.5,1324.5 Z"/></g>
<g><path style="opacity:1" fill="#1e1e1d" d="M 883.5,1332.5 C 883.253,1336.41 881.753,1339.74 879,1342.5C 878.503,1340.19 878.337,1337.86 878.5,1335.5C 879.899,1334.11 881.566,1333.11 883.5,1332.5 Z"/></g>
<g><path style="opacity:1" fill="#22211f" d="M 894.5,1327.5 C 895.843,1340.94 891.343,1352.27 881,1361.5C 884.663,1352.49 888.663,1343.49 893,1334.5C 893.662,1332.19 894.162,1329.85 894.5,1327.5 Z"/></g>
<g><path style="opacity:1" fill="#262321" d="M 694.5,1334.5 C 696.062,1334.73 697.395,1335.4 698.5,1336.5C 698.5,1337.5 698.5,1338.5 698.5,1339.5C 696.027,1339.26 694.36,1337.93 693.5,1335.5C 693.624,1334.89 693.957,1334.56 694.5,1334.5 Z"/></g>
<g><path style="opacity:1" fill="#1f1f1e" d="M 749.5,1336.5 C 750.197,1348.02 751.031,1359.69 752,1371.5C 754.343,1381.87 756.843,1392.21 759.5,1402.5C 758.5,1402.5 757.5,1402.5 756.5,1402.5C 746.596,1383.76 742.263,1363.76 743.5,1342.5C 745.833,1340.83 747.833,1338.83 749.5,1336.5 Z"/></g>
<g><path style="opacity:1" fill="#8d6550" d="M 819.5,1340.5 C 821.963,1342.46 824.297,1344.63 826.5,1347C 828.74,1347.98 831.073,1348.48 833.5,1348.5C 834.323,1366.21 832.323,1383.55 827.5,1400.5C 823.124,1400.91 818.79,1401.58 814.5,1402.5C 821.787,1382.34 823.454,1361.68 819.5,1340.5 Z"/></g>
<g><path style="opacity:1" fill="#1d1d1c" d="M 857.5,1391.5 C 856.167,1392.17 854.833,1392.83 853.5,1393.5C 853.461,1392.42 853.127,1391.42 852.5,1390.5C 859.926,1375.22 864.926,1359.22 867.5,1342.5C 868.5,1342.5 869.5,1342.5 870.5,1342.5C 872.235,1360.57 867.902,1376.9 857.5,1391.5 Z"/></g>
<g><path style="opacity:1" fill="#1e1e1d" d="M 776.5,1341.5 C 780.221,1350.37 782.721,1359.71 784,1369.5C 784.84,1378.87 786.007,1388.21 787.5,1397.5C 787.523,1399.07 787.023,1400.4 786,1401.5C 778.248,1387.92 774.748,1373.25 775.5,1357.5C 775.612,1352.14 775.945,1346.81 776.5,1341.5 Z"/></g>
<g><path style="opacity:1" fill="#1e1e1d" d="M 716.5,1392.5 C 713.843,1392.07 711.509,1391.07 709.5,1389.5C 704.419,1376.43 702.752,1362.93 704.5,1349C 704.769,1347.39 705.603,1346.23 707,1345.5C 710.589,1361.02 713.756,1376.69 716.5,1392.5 Z"/></g>
<g><path style="opacity:1" fill="#21201f" d="M 726.5,1345.5 C 728.167,1345.5 729.833,1345.5 731.5,1345.5C 731.817,1348.57 731.484,1351.57 730.5,1354.5C 729.264,1355.25 727.93,1355.58 726.5,1355.5C 725.556,1352 725.556,1348.67 726.5,1345.5 Z"/></g>
<g><path style="opacity:1" fill="#1f1f1d" d="M 852.5,1345.5 C 854.785,1361.87 852.118,1377.53 844.5,1392.5C 843.311,1393.43 841.978,1393.76 840.5,1393.5C 845.445,1378.22 848.445,1362.56 849.5,1346.5C 850.209,1345.6 851.209,1345.26 852.5,1345.5 Z"/></g>
<g><path style="opacity:1" fill="#1c1c1c" d="M 842.5,1347.5 C 843.272,1365.2 840.272,1382.2 833.5,1398.5C 831.698,1399.46 829.698,1400.12 827.5,1400.5C 832.323,1383.55 834.323,1366.21 833.5,1348.5C 836.545,1348.49 839.545,1348.16 842.5,1347.5 Z"/></g>
<g><path style="opacity:1" fill="#1e1e1d" d="M 776.5,1404.5 C 773.941,1404.8 771.607,1404.47 769.5,1403.5C 759.168,1387.78 756.668,1370.78 762,1352.5C 763.419,1370.85 768.252,1388.18 776.5,1404.5 Z"/></g>
<g><path style="opacity:1" fill="#1f1e1d" d="M 727.5,1396.5 C 724.904,1395.95 722.571,1394.95 720.5,1393.5C 717.106,1382.79 715.94,1371.79 717,1360.5C 717.098,1358.38 717.931,1356.71 719.5,1355.5C 720.086,1355.71 720.586,1356.04 721,1356.5C 721.047,1370.22 723.214,1383.56 727.5,1396.5 Z"/></g>
<g><path style="opacity:1" fill="#1f1e1d" d="M 749.5,1401.5 C 746.135,1400.96 742.802,1400.29 739.5,1399.5C 733.546,1389.68 731.046,1379.01 732,1367.5C 733.333,1368.17 734.333,1369.17 735,1370.5C 736.622,1382.41 741.456,1392.74 749.5,1401.5 Z"/></g>
<g><path style="opacity:1" fill="#201f1e" d="M 803.5,1403.5 C 802.833,1403.5 802.167,1403.5 801.5,1403.5C 798.744,1399.22 797.911,1394.56 799,1389.5C 801.405,1382.95 803.405,1376.29 805,1369.5C 806.011,1368.66 807.178,1368.33 808.5,1368.5C 808.666,1372.51 808.499,1376.51 808,1380.5C 806.494,1388.21 804.994,1395.87 803.5,1403.5 Z"/></g>
<g><path style="opacity:1" fill="#efab87" d="M 658.5,1384.5 C 659.873,1384.34 661.207,1384.51 662.5,1385C 710.406,1416.12 762.74,1427.45 819.5,1419C 852.491,1414.28 882.824,1402.78 910.5,1384.5C 916.086,1386.8 921.753,1388.8 927.5,1390.5C 929.366,1414.27 920.033,1432.1 899.5,1444C 875.78,1455.69 850.78,1463.03 824.5,1466C 796.152,1469.14 767.818,1469.14 739.5,1466C 715.087,1462.75 692.42,1454.75 671.5,1442C 658.145,1432.98 648.978,1420.81 644,1405.5C 642.71,1400.89 642.376,1396.22 643,1391.5C 648.377,1389.44 653.544,1387.11 658.5,1384.5 Z"/></g>
<g><path style="opacity:1" fill="#065593" d="M 1124.5,1435.5 C 1018.33,1493.08 904.661,1521.74 783.5,1521.5C 675.678,1521.57 573.011,1498.74 475.5,1453C 464.788,1447.98 454.454,1442.48 444.5,1436.5C 450.214,1432.31 456.548,1429.14 463.5,1427C 518.238,1414.49 572.905,1401.65 627.5,1388.5C 626.921,1409.94 634.254,1428.11 649.5,1443C 669.25,1459.04 691.583,1470.04 716.5,1476C 748.558,1482.43 780.891,1484.1 813.5,1481C 845.067,1479.25 875.067,1471.58 903.5,1458C 932.418,1444.34 946.085,1421.5 944.5,1389.5C 999.843,1402.22 1055.18,1415.06 1110.5,1428C 1115.39,1430.27 1120.05,1432.77 1124.5,1435.5 Z"/></g>
</svg>
