<?xml version="1.0" encoding="UTF-8"?>
<!DOCTYPE svg PUBLIC "-//W3C//DTD SVG 1.1//EN" "http://www.w3.org/Graphics/SVG/1.1/DTD/svg11.dtd">
<svg xmlns="http://www.w3.org/2000/svg" version="1.1" width="1592px" height="1592px" style="shape-rendering:geometricPrecision; text-rendering:geometricPrecision; image-rendering:optimizeQuality; fill-rule:evenodd; clip-rule:evenodd" xmlns:xlink="http://www.w3.org/1999/xlink">
<g><path style="opacity:0.99" fill="#020000" d="M 1124.5,1435.5 C 1119.17,1432.17 1113.51,1429.34 1107.5,1427C 1061.07,1417.14 1014.73,1406.81 968.5,1396C 966.833,1395.33 965.167,1395.33 963.5,1396C 920.479,1448.89 868.813,1490.72 808.5,1521.5C 793.833,1521.5 779.167,1521.5 764.5,1521.5C 704.261,1490.35 652.261,1448.68 608.5,1396.5C 605.894,1395.35 603.227,1395.18 600.5,1396C 554.965,1407.09 509.299,1417.42 463.5,1427C 456.548,1429.14 450.214,1432.31 444.5,1436.5C 437.578,1434.04 431.244,1430.54 425.5,1426C 441.324,1412.61 459.658,1405.28 480.5,1404C 522.848,1394.23 565.181,1384.4 607.5,1374.5C 612.986,1376.84 618.653,1378 624.5,1378C 630.167,1375.67 635.833,1373.33 641.5,1371C 598.402,1340.57 562.902,1303.07 535,1258.5C 520.542,1233.46 510.208,1206.8 504,1178.5C 500.344,1161.56 497.01,1144.56 494,1127.5C 493.091,1120.99 489.757,1116.32 484,1113.5C 477.808,1102.72 474.975,1091.06 475.5,1078.5C 468.198,1076.68 461.532,1073.52 455.5,1069C 408.866,1021.42 392.366,964.921 406,899.5C 414.678,875.745 431.511,865.745 456.5,869.5C 443.035,780.993 436.869,691.993 438,602.5C 443.056,571.985 454.723,544.319 473,519.5C 479.031,513.134 485.364,507.134 492,501.5C 502.227,480.189 516.393,462.022 534.5,447C 557.837,432.831 582.17,420.498 607.5,410C 640.383,395.559 673.716,382.226 707.5,370C 731.925,363.707 756.758,360.541 782,360.5C 809.266,360.19 836.099,363.357 862.5,370C 878.81,375.214 894.81,381.214 910.5,388C 932.823,399.827 954.823,412.16 976.5,425C 1001.01,439.915 1027.51,448.415 1056,450.5C 1057.51,459.372 1056.01,467.705 1051.5,475.5C 1061.34,480.582 1070.67,486.416 1079.5,493C 1093.24,504.641 1100.4,519.474 1101,537.5C 1124.52,559.02 1135.35,585.853 1133.5,618C 1132.86,634.829 1132.36,651.662 1132,668.5C 1127.05,735.176 1122.22,801.843 1117.5,868.5C 1142.16,866.643 1157.99,877.643 1165,901.5C 1177.59,966.377 1160.76,1022.21 1114.5,1069C 1108.94,1072.95 1102.94,1076.11 1096.5,1078.5C 1095.18,1086.86 1093.68,1095.19 1092,1103.5C 1089.84,1109.99 1085.84,1114.99 1080,1118.5C 1078.8,1121.09 1077.8,1123.76 1077,1126.5C 1072.73,1153.89 1066.73,1180.89 1059,1207.5C 1040.49,1259.01 1010.66,1302.85 969.5,1339C 956.744,1350.43 943.411,1361.09 929.5,1371C 936.062,1373.78 942.729,1376.28 949.5,1378.5C 955.351,1376.37 961.351,1375.53 967.5,1376C 1015.71,1387.31 1064.04,1397.97 1112.5,1408C 1123.86,1411.85 1134.19,1417.51 1143.5,1425C 1137.43,1429.03 1131.1,1432.53 1124.5,1435.5 Z"/></g>
<g><path style="opacity:1" fill="#201e1e" d="M 973.5,445.5 C 973.062,445.435 972.728,445.601 972.5,446C 981.009,455.701 991.009,463.201 1002.5,468.5C 984.327,463.753 966.994,456.753 950.5,447.5C 948.525,448.275 947.691,449.609 948,451.5C 977.071,468.116 1007.57,481.616 1039.5,492C 1048.49,496.495 1057.16,501.495 1065.5,507C 1071.49,512.654 1076.32,519.154 1080,526.5C 1080.81,528.902 1080.65,531.235 1079.5,533.5C 1068.48,527.66 1058.15,520.827 1048.5,513C 1047.17,512.333 1045.83,512.333 1044.5,513C 1043.55,513.718 1043.38,514.551 1044,515.5C 1057.55,529.524 1072.38,542.024 1088.5,553C 1108.67,571.507 1117.01,594.507 1113.5,622C 1113.41,652.243 1111.91,682.41 1109,712.5C 1107.67,709.167 1106.33,705.833 1105,702.5C 1101.5,707.66 1099.17,713.326 1098,719.5C 1096.44,729.85 1094.77,740.184 1093,750.5C 1091.37,757.108 1088.2,762.775 1083.5,767.5C 1077.64,751.028 1074.14,734.028 1073,716.5C 1072.17,699.123 1070.84,681.79 1069,664.5C 1067.29,653.7 1063.79,643.533 1058.5,634C 1065.14,636.963 1070.31,641.797 1074,648.5C 1072.79,625.594 1060.96,611.761 1038.5,607C 1055.06,590.175 1058.89,570.675 1050,548.5C 1047.11,542.938 1043.44,537.938 1039,533.5C 1037.15,528.446 1034.31,524.112 1030.5,520.5C 1029.12,521 1028.45,522 1028.5,523.5C 1039.78,555.618 1029.44,576.284 997.5,585.5C 1004.28,572.393 1004.11,559.393 997,546.5C 993.915,541.328 990.581,536.328 987,531.5C 972.284,516.44 956.117,503.274 938.5,492C 934.176,491.955 933.51,493.621 936.5,497C 951.447,504.614 962.28,516.114 969,531.5C 975.595,553.374 970.262,571.707 953,586.5C 966.446,559.394 961.779,535.727 939,515.5C 946.688,549.788 933.188,569.788 898.5,575.5C 900.055,569.776 901.055,563.942 901.5,558C 901.515,552.562 900.349,547.396 898,542.5C 896.526,553.71 890.693,561.21 880.5,565C 889.946,541.006 883.613,522.339 861.5,509C 844.137,498.316 826.137,488.649 807.5,480C 799.799,476.294 793.299,471.127 788,464.5C 785.933,460.361 785.266,456.027 786,451.5C 787.777,448.28 789.277,444.947 790.5,441.5C 790.547,440 789.881,439 788.5,438.5C 776.402,447.896 774.236,459.229 782,472.5C 786.877,477.046 792.044,481.213 797.5,485C 813.36,493.539 828.693,502.873 843.5,513C 860.075,528.859 864.575,547.692 857,569.5C 855.333,572.833 853.667,576.167 852,579.5C 852.982,553.634 841.482,535.801 817.5,526C 799.904,520.183 782.237,514.516 764.5,509C 755.415,505.709 747.581,500.542 741,493.5C 739.725,491.283 738.725,488.949 738,486.5C 737.559,479.804 737.559,473.137 738,466.5C 733.839,471.486 730.173,476.819 727,482.5C 723.695,496.598 727.862,507.765 739.5,516C 752.5,524.333 765.5,532.667 778.5,541C 802.689,564.321 799.355,582.488 768.5,595.5C 772.603,574.809 766.27,557.642 749.5,544C 743.154,539.826 736.488,536.159 729.5,533C 714.244,527.137 698.91,521.47 683.5,516C 676.556,512.947 670.389,508.781 665,503.5C 661.203,497.848 660.536,491.848 663,485.5C 665.107,480.119 667.607,474.952 670.5,470C 669.941,467.812 668.607,467.146 666.5,468C 659.015,476.472 654.348,486.305 652.5,497.5C 654.113,507.217 659.113,514.717 667.5,520C 685.331,530.081 702.998,540.414 720.5,551C 726.918,557.344 731.085,564.844 733,573.5C 729.79,569.813 725.956,566.979 721.5,565C 715.291,562.864 708.958,561.198 702.5,560C 688.167,559.667 673.833,559.333 659.5,559C 636.9,556.726 619.733,545.892 608,526.5C 612.547,549.416 623.714,568.582 641.5,584C 611.423,571.412 593.59,548.912 588,516.5C 586.073,500.6 590.24,486.6 600.5,474.5C 599.833,473.167 598.833,472.167 597.5,471.5C 587.237,481.364 578.403,492.364 571,504.5C 558.453,533.45 563.287,558.95 585.5,581C 588.557,583.723 591.89,586.056 595.5,588C 569.779,596.23 545.779,592.897 523.5,578C 505.289,560.618 500.122,539.785 508,515.5C 517.676,489.289 534.509,469.122 558.5,455C 608.392,430.557 659.392,408.557 711.5,389C 760.151,377.668 808.817,377.668 857.5,389C 871.943,394.055 886.276,399.389 900.5,405C 925.249,418.035 949.583,431.535 973.5,445.5 Z"/></g>
<g><path style="opacity:1" fill="#5f5e5e" d="M 766.5,385.5 C 806.497,383.428 845.164,389.595 882.5,404C 867.907,401.349 853.241,398.683 838.5,396C 781.059,388.789 726.726,398.622 675.5,425.5C 691.89,409.932 711.556,398.765 734.5,392C 745.19,389.279 755.856,387.112 766.5,385.5 Z"/></g>
<g><path style="opacity:1" fill="#5d5c5c" d="M 790.5,408.5 C 791.552,408.351 792.552,408.517 793.5,409C 774.89,416.944 760.724,429.777 751,447.5C 751.056,436.555 755.556,427.722 764.5,421C 772.587,415.455 781.254,411.288 790.5,408.5 Z"/></g>
<g><path style="opacity:1" fill="#5f5e5e" d="M 676.5,410.5 C 677.552,410.351 678.552,410.517 679.5,411C 646.788,424.512 616.455,441.846 588.5,463C 582.333,467.833 576.833,473.333 572,479.5C 571.333,478.167 571.333,476.833 572,475.5C 574.422,470.657 576.755,465.99 579,461.5C 546.496,475.165 526.163,499.165 518,533.5C 517.519,498.297 533.019,472.797 564.5,457C 572.251,453.819 580.251,451.486 588.5,450C 616.016,432.741 645.349,419.575 676.5,410.5 Z"/></g>
<g><path style="opacity:1" fill="#030101" d="M 796.5,413.5 C 797.847,416.366 799.847,418.866 802.5,421C 818.5,429.333 834.5,437.667 850.5,446C 876.805,460.304 897.972,480.137 914,505.5C 914.667,506.167 914.667,506.833 914,507.5C 900.704,492.534 885.871,479.367 869.5,468C 843.439,452.634 816.772,438.301 789.5,425C 787.203,423.737 786.37,421.903 787,419.5C 789.843,416.837 793.009,414.837 796.5,413.5 Z"/></g>
<g><path style="opacity:1" fill="#5f5e5e" d="M 774.5,436.5 C 775.043,436.56 775.376,436.893 775.5,437.5C 767.275,449.762 766.442,462.428 773,475.5C 775.22,478.021 777.72,480.188 780.5,482C 797.315,490.239 813.649,499.239 829.5,509C 836.118,513.782 840.618,519.949 843,527.5C 838.629,520.898 832.796,516.065 825.5,513C 809.735,504.951 793.402,498.284 776.5,493C 762.084,486.335 756.584,475.168 760,459.5C 763.332,450.826 768.165,443.159 774.5,436.5 Z"/></g>
<g><path style="opacity:1" fill="#5e5d5d" d="M 866.5,437.5 C 886.518,453.177 908.851,464.677 933.5,472C 945.222,477.391 955.556,484.725 964.5,494C 946.791,482.803 927.458,474.97 906.5,470.5C 905.833,470.667 905.167,470.833 904.5,471C 913.28,478.847 920.447,487.68 926,497.5C 910.624,484.636 895.624,471.303 881,457.5C 875.536,451.216 870.703,444.55 866.5,437.5 Z"/></g>
<g><path style="opacity:1" fill="#5f5e5e" d="M 643.5,444.5 C 644.239,444.369 644.906,444.536 645.5,445C 637.216,452.278 630.049,460.444 624,469.5C 617.423,480.559 617.09,491.892 623,503.5C 624.513,506.524 626.513,509.191 629,511.5C 625.437,491.792 632.604,477.625 650.5,469C 637.244,481.377 633.744,496.211 640,513.5C 643.365,519.871 647.865,525.371 653.5,530C 636.165,529.589 622.999,522.089 614,507.5C 611.393,502.62 609.06,497.62 607,492.5C 604.854,495.126 603.521,498.126 603,501.5C 600.52,520.293 603.52,537.96 612,554.5C 594.833,536.983 589.5,516.316 596,492.5C 601.1,479.059 609.6,468.226 621.5,460C 628.736,454.581 636.069,449.415 643.5,444.5 Z"/></g>
<g><path style="opacity:1" fill="#5e5d5d" d="M 973.5,445.5 C 991.989,456.109 1011.66,463.776 1032.5,468.5C 1033.71,469.274 1033.71,470.107 1032.5,471C 1022.34,471.907 1012.34,471.074 1002.5,468.5C 991.009,463.201 981.009,455.701 972.5,446C 972.728,445.601 973.062,445.435 973.5,445.5 Z"/></g>
<g><path style="opacity:1" fill="#605e5e" d="M 720.5,447.5 C 721.552,447.351 722.552,447.517 723.5,448C 715.147,456.207 710.147,466.04 708.5,477.5C 708.696,486.393 712.03,493.893 718.5,500C 707.252,495.891 700.919,487.724 699.5,475.5C 686.518,488.483 687.852,499.983 703.5,510C 708.334,513.252 713.334,516.252 718.5,519C 702.782,517.651 689.282,511.485 678,500.5C 674.752,494.548 673.752,488.215 675,481.5C 679.542,471.239 686.708,463.405 696.5,458C 704.394,453.99 712.394,450.49 720.5,447.5 Z"/></g>
<g><path style="opacity:1" fill="#5e5d5d" d="M 956.5,467.5 C 957.251,466.427 958.251,466.26 959.5,467C 978.358,475.174 994.858,486.674 1009,501.5C 1018.9,512.444 1022.57,525.111 1020,539.5C 1015.95,525.389 1009.28,512.723 1000,501.5C 987.038,488.019 972.538,476.686 956.5,467.5 Z"/></g>
<g><path style="opacity:1" fill="#5e5d5d" d="M 842.5,476.5 C 859.294,481.179 873.794,490.179 886,503.5C 892.756,512.43 895.422,522.43 894,533.5C 892.446,524.495 888.78,516.495 883,509.5C 870.496,497.152 856.996,486.152 842.5,476.5 Z"/></g>
<g><path style="opacity:1" fill="#030101" d="M 564.5,481.5 C 565.239,481.369 565.906,481.536 566.5,482C 549.038,503.755 544.538,527.922 553,554.5C 556.471,562.617 561.305,569.783 567.5,576C 542.731,566.317 532.564,548.151 537,521.5C 543.204,506.129 552.371,492.796 564.5,481.5 Z"/></g>
<g><path style="opacity:1" fill="#1f1d1d" d="M 493.5,525.5 C 494.725,526.152 495.392,527.319 495.5,529C 491.343,553.901 495.843,577.068 509,598.5C 514.704,604.262 520.871,609.428 527.5,614C 503.712,616.453 491.879,629.62 492,653.5C 497.115,646.027 503.615,640.527 511.5,637C 503.316,645.2 498.149,655.033 496,666.5C 496.02,690.549 495.02,714.549 493,738.5C 492.667,739.5 492.333,740.5 492,741.5C 487.716,735.266 484.216,728.6 481.5,721.5C 476.274,730.34 472.107,739.673 469,749.5C 464.961,743.053 462.294,736.053 461,728.5C 458.296,688.87 456.963,649.203 457,609.5C 461.289,577.937 473.456,549.937 493.5,525.5 Z"/></g>
<g><path style="opacity:1" fill="#030101" d="M 1066.5,551.5 C 1074.12,554.563 1080.62,559.23 1086,565.5C 1091.51,576.967 1088.68,585.467 1077.5,591C 1073.2,592.494 1068.87,593.494 1064.5,594C 1074.13,588.233 1077.96,579.733 1076,568.5C 1073.32,562.456 1070.15,556.789 1066.5,551.5 Z"/></g>
<g><path style="opacity:1" fill="#f0ac87" d="M 1067.5,857.5 C 1053.07,850.483 1038.07,845.483 1022.5,842.5C 1018.47,818.609 1006.47,799.775 986.5,786C 973.009,778.918 958.676,776.251 943.5,778C 914.246,780.096 886.246,787.096 859.5,799C 850.116,802.745 846.116,809.745 847.5,820C 846.321,829.489 850.321,833.489 859.5,832C 889.725,819.941 921.058,814.608 953.5,816C 975.801,818.809 995.468,827.309 1012.5,841.5C 967.298,836.607 922.298,838.107 877.5,846C 857.825,849.249 841.325,858.083 828,872.5C 820.635,882.955 817.468,894.622 818.5,907.5C 799.109,898.228 779.775,898.228 760.5,907.5C 761.951,885.565 753.285,869.065 734.5,858C 718.168,849.583 700.835,844.583 682.5,843C 640.825,837.188 599.158,837.021 557.5,842.5C 585.037,819.528 616.704,811.028 652.5,817C 671.908,820.269 690.908,825.269 709.5,832C 719.915,834.423 724.582,830.256 723.5,819.5C 723.302,813.537 721.635,808.037 718.5,803C 681.59,784.916 642.59,776.916 601.5,779C 574.366,788.803 556.866,807.636 549,835.5C 548.502,838.482 548.335,841.482 548.5,844.5C 535.405,846.365 523.071,850.532 511.5,857C 503.128,862.57 498.461,870.404 497.5,880.5C 496.549,879.081 496.216,877.415 496.5,875.5C 497.367,841.632 503.2,808.632 514,776.5C 518.241,748.476 522.575,720.476 527,692.5C 530.03,674.409 536.03,657.409 545,641.5C 553.299,630.426 564.132,622.926 577.5,619C 587.329,616.169 597.329,614.169 607.5,613C 651.044,610.856 694.378,612.856 737.5,619C 762.481,620.513 787.481,620.847 812.5,620C 842.476,617.068 872.476,614.402 902.5,612C 928.265,610.738 953.932,611.738 979.5,615C 993.698,617.349 1005.86,623.515 1016,633.5C 1022.58,642.556 1027.25,652.556 1030,663.5C 1042.31,728.219 1054.81,792.886 1067.5,857.5 Z"/></g>
<g><path style="opacity:1" fill="#1a1b1b" d="M 557.5,842.5 C 554.454,843.062 551.454,843.729 548.5,844.5C 548.335,841.482 548.502,838.482 549,835.5C 556.866,807.636 574.366,788.803 601.5,779C 642.59,776.916 681.59,784.916 718.5,803C 721.635,808.037 723.302,813.537 723.5,819.5C 724.582,830.256 719.915,834.423 709.5,832C 690.908,825.269 671.908,820.269 652.5,817C 616.704,811.028 585.037,819.528 557.5,842.5 Z"/></g>
<g><path style="opacity:1" fill="#1a1c1b" d="M 1022.5,842.5 C 1019.06,842.747 1015.73,842.414 1012.5,841.5C 995.468,827.309 975.801,818.809 953.5,816C 921.058,814.608 889.725,819.941 859.5,832C 850.321,833.489 846.321,829.489 847.5,820C 846.116,809.745 850.116,802.745 859.5,799C 886.246,787.096 914.246,780.096 943.5,778C 958.676,776.251 973.009,778.918 986.5,786C 1006.47,799.775 1018.47,818.609 1022.5,842.5 Z"/></g>
<g><path style="opacity:1" fill="#fefbfa" d="M 760.5,907.5 C 760.344,917.922 759.344,928.255 757.5,938.5C 754.495,954.02 748.662,968.354 740,981.5C 728.911,992.301 716.078,1000.47 701.5,1006C 656.629,1020.36 610.962,1023.36 564.5,1015C 552.699,1013.22 541.366,1009.88 530.5,1005C 520.101,996.913 513.267,986.413 510,973.5C 502.931,948.485 498.431,923.151 496.5,897.5C 496.5,896.5 496.5,895.5 496.5,894.5C 490.167,894.5 483.833,894.5 477.5,894.5C 477.5,893.167 477.5,891.833 477.5,890.5C 484.167,890.5 490.833,890.5 497.5,890.5C 497.5,887.167 497.5,883.833 497.5,880.5C 498.461,870.404 503.128,862.57 511.5,857C 523.071,850.532 535.405,846.365 548.5,844.5C 551.454,843.729 554.454,843.062 557.5,842.5C 599.158,837.021 640.825,837.188 682.5,843C 700.835,844.583 718.168,849.583 734.5,858C 753.285,869.065 761.951,885.565 760.5,907.5 Z"/></g>
<g><path style="opacity:1" fill="#fdfbfa" d="M 1012.5,841.5 C 1015.73,842.414 1019.06,842.747 1022.5,842.5C 1038.07,845.483 1053.07,850.483 1067.5,857.5C 1075.21,862.926 1079.88,870.259 1081.5,879.5C 1081.5,882.833 1081.5,886.167 1081.5,889.5C 1088.17,889.5 1094.83,889.5 1101.5,889.5C 1101.5,891.167 1101.5,892.833 1101.5,894.5C 1094.75,893.877 1088.41,894.544 1082.5,896.5C 1081.52,899.287 1081.19,902.287 1081.5,905.5C 1081.1,917.282 1079.77,928.948 1077.5,940.5C 1074.96,953.153 1071.96,965.819 1068.5,978.5C 1065.06,987.799 1059.73,995.966 1052.5,1003C 1046.53,1006.48 1040.2,1009.15 1033.5,1011C 983.944,1022.97 934.61,1022.3 885.5,1009C 871.283,1003.56 857.949,996.559 845.5,988C 834.992,977.813 827.992,965.646 824.5,951.5C 823.809,946.74 822.809,942.074 821.5,937.5C 819.717,927.584 818.717,917.584 818.5,907.5C 817.468,894.622 820.635,882.955 828,872.5C 841.325,858.083 857.825,849.249 877.5,846C 922.298,838.107 967.298,836.607 1012.5,841.5 Z"/></g>
<g><path style="opacity:1" fill="#f0ac87" d="M 588.5,846.5 C 623.027,845.147 657.36,846.98 691.5,852C 709.75,853.635 726.084,859.968 740.5,871C 753.002,884.837 757.169,901.004 753,919.5C 751.469,939.969 745.469,958.969 735,976.5C 731.466,980.369 727.633,983.869 723.5,987C 695.408,1003.16 665.075,1011.49 632.5,1012C 602.907,1014.46 574.241,1010.46 546.5,1000C 530.121,992.284 520.621,979.451 518,961.5C 511.684,933.77 509.684,905.77 512,877.5C 518.004,867.506 526.504,860.339 537.5,856C 554.205,850.627 571.205,847.46 588.5,846.5 Z"/></g>
<g><path style="opacity:1" fill="#f0ac87" d="M 826.5,895.5 C 826.337,897.857 826.503,900.19 827,902.5C 827.962,898.023 828.795,893.523 829.5,889C 829.486,887.615 829.152,886.449 828.5,885.5C 837.912,869.269 851.912,859.102 870.5,855C 899.172,848.916 928.172,846.083 957.5,846.5C 982.45,845.687 1007.12,847.853 1031.5,853C 1064.8,861.071 1076.97,881.904 1068,915.5C 1066.45,934.073 1063.45,952.406 1059,970.5C 1054.06,983.772 1045.23,993.605 1032.5,1000C 999.08,1011.83 964.747,1015.49 929.5,1011C 900.087,1008.64 873.42,998.976 849.5,982C 841.921,975.017 836.755,966.517 834,956.5C 827.158,936.527 824.658,916.193 826.5,895.5 Z"/></g>
<g><path style="opacity:1" fill="#cb6e56" d="M 898.5,851.5 C 916.678,850.436 934.345,852.936 951.5,859C 938.977,856.853 926.31,855.686 913.5,855.5C 902.682,855.469 892.015,856.303 881.5,858C 886.882,854.712 892.549,852.545 898.5,851.5 Z"/></g>
<g><path style="opacity:1" fill="#cb6e56" d="M 648.5,851.5 C 662.491,849.962 675.825,852.128 688.5,858C 677.079,856.676 665.579,855.842 654,855.5C 642.968,855.316 632.135,856.65 621.5,859.5C 620.833,859.333 620.167,859.167 619.5,859C 629.172,856 638.839,853.5 648.5,851.5 Z"/></g>
<g><path style="opacity:1" fill="#060504" d="M 637.5,863.5 C 660.828,860.282 682.828,864.115 703.5,875C 719.729,888.298 730.229,905.132 735,925.5C 726.464,933.705 717.631,941.538 708.5,949C 673.412,972.003 637.412,973.336 600.5,953C 589.124,945.961 579.291,937.128 571,926.5C 578.618,890.254 600.785,869.254 637.5,863.5 Z"/></g>
<g><path style="opacity:1" fill="#080605" d="M 902.5,862.5 C 920.991,861.566 938.991,864.066 956.5,870C 979.508,881.19 993.842,899.357 999.5,924.5C 995.457,931.731 990.124,937.898 983.5,943C 952.298,967.268 917.965,972.935 880.5,960C 863.952,950.794 849.119,939.294 836,925.5C 843.465,888.865 865.632,867.865 902.5,862.5 Z"/></g>
<g><path style="opacity:1" fill="#141414" d="M 671.5,878.5 C 691.142,890.942 695.642,907.609 685,928.5C 674.678,942.13 661.178,946.63 644.5,942C 625.998,933.158 619.165,918.658 624,898.5C 626.963,889.869 632.463,883.369 640.5,879C 639.906,878.536 639.239,878.369 638.5,878.5C 649.5,875.833 660.5,875.833 671.5,878.5 Z"/></g>
<g><path style="opacity:1" fill="#141414" d="M 926.5,877.5 C 947.388,889.04 952.888,905.707 943,927.5C 932.752,941.251 919.252,946.084 902.5,942C 890.837,937.67 883.337,929.503 880,917.5C 877.718,900.739 883.551,887.739 897.5,878.5C 907.016,876.365 916.683,876.032 926.5,877.5 Z"/></g>
<g><path style="opacity:1" fill="#fafafa" d="M 638.5,878.5 C 639.239,878.369 639.906,878.536 640.5,879C 632.463,883.369 626.963,889.869 624,898.5C 619.165,918.658 625.998,933.158 644.5,942C 661.178,946.63 674.678,942.13 685,928.5C 695.642,907.609 691.142,890.942 671.5,878.5C 698.821,882.315 716.488,897.481 724.5,924C 705.391,946.971 680.891,959.138 651,960.5C 627.137,959.899 607.137,950.899 591,933.5C 588.699,930.212 586.866,926.712 585.5,923C 593.257,896.413 610.924,881.579 638.5,878.5 Z"/></g>
<g><path style="opacity:1" fill="#fbfbfb" d="M 926.5,877.5 C 947.9,878.328 964.733,887.328 977,904.5C 980.34,910.177 982.84,916.177 984.5,922.5C 983.732,926.703 981.898,930.37 979,933.5C 952.685,959.966 921.851,966.799 886.5,954C 871.025,947.183 857.859,937.35 847,924.5C 853.414,897.927 870.247,882.593 897.5,878.5C 883.551,887.739 877.718,900.739 880,917.5C 883.337,929.503 890.837,937.67 902.5,942C 919.252,946.084 932.752,941.251 943,927.5C 952.888,905.707 947.388,889.04 926.5,877.5 Z"/></g>
<g><path style="opacity:1" fill="#343434" d="M 1081.5,879.5 C 1089.84,879.334 1098.17,879.5 1106.5,880C 1108.26,881.008 1109.43,882.508 1110,884.5C 1112.26,891.757 1111.43,898.59 1107.5,905C 1098.84,905.5 1090.17,905.666 1081.5,905.5C 1081.19,902.287 1081.52,899.287 1082.5,896.5C 1089.25,897.123 1095.59,896.456 1101.5,894.5C 1101.5,892.833 1101.5,891.167 1101.5,889.5C 1094.83,889.5 1088.17,889.5 1081.5,889.5C 1081.5,886.167 1081.5,882.833 1081.5,879.5 Z"/></g>
<g><path style="opacity:1" fill="#343434" d="M 496.5,875.5 C 496.216,877.415 496.549,879.081 497.5,880.5C 497.5,883.833 497.5,887.167 497.5,890.5C 490.833,890.5 484.167,890.5 477.5,890.5C 477.5,891.833 477.5,893.167 477.5,894.5C 477.414,895.496 477.748,896.329 478.5,897C 484.491,897.499 490.491,897.666 496.5,897.5C 496.677,902.535 495.677,907.201 493.5,911.5C 493.5,909.833 493.5,908.167 493.5,906.5C 486.109,906.799 478.776,906.465 471.5,905.5C 468.189,898.763 467.689,891.763 470,884.5C 470.5,883.333 471.333,882.5 472.5,882C 480.159,881.5 487.826,881.334 495.5,881.5C 495.205,879.265 495.539,877.265 496.5,875.5 Z"/></g>
<g><path style="opacity:1" fill="#f7f7f7" d="M 660.5,892.5 C 660.207,902.292 655.207,906.459 645.5,905C 644.429,904.148 643.429,903.315 642.5,902.5C 637.989,896.395 638.656,890.895 644.5,886C 651.479,883.986 656.812,886.153 660.5,892.5 Z"/></g>
<g><path style="opacity:1" fill="#f6f6f6" d="M 917.5,892.5 C 916.314,904.666 910.314,907.999 899.5,902.5C 893.928,891.472 897.261,885.638 909.5,885C 913.323,886.324 915.989,888.824 917.5,892.5 Z"/></g>
<g><path style="opacity:1" fill="#edaa85" d="M 466.5,918.5 C 466.565,918.938 466.399,919.272 466,919.5C 458.392,908.281 447.892,902.781 434.5,903C 433.692,903.308 433.025,903.808 432.5,904.5C 435.32,906.745 438.32,908.745 441.5,910.5C 437.33,915.497 434.163,921.164 432,927.5C 428.42,957.524 435.587,984.524 453.5,1008.5C 458.037,1018.37 465.037,1026.04 474.5,1031.5C 474.826,1040.35 474.493,1049.02 473.5,1057.5C 451.162,1038.6 435.662,1014.93 427,986.5C 420.16,961.099 418.827,935.432 423,909.5C 428.371,889.729 440.204,883.895 458.5,892C 459.667,893.167 460.833,894.333 462,895.5C 463.404,903.204 464.904,910.871 466.5,918.5 Z"/></g>
<g><path style="opacity:1" fill="#eca985" d="M 1095.5,1030.5 C 1105.22,1025.78 1112.22,1018.44 1116.5,1008.5C 1134.89,984.265 1142.06,956.932 1138,926.5C 1136.07,920.281 1132.9,914.948 1128.5,910.5C 1131.02,908.828 1133.69,907.328 1136.5,906C 1137.83,905 1137.83,904 1136.5,903C 1127.15,901.175 1119.15,903.675 1112.5,910.5C 1111.7,910.043 1111.37,909.376 1111.5,908.5C 1112.22,902.494 1113.06,896.494 1114,890.5C 1125.93,884.808 1135.6,887.475 1143,898.5C 1149.33,912.504 1151.67,927.17 1150,942.5C 1148.6,984.056 1133.93,1020.06 1106,1050.5C 1102.97,1053.03 1099.81,1055.36 1096.5,1057.5C 1095.5,1048.52 1095.17,1039.52 1095.5,1030.5 Z"/></g>
<g><path style="opacity:1" fill="#79372d" d="M 828.5,885.5 C 829.152,886.449 829.486,887.615 829.5,889C 828.795,893.523 827.962,898.023 827,902.5C 826.503,900.19 826.337,897.857 826.5,895.5C 826.547,892.031 827.213,888.698 828.5,885.5 Z"/></g>
<g><path style="opacity:1" fill="#010101" d="M 660.5,892.5 C 672.483,897.596 675.983,906.263 671,918.5C 664.623,926.687 656.79,928.521 647.5,924C 640.66,919.155 638.16,912.655 640,904.5C 640.417,903.244 641.25,902.577 642.5,902.5C 643.429,903.315 644.429,904.148 645.5,905C 655.207,906.459 660.207,902.292 660.5,892.5 Z"/></g>
<g><path style="opacity:1" fill="#010101" d="M 917.5,892.5 C 929.056,896.626 932.89,904.626 929,916.5C 922.474,926.59 913.974,928.756 903.5,923C 898.082,918.338 895.916,912.505 897,905.5C 897.236,903.881 898.069,902.881 899.5,902.5C 910.314,907.999 916.314,904.666 917.5,892.5 Z"/></g>
<g><path style="opacity:1" fill="#909090" d="M 477.5,894.5 C 483.833,894.5 490.167,894.5 496.5,894.5C 496.5,895.5 496.5,896.5 496.5,897.5C 490.491,897.666 484.491,897.499 478.5,897C 477.748,896.329 477.414,895.496 477.5,894.5 Z"/></g>
<g><path style="opacity:1" fill="#858585" d="M 1101.5,894.5 C 1095.59,896.456 1089.25,897.123 1082.5,896.5C 1088.41,894.544 1094.75,893.877 1101.5,894.5 Z"/></g>
<g><path style="opacity:1" fill="#383736" d="M 818.5,907.5 C 818.717,917.584 819.717,927.584 821.5,937.5C 819.421,937.029 817.421,936.363 815.5,935.5C 795.722,929.366 776.388,930.366 757.5,938.5C 759.344,928.255 760.344,917.922 760.5,907.5C 779.775,898.228 799.109,898.228 818.5,907.5 Z"/></g>
<g><path style="opacity:1" fill="#69261d" d="M 466.5,918.5 C 469.768,928.907 472.435,939.573 474.5,950.5C 471.025,944.897 467.525,939.231 464,933.5C 450.884,949.126 447.884,966.46 455,985.5C 444.407,971.566 442.74,956.566 450,940.5C 452.74,935.936 455.24,931.269 457.5,926.5C 453.174,920.174 447.841,914.841 441.5,910.5C 438.32,908.745 435.32,906.745 432.5,904.5C 433.025,903.808 433.692,903.308 434.5,903C 447.892,902.781 458.392,908.281 466,919.5C 466.399,919.272 466.565,918.938 466.5,918.5 Z"/></g>
<g><path style="opacity:1" fill="#f0ac87" d="M 496.5,897.5 C 498.431,923.151 502.931,948.485 510,973.5C 513.267,986.413 520.101,996.913 530.5,1005C 541.366,1009.88 552.699,1013.22 564.5,1015C 610.962,1023.36 656.629,1020.36 701.5,1006C 716.078,1000.47 728.911,992.301 740,981.5C 748.662,968.354 754.495,954.02 757.5,938.5C 776.388,930.366 795.722,929.366 815.5,935.5C 815.547,963.566 820.047,990.9 829,1017.5C 830.123,1020.25 831.623,1022.75 833.5,1025C 834.793,1025.49 836.127,1025.66 837.5,1025.5C 834.735,1012.51 831.902,999.511 829,986.5C 826.925,974.897 825.425,963.231 824.5,951.5C 827.992,965.646 834.992,977.813 845.5,988C 857.949,996.559 871.283,1003.56 885.5,1009C 934.61,1022.3 983.944,1022.97 1033.5,1011C 1040.2,1009.15 1046.53,1006.48 1052.5,1003C 1059.73,995.966 1065.06,987.799 1068.5,978.5C 1056.88,1023.31 1046.38,1068.31 1037,1113.5C 1040.49,1105.85 1044.49,1098.51 1049,1091.5C 1047.96,1099.19 1046.46,1106.86 1044.5,1114.5C 1046.03,1115.42 1047.36,1115.09 1048.5,1113.5C 1052.9,1110.43 1056.23,1106.43 1058.5,1101.5C 1059.75,1102.33 1060.41,1103.67 1060.5,1105.5C 1060.25,1107.86 1059.91,1110.19 1059.5,1112.5C 1055.19,1141.88 1049.02,1170.88 1041,1199.5C 1023.02,1250.29 993.523,1293.13 952.5,1328C 928.924,1348.46 903.591,1366.46 876.5,1382C 831.226,1402.4 784.226,1407.4 735.5,1397C 713.36,1391.26 692.693,1382.26 673.5,1370C 636.313,1345.15 603.146,1315.65 574,1281.5C 548.977,1249.45 531.977,1213.45 523,1173.5C 518.732,1153.22 514.899,1132.89 511.5,1112.5C 511.005,1110.55 510.672,1108.55 510.5,1106.5C 510.585,1104.67 511.252,1103.33 512.5,1102.5C 514.372,1107.04 517.372,1110.71 521.5,1113.5C 523.399,1116 524.733,1115.83 525.5,1113C 523.399,1105.22 521.899,1097.38 521,1089.5C 525.588,1097.68 529.922,1106.01 534,1114.5C 521.912,1057.81 508.412,1001.48 493.5,945.5C 493.5,934.167 493.5,922.833 493.5,911.5C 495.677,907.201 496.677,902.535 496.5,897.5 Z"/></g>
<g><path style="opacity:1" fill="#f9f9f9" d="M 815.5,920.5 C 815.53,921.497 815.03,922.164 814,922.5C 796.658,915.57 779.492,915.904 762.5,923.5C 762.589,920.061 763.922,917.228 766.5,915C 769.674,913.275 773.007,911.942 776.5,911C 784.167,910.333 791.833,910.333 799.5,911C 804.383,912.072 809.05,913.739 813.5,916C 815.037,917.11 815.703,918.61 815.5,920.5 Z"/></g>
<g><path style="opacity:1" fill="#cf785e" d="M 1128.5,910.5 C 1132.9,914.948 1136.07,920.281 1138,926.5C 1142.06,956.932 1134.89,984.265 1116.5,1008.5C 1110.46,1014.7 1103.96,1020.37 1097,1025.5C 1096.5,1010.5 1096.33,995.504 1096.5,980.5C 1096.33,972.826 1096.5,965.159 1097,957.5C 1100.93,950.222 1103.76,942.556 1105.5,934.5C 1108.43,935.591 1110.59,937.591 1112,940.5C 1120.19,954.643 1121.53,969.309 1116,984.5C 1126.11,969.498 1127.11,953.831 1119,937.5C 1116.7,933.732 1114.53,929.898 1112.5,926C 1117.03,919.971 1122.36,914.804 1128.5,910.5 Z"/></g>
<g><path style="opacity:1" fill="#d0785e" d="M 441.5,910.5 C 447.841,914.841 453.174,920.174 457.5,926.5C 455.24,931.269 452.74,935.936 450,940.5C 442.74,956.566 444.407,971.566 455,985.5C 447.884,966.46 450.884,949.126 464,933.5C 467.525,939.231 471.025,944.897 474.5,950.5C 474.5,975.5 474.5,1000.5 474.5,1025.5C 471.91,1024.87 469.577,1023.7 467.5,1022C 462.917,1017.25 458.251,1012.75 453.5,1008.5C 435.587,984.524 428.42,957.524 432,927.5C 434.163,921.164 437.33,915.497 441.5,910.5 Z"/></g>
<g><path style="opacity:1" fill="#969696" d="M 815.5,920.5 C 816.451,921.919 816.784,923.585 816.5,925.5C 802.653,922.637 788.653,921.803 774.5,923C 771.219,923.455 768.052,924.289 765,925.5C 763.624,925.316 762.791,924.649 762.5,923.5C 779.492,915.904 796.658,915.57 814,922.5C 815.03,922.164 815.53,921.497 815.5,920.5 Z"/></g>
<g><path style="opacity:1" fill="#69251d" d="M 1128.5,910.5 C 1122.36,914.804 1117.03,919.971 1112.5,926C 1114.53,929.898 1116.7,933.732 1119,937.5C 1127.11,953.831 1126.11,969.498 1116,984.5C 1121.53,969.309 1120.19,954.643 1112,940.5C 1110.59,937.591 1108.43,935.591 1105.5,934.5C 1107.9,925.827 1109.9,917.16 1111.5,908.5C 1111.37,909.376 1111.7,910.043 1112.5,910.5C 1119.15,903.675 1127.15,901.175 1136.5,903C 1137.83,904 1137.83,905 1136.5,906C 1133.69,907.328 1131.02,908.828 1128.5,910.5 Z"/></g>
<g><path style="opacity:1" fill="#6c281f" d="M 815.5,935.5 C 817.421,936.363 819.421,937.029 821.5,937.5C 822.809,942.074 823.809,946.74 824.5,951.5C 825.425,963.231 826.925,974.897 829,986.5C 831.902,999.511 834.735,1012.51 837.5,1025.5C 836.127,1025.66 834.793,1025.49 833.5,1025C 831.623,1022.75 830.123,1020.25 829,1017.5C 820.047,990.9 815.547,963.566 815.5,935.5 Z"/></g>
<g><path style="opacity:1" fill="#d27b61" d="M 732.5,941.5 C 733.043,941.56 733.376,941.893 733.5,942.5C 730.06,949.045 726.894,955.712 724,962.5C 715.208,975.282 703.041,982.116 687.5,983C 705.856,972.811 720.856,958.978 732.5,941.5 Z"/></g>
<g><path style="opacity:1" fill="#d27b61" d="M 837.5,942.5 C 850.118,958.993 865.452,972.493 883.5,983C 868.102,982.387 855.936,975.887 847,963.5C 843.731,956.518 840.564,949.518 837.5,942.5 Z"/></g>
<g><path style="opacity:1" fill="#1d1d1c" d="M 493.5,945.5 C 508.412,1001.48 521.912,1057.81 534,1114.5C 529.922,1106.01 525.588,1097.68 521,1089.5C 521.899,1097.38 523.399,1105.22 525.5,1113C 524.733,1115.83 523.399,1116 521.5,1113.5C 522.097,1113.26 522.43,1112.76 522.5,1112C 516.198,1092.09 509.698,1072.26 503,1052.5C 504.674,1067.21 507.007,1081.88 510,1096.5C 510.236,1098.81 511.069,1100.81 512.5,1102.5C 511.252,1103.33 510.585,1104.67 510.5,1106.5C 510.672,1108.55 511.005,1110.55 511.5,1112.5C 510.883,1112.61 510.383,1112.94 510,1113.5C 507.439,1107.61 503.439,1102.94 498,1099.5C 496.462,1093.94 495.462,1088.27 495,1082.5C 493.62,1036.79 493.12,991.126 493.5,945.5 Z"/></g>
<g><path style="opacity:1" fill="#1d1d1d" d="M 1077.5,940.5 C 1077.84,990.193 1077.01,1039.86 1075,1089.5C 1074.46,1092.53 1073.79,1095.53 1073,1098.5C 1067.55,1102.45 1063.05,1107.12 1059.5,1112.5C 1059.91,1110.19 1060.25,1107.86 1060.5,1105.5C 1060.41,1103.67 1059.75,1102.33 1058.5,1101.5C 1063.19,1085.89 1066.02,1069.89 1067,1053.5C 1060.2,1073.69 1054.04,1093.69 1048.5,1113.5C 1047.36,1115.09 1046.03,1115.42 1044.5,1114.5C 1046.46,1106.86 1047.96,1099.19 1049,1091.5C 1044.49,1098.51 1040.49,1105.85 1037,1113.5C 1046.38,1068.31 1056.88,1023.31 1068.5,978.5C 1071.96,965.819 1074.96,953.153 1077.5,940.5 Z"/></g>
<g><path style="opacity:1" fill="#732f24" d="M 453.5,1008.5 C 458.251,1012.75 462.917,1017.25 467.5,1022C 469.577,1023.7 471.91,1024.87 474.5,1025.5C 474.5,1027.5 474.5,1029.5 474.5,1031.5C 465.037,1026.04 458.037,1018.37 453.5,1008.5 Z"/></g>
<g><path style="opacity:1" fill="#692e23" d="M 1096.5,980.5 C 1096.33,995.504 1096.5,1010.5 1097,1025.5C 1103.96,1020.37 1110.46,1014.7 1116.5,1008.5C 1112.22,1018.44 1105.22,1025.78 1095.5,1030.5C 1095.17,1013.66 1095.5,996.992 1096.5,980.5 Z"/></g>
<g><path style="opacity:1" fill="#755442" d="M 474.5,1031.5 C 475.822,1040.34 475.822,1049.34 474.5,1058.5C 473.893,1058.38 473.56,1058.04 473.5,1057.5C 474.493,1049.02 474.826,1040.35 474.5,1031.5 Z"/></g>
<g><path style="opacity:1" fill="#040403" d="M 521.5,1113.5 C 517.372,1110.71 514.372,1107.04 512.5,1102.5C 511.069,1100.81 510.236,1098.81 510,1096.5C 507.007,1081.88 504.674,1067.21 503,1052.5C 509.698,1072.26 516.198,1092.09 522.5,1112C 522.43,1112.76 522.097,1113.26 521.5,1113.5 Z"/></g>
<g><path style="opacity:1" fill="#040404" d="M 1058.5,1101.5 C 1056.23,1106.43 1052.9,1110.43 1048.5,1113.5C 1054.04,1093.69 1060.2,1073.69 1067,1053.5C 1066.02,1069.89 1063.19,1085.89 1058.5,1101.5 Z"/></g>
<g><path style="opacity:1" fill="#6b271e" d="M 719.5,1099.5 C 722.571,1104.88 726.238,1105.55 730.5,1101.5C 734.998,1097.17 739.665,1093 744.5,1089C 747.555,1088.37 750.555,1088.53 753.5,1089.5C 757.709,1094.22 761.209,1099.55 764,1105.5C 773.514,1118.58 785.347,1121.08 799.5,1113C 805.462,1105.57 810.795,1097.74 815.5,1089.5C 818.779,1088.51 822.112,1088.34 825.5,1089C 829.74,1093.75 834.407,1097.91 839.5,1101.5C 839.611,1102.12 839.944,1102.62 840.5,1103C 846.361,1103.66 850.361,1101.16 852.5,1095.5C 854.43,1090.35 854.93,1085.01 854,1079.5C 852.369,1073.61 850.535,1067.77 848.5,1062C 848.833,1061.5 849.167,1061 849.5,1060.5C 859.575,1069.22 863.408,1080.22 861,1093.5C 858.761,1103.03 853.094,1109.36 844,1112.5C 841.317,1111.91 838.817,1110.91 836.5,1109.5C 832.062,1105.56 827.729,1101.4 823.5,1097C 820.682,1096.16 818.516,1096.99 817,1099.5C 814.143,1104.55 811.309,1109.55 808.5,1114.5C 796.867,1126.52 783.533,1128.68 768.5,1121C 766.237,1119.38 764.237,1117.55 762.5,1115.5C 758.51,1110.2 755.01,1104.53 752,1098.5C 750.938,1097.1 749.605,1096.1 748,1095.5C 742.676,1099.66 737.843,1104.32 733.5,1109.5C 730.923,1110.37 728.423,1111.37 726,1112.5C 716.117,1108.94 710.117,1101.94 708,1091.5C 707.019,1081.11 709.686,1071.78 716,1063.5C 717.724,1061.16 719.557,1060.66 721.5,1062C 716.551,1071.62 714.718,1081.79 716,1092.5C 717.18,1094.86 718.347,1097.19 719.5,1099.5 Z"/></g>
<g><path style="opacity:1" fill="#c66751" d="M 753.5,1089.5 C 759.478,1089.49 764.811,1091.33 769.5,1095C 783.239,1099.99 796.239,1098.33 808.5,1090C 810.81,1089.5 813.143,1089.34 815.5,1089.5C 810.795,1097.74 805.462,1105.57 799.5,1113C 785.347,1121.08 773.514,1118.58 764,1105.5C 761.209,1099.55 757.709,1094.22 753.5,1089.5 Z"/></g>
<g><path style="opacity:1" fill="#bb775d" d="M 762.5,1115.5 C 752.992,1112.73 743.326,1110.73 733.5,1109.5C 737.843,1104.32 742.676,1099.66 748,1095.5C 749.605,1096.1 750.938,1097.1 752,1098.5C 755.01,1104.53 758.51,1110.2 762.5,1115.5 Z"/></g>
<g><path style="opacity:1" fill="#bc785e" d="M 836.5,1109.5 C 826.936,1109.91 817.602,1111.58 808.5,1114.5C 811.309,1109.55 814.143,1104.55 817,1099.5C 818.516,1096.99 820.682,1096.16 823.5,1097C 827.729,1101.4 832.062,1105.56 836.5,1109.5 Z"/></g>
<g><path style="opacity:1" fill="#bd634e" d="M 719.5,1099.5 C 723.002,1100.92 726.669,1101.58 730.5,1101.5C 726.238,1105.55 722.571,1104.88 719.5,1099.5 Z"/></g>
<g><path style="opacity:1" fill="#c26650" d="M 852.5,1095.5 C 850.361,1101.16 846.361,1103.66 840.5,1103C 839.944,1102.62 839.611,1102.12 839.5,1101.5C 844.693,1101.29 849.027,1099.29 852.5,1095.5 Z"/></g>
<g><path style="opacity:1" fill="#050403" d="M 660.5,1150.5 C 722.95,1166.78 786.284,1170.62 850.5,1162C 871.033,1159.39 891.367,1155.73 911.5,1151C 912.571,1150.15 913.571,1149.31 914.5,1148.5C 917.153,1145.86 920.153,1143.53 923.5,1141.5C 930.177,1142.92 935.677,1146.25 940,1151.5C 940.964,1159.03 937.798,1161.7 930.5,1159.5C 927.628,1163.91 925.295,1168.58 923.5,1173.5C 910.537,1198.76 897.037,1223.76 883,1248.5C 865.455,1279.04 838.955,1295.54 803.5,1298C 779.364,1300.73 756.031,1297.73 733.5,1289C 719.57,1282.4 708.07,1272.9 699,1260.5C 683.968,1235.76 669.468,1210.76 655.5,1185.5C 651.872,1176.91 647.705,1168.58 643,1160.5C 639.92,1160.03 636.754,1159.86 633.5,1160C 628.262,1156.18 628.262,1152.18 633.5,1148C 637.287,1144.79 641.62,1142.62 646.5,1141.5C 647.938,1141.72 649.271,1142.22 650.5,1143C 652.582,1147.26 655.915,1149.76 660.5,1150.5 Z"/></g>
<g><path style="opacity:1" fill="#dc8a63" d="M 914.5,1148.5 C 913.571,1149.31 912.571,1150.15 911.5,1151C 891.367,1155.73 871.033,1159.39 850.5,1162C 786.284,1170.62 722.95,1166.78 660.5,1150.5C 695.82,1150.83 731.153,1150.99 766.5,1151C 773.108,1152.49 779.774,1153.66 786.5,1154.5C 793.644,1152.17 800.977,1150.67 808.5,1150C 829.666,1149.71 850.833,1149.88 872,1150.5C 886.228,1150.67 900.394,1150 914.5,1148.5 Z"/></g>
<g><path style="opacity:1" fill="#f7f7f7" d="M 907.5,1176.5 C 879.268,1187.66 849.934,1194.16 819.5,1196C 785.087,1198.57 750.753,1197.91 716.5,1194C 698.377,1191.24 681.377,1185.4 665.5,1176.5C 662.997,1171.84 660.83,1167.17 659,1162.5C 672.9,1166.57 687.067,1169.74 701.5,1172C 729.243,1175.77 757.076,1178.61 785,1180.5C 827.651,1178.34 869.818,1172.67 911.5,1163.5C 912.167,1163.83 912.833,1164.17 913.5,1164.5C 911.487,1168.53 909.487,1172.53 907.5,1176.5 Z"/></g>
<g><path style="opacity:1" fill="#959393" d="M 665.5,1176.5 C 681.377,1185.4 698.377,1191.24 716.5,1194C 750.753,1197.91 785.087,1198.57 819.5,1196C 849.934,1194.16 879.268,1187.66 907.5,1176.5C 906.071,1179.7 904.405,1182.7 902.5,1185.5C 882.926,1193.43 862.593,1198.6 841.5,1201C 799.816,1205.54 758.149,1205.54 716.5,1201C 701.273,1198.69 686.606,1194.53 672.5,1188.5C 669.662,1184.83 667.329,1180.83 665.5,1176.5 Z"/></g>
<g><path style="opacity:1" fill="#dd8b64" d="M 923.5,1173.5 C 914.951,1205.6 902.784,1236.27 887,1265.5C 875.397,1285.77 859.23,1301.27 838.5,1312C 809.734,1322.22 780.4,1324.22 750.5,1318C 721.659,1308.83 700.492,1290.66 687,1263.5C 674.627,1238.21 664.127,1212.21 655.5,1185.5C 669.468,1210.76 683.968,1235.76 699,1260.5C 708.07,1272.9 719.57,1282.4 733.5,1289C 756.031,1297.73 779.364,1300.73 803.5,1298C 838.955,1295.54 865.455,1279.04 883,1248.5C 897.037,1223.76 910.537,1198.76 923.5,1173.5 Z"/></g>
<g><path style="opacity:1" fill="#5c0203" d="M 902.5,1185.5 C 890.952,1210.27 877.618,1233.94 862.5,1256.5C 825.312,1261.73 787.979,1263.23 750.5,1261C 736.969,1259.9 723.636,1257.73 710.5,1254.5C 696.811,1233.13 684.144,1211.13 672.5,1188.5C 686.606,1194.53 701.273,1198.69 716.5,1201C 758.149,1205.54 799.816,1205.54 841.5,1201C 862.593,1198.6 882.926,1193.43 902.5,1185.5 Z"/></g>
<g><path style="opacity:1" fill="#959393" d="M 710.5,1254.5 C 723.636,1257.73 736.969,1259.9 750.5,1261C 787.979,1263.23 825.312,1261.73 862.5,1256.5C 860.167,1259.5 857.5,1262.17 854.5,1264.5C 818.946,1269.18 783.279,1270.34 747.5,1268C 737.732,1267.02 728.065,1265.52 718.5,1263.5C 715.119,1261.12 712.453,1258.12 710.5,1254.5 Z"/></g>
<g><path style="opacity:1" fill="#f5f5f5" d="M 718.5,1263.5 C 728.065,1265.52 737.732,1267.02 747.5,1268C 783.279,1270.34 818.946,1269.18 854.5,1264.5C 841.806,1276.03 826.806,1282.86 809.5,1285C 788.199,1287.98 767.199,1286.65 746.5,1281C 735.683,1277.31 726.35,1271.48 718.5,1263.5 Z"/></g>
<g><path style="opacity:1" fill="#f0ac87" d="M 658.5,1384.5 C 659.873,1384.34 661.207,1384.51 662.5,1385C 704.618,1412.78 750.951,1424.78 801.5,1421C 841.176,1418.5 877.509,1406.33 910.5,1384.5C 921.355,1388.45 932.022,1392.78 942.5,1397.5C 906.622,1440.4 864.289,1475.24 815.5,1502C 805.72,1507.14 795.553,1511.31 785,1514.5C 724.17,1487.51 672.336,1448.51 629.5,1397.5C 639.15,1392.96 648.817,1388.62 658.5,1384.5 Z"/></g>
<g><path style="opacity:1" fill="#fd7317" d="M 764.5,1521.5 C 753.449,1521.24 742.449,1520.57 731.5,1519.5C 725.566,1517.12 719.899,1513.96 714.5,1510C 676.998,1483.84 642.498,1454.01 611,1420.5C 630.569,1448.41 654.069,1472.91 681.5,1494C 692.56,1502.06 703.893,1509.72 715.5,1517C 713.527,1517.5 711.527,1517.66 709.5,1517.5C 615.533,1508.4 527.2,1481.4 444.5,1436.5C 450.214,1432.31 456.548,1429.14 463.5,1427C 509.299,1417.42 554.965,1407.09 600.5,1396C 603.227,1395.18 605.894,1395.35 608.5,1396.5C 652.261,1448.68 704.261,1490.35 764.5,1521.5 Z"/></g>
<g><path style="opacity:1" fill="#fd7318" d="M 1124.5,1435.5 C 1044.07,1479.75 958.069,1506.75 866.5,1516.5C 864.473,1516.66 862.473,1516.5 860.5,1516C 900.629,1490.53 934.129,1458.37 961,1419.5C 926.823,1457.54 888.657,1490.54 846.5,1518.5C 834.015,1519.94 821.349,1520.94 808.5,1521.5C 868.813,1490.72 920.479,1448.89 963.5,1396C 965.167,1395.33 966.833,1395.33 968.5,1396C 1014.73,1406.81 1061.07,1417.14 1107.5,1427C 1113.51,1429.34 1119.17,1432.17 1124.5,1435.5 Z"/></g>
<g><path style="opacity:1" fill="#e86a16" d="M 866.5,1516.5 C 860.053,1517.94 853.386,1518.6 846.5,1518.5C 888.657,1490.54 926.823,1457.54 961,1419.5C 934.129,1458.37 900.629,1490.53 860.5,1516C 862.473,1516.5 864.473,1516.66 866.5,1516.5 Z"/></g>
<g><path style="opacity:1" fill="#e86a16" d="M 731.5,1519.5 C 723.963,1519.48 716.629,1518.81 709.5,1517.5C 711.527,1517.66 713.527,1517.5 715.5,1517C 703.893,1509.72 692.56,1502.06 681.5,1494C 654.069,1472.91 630.569,1448.41 611,1420.5C 642.498,1454.01 676.998,1483.84 714.5,1510C 719.899,1513.96 725.566,1517.12 731.5,1519.5 Z"/></g>
</svg>
