<?xml version="1.0" encoding="UTF-8"?>
<!DOCTYPE svg PUBLIC "-//W3C//DTD SVG 1.1//EN" "http://www.w3.org/Graphics/SVG/1.1/DTD/svg11.dtd">
<svg xmlns="http://www.w3.org/2000/svg" version="1.1" width="1592px" height="1592px" style="shape-rendering:geometricPrecision; text-rendering:geometricPrecision; image-rendering:optimizeQuality; fill-rule:evenodd; clip-rule:evenodd" xmlns:xlink="http://www.w3.org/1999/xlink">
<g><path style="opacity:0.987" fill="#010100" d="M 1124.5,1435.5 C 1120.05,1432.77 1115.39,1430.27 1110.5,1428C 1055.18,1415.06 999.843,1402.22 944.5,1389.5C 946.085,1421.5 932.418,1444.34 903.5,1458C 875.067,1471.58 845.067,1479.25 813.5,1481C 780.891,1484.1 748.558,1482.43 716.5,1476C 691.583,1470.04 669.25,1459.04 649.5,1443C 634.254,1428.11 626.921,1409.94 627.5,1388.5C 572.905,1401.65 518.238,1414.49 463.5,1427C 456.548,1429.14 450.214,1432.31 444.5,1436.5C 437.578,1434.04 431.244,1430.54 425.5,1426C 443.902,1411.53 464.902,1403.53 488.5,1402C 535.463,1390.51 582.463,1379.18 629.5,1368C 635.306,1367.38 640.973,1367.71 646.5,1369C 648.848,1368.89 650.348,1367.72 651,1365.5C 652.105,1359.81 653.272,1354.14 654.5,1348.5C 622.553,1327.4 593.053,1303.07 566,1275.5C 526.518,1231.81 503.185,1180.47 496,1121.5C 494.949,1115.96 493.282,1110.62 491,1105.5C 481.908,1099.33 476.908,1090.66 476,1079.5C 468.682,1076.92 461.849,1073.42 455.5,1069C 407.294,1019.68 391.461,961.514 408,894.5C 418.369,872.899 435.202,864.565 458.5,869.5C 446.02,821.454 439.02,772.621 437.5,723C 439.173,688.967 446.34,656.134 459,624.5C 462.177,603.103 465.677,581.77 469.5,560.5C 471.199,560.34 472.866,560.506 474.5,561C 476.947,564.226 479.947,565.726 483.5,565.5C 495.072,530.165 513.405,498.998 538.5,472C 540.441,471.257 542.274,471.424 544,472.5C 543.615,475.589 542.948,478.589 542,481.5C 562.243,467.627 582.743,454.127 603.5,441C 616.457,431.045 629.124,420.712 641.5,410C 643.167,409.333 644.833,409.333 646.5,410C 648.486,413.647 650.653,417.147 653,420.5C 680.7,401.702 711.2,389.536 744.5,384C 796.546,373.005 847.213,377.338 896.5,397C 958.839,428.816 1018.17,465.15 1074.5,506C 1080.36,510.527 1085.53,515.694 1090,521.5C 1090.72,523.112 1090.55,524.612 1089.5,526C 1082.48,527.34 1075.81,529.674 1069.5,533C 1087.54,557.233 1102.37,583.4 1114,611.5C 1127.86,652.385 1133.19,694.385 1130,737.5C 1127.2,781.908 1121.37,825.908 1112.5,869.5C 1139.22,864.945 1156.72,875.612 1165,901.5C 1177.59,966.377 1160.76,1022.21 1114.5,1069C 1108.47,1073.52 1101.8,1076.68 1094.5,1078.5C 1094.56,1090.05 1089.73,1098.72 1080,1104.5C 1079.33,1105.83 1078.67,1107.17 1078,1108.5C 1073.16,1137.04 1066.16,1165.04 1057,1192.5C 1040.61,1232.44 1016.44,1266.94 984.5,1296C 962.808,1314.87 940.142,1332.37 916.5,1348.5C 917.728,1354.14 918.895,1359.81 920,1365.5C 922.972,1369.91 926.472,1370.41 930.5,1367C 932.833,1366.33 935.167,1366.33 937.5,1367C 997.743,1381.81 1058.08,1396.14 1118.5,1410C 1127.63,1413.73 1135.96,1418.73 1143.5,1425C 1137.43,1429.03 1131.1,1432.53 1124.5,1435.5 Z"/></g>
<g><path style="opacity:1" fill="#201e1e" d="M 784.5,398.5 C 800.573,397.021 816.573,397.688 832.5,400.5C 817.392,400.493 802.726,402.993 788.5,408C 795.147,408.014 801.814,407.847 808.5,407.5C 814.88,407.489 821.213,407.989 827.5,409C 815.972,412.094 805.972,417.761 797.5,426C 804.97,423.175 812.636,420.508 820.5,418C 842.069,413.702 863.736,413.369 885.5,417C 888.539,418.696 891.539,419.196 894.5,418.5C 922.58,432.372 949.913,447.539 976.5,464C 1003.98,480.489 1030.65,498.155 1056.5,517C 1049.8,518.342 1044.46,521.675 1040.5,527C 1062.58,554.299 1080.74,584.133 1095,616.5C 1109.06,657.358 1114.06,699.358 1110,742.5C 1109.48,752.883 1108.48,763.217 1107,773.5C 1105.39,770.228 1103.39,767.228 1101,764.5C 1096.67,772.5 1092.33,780.5 1088,788.5C 1084.65,793.31 1080.98,793.644 1077,789.5C 1062.61,769.16 1056.45,746.493 1058.5,721.5C 1061.76,724.048 1064.93,726.714 1068,729.5C 1068.17,729.167 1068.33,728.833 1068.5,728.5C 1064.87,721.042 1061.03,713.709 1057,706.5C 1055.86,695.329 1054.19,684.329 1052,673.5C 1058.69,677.678 1065.02,682.345 1071,687.5C 1066.7,669.098 1056.2,655.265 1039.5,646C 1045.05,646.938 1050.05,649.272 1054.5,653C 1055.79,653.49 1057.13,653.657 1058.5,653.5C 1058.66,651.801 1058.49,650.134 1058,648.5C 1049.04,638.452 1038.87,629.952 1027.5,623C 1013.3,617.743 998.632,614.409 983.5,613C 988.855,603.975 996.355,597.475 1006,593.5C 1006.49,592.207 1006.66,590.873 1006.5,589.5C 999.435,590.129 992.435,591.296 985.5,593C 973.545,596.87 962.045,601.703 951,607.5C 949.893,607.415 948.893,607.081 948,606.5C 948.714,594.746 953.547,584.913 962.5,577C 911.973,576.586 863.64,586.586 817.5,607C 802.831,611.542 787.831,613.542 772.5,613C 767.056,612.093 761.723,610.76 756.5,609C 778.011,601.752 796.344,589.752 811.5,573C 801.8,576.563 791.8,579.563 781.5,582C 773.597,583.987 765.597,584.654 757.5,584C 764.531,575.436 771.198,566.602 777.5,557.5C 779.917,554.917 782.751,552.917 786,551.5C 786.49,550.207 786.657,548.873 786.5,547.5C 781.131,548.178 776.131,550.012 771.5,553C 750.599,568.359 728.266,581.525 704.5,592.5C 704.167,592.333 703.833,592.167 703.5,592C 709.54,586.424 712.707,579.591 713,571.5C 690.318,586.923 665.818,598.756 639.5,607C 626.645,611.131 613.645,614.797 600.5,618C 589.66,618.022 578.993,619.355 568.5,622C 559.167,626.333 549.833,630.667 540.5,635C 527.644,642.872 518.144,653.705 512,667.5C 511.146,669.607 511.812,670.941 514,671.5C 517.862,666.987 522.695,664.153 528.5,663C 525.75,668.246 523.584,673.746 522,679.5C 515.004,690.493 509.337,702.16 505,714.5C 503.957,717.757 503.457,721.09 503.5,724.5C 504.552,724.649 505.552,724.483 506.5,724C 509.667,720.833 512.833,717.667 516,714.5C 516.167,715.167 516.333,715.833 516.5,716.5C 513.942,722.616 511.109,728.616 508,734.5C 506.801,737.726 506.301,741.059 506.5,744.5C 508.39,744.703 509.89,744.037 511,742.5C 511.806,739.554 513.139,736.888 515,734.5C 514.737,739.5 514.07,744.5 513,749.5C 506.9,764.8 501.4,780.3 496.5,796C 493.044,797.123 490.21,796.29 488,793.5C 482.737,782.039 478.07,770.372 474,758.5C 470.159,764.178 466.826,770.178 464,776.5C 462.414,774.33 461.08,771.996 460,769.5C 453.288,721.451 459.288,675.118 478,630.5C 479.591,617.44 481.591,604.44 484,591.5C 485.128,601.885 487.295,612.051 490.5,622C 486.132,632.094 483.632,642.594 483,653.5C 488.052,641.79 494.719,631.123 503,621.5C 516.42,606.734 531.587,594.234 548.5,584C 533.049,585.809 519.882,592.309 509,603.5C 513.289,591.926 518.955,580.926 526,570.5C 534.109,558.623 542.942,547.29 552.5,536.5C 538.468,540.631 526.301,548.298 516,559.5C 519.196,546.081 523.862,533.081 530,520.5C 537.372,511.627 545.539,503.627 554.5,496.5C 554.56,497.043 554.893,497.376 555.5,497.5C 575.664,490.002 595.164,481.002 614,470.5C 612.667,475.833 611.333,481.167 610,486.5C 623.451,473.563 632.951,458.229 638.5,440.5C 637.734,445.82 637.568,451.154 638,456.5C 639.828,457.752 641.661,457.752 643.5,456.5C 643.369,457.239 643.536,457.906 644,458.5C 662.572,444.542 682.572,432.875 704,423.5C 704.5,423.667 705,423.833 705.5,424C 698.505,430.5 694.005,438.333 692,447.5C 696.202,443.633 700.035,439.467 703.5,435C 728.522,416.999 755.522,404.832 784.5,398.5 Z"/></g>
<g><path style="opacity:1" fill="#5d5d5d" d="M 784.5,398.5 C 755.522,404.832 728.522,416.999 703.5,435C 700.035,439.467 696.202,443.633 692,447.5C 694.005,438.333 698.505,430.5 705.5,424C 705,423.833 704.5,423.667 704,423.5C 682.572,432.875 662.572,444.542 644,458.5C 643.536,457.906 643.369,457.239 643.5,456.5C 666.725,431.039 695.391,414.539 729.5,407C 747.569,402.433 765.903,399.6 784.5,398.5 Z"/></g>
<g><path style="opacity:1" fill="#5d5d5d" d="M 832.5,400.5 C 854.293,402.654 874.96,408.654 894.5,418.5C 891.539,419.196 888.539,418.696 885.5,417C 863.736,413.369 842.069,413.702 820.5,418C 812.636,420.508 804.97,423.175 797.5,426C 805.972,417.761 815.972,412.094 827.5,409C 821.213,407.989 814.88,407.489 808.5,407.5C 801.814,407.847 795.147,408.014 788.5,408C 802.726,402.993 817.392,400.493 832.5,400.5 Z"/></g>
<g><path style="opacity:1" fill="#5c5c5c" d="M 743.5,431.5 C 748.844,431.334 754.177,431.501 759.5,432C 749.964,433.844 740.631,436.511 731.5,440C 719.535,445.485 707.869,451.151 696.5,457C 708.849,442.162 724.516,433.662 743.5,431.5 Z"/></g>
<g><path style="opacity:1" fill="#030101" d="M 770.5,437.5 C 772.857,437.337 775.19,437.503 777.5,438C 761.299,444.548 746.965,453.881 734.5,466C 738.773,465.184 743.106,464.184 747.5,463C 753.167,462.333 758.833,462.333 764.5,463C 745.838,471.272 727.172,479.439 708.5,487.5C 716.456,467.373 730.456,452.873 750.5,444C 757.119,441.293 763.786,439.126 770.5,437.5 Z"/></g>
<g><path style="opacity:1" fill="#5e5e5e" d="M 638.5,440.5 C 632.951,458.229 623.451,473.563 610,486.5C 611.333,481.167 612.667,475.833 614,470.5C 595.164,481.002 575.664,490.002 555.5,497.5C 554.893,497.376 554.56,497.043 554.5,496.5C 573.797,483.179 593.463,470.346 613.5,458C 621.955,451.88 630.121,445.38 638,438.5C 638.464,439.094 638.631,439.761 638.5,440.5 Z"/></g>
<g><path style="opacity:1" fill="#030101" d="M 900.5,445.5 C 918.103,443.008 933.77,447.175 947.5,458C 935.043,455.203 922.376,453.37 909.5,452.5C 900.378,452.691 891.545,454.358 883,457.5C 882.5,457.333 882,457.167 881.5,457C 886.965,451.606 893.299,447.773 900.5,445.5 Z"/></g>
<g><path style="opacity:1" fill="#5e5e5e" d="M 823.5,447.5 C 826.187,447.336 828.854,447.503 831.5,448C 820.211,454.646 810.544,463.146 802.5,473.5C 802.667,473.833 802.833,474.167 803,474.5C 809.208,470.969 815.708,468.469 822.5,467C 810.954,474.873 800.287,483.873 790.5,494C 789.207,494.49 787.873,494.657 786.5,494.5C 788.79,480.396 795.457,468.896 806.5,460C 787.396,464.883 769.729,473.05 753.5,484.5C 753.167,484.333 752.833,484.167 752.5,484C 761.416,470.537 773.416,460.871 788.5,455C 800.045,451.26 811.711,448.76 823.5,447.5 Z"/></g>
<g><path style="opacity:1" fill="#030101" d="M 855.5,452.5 C 856.239,452.369 856.906,452.536 857.5,453C 846.925,462.249 838.592,473.249 832.5,486C 837.545,483.833 842.879,482.166 848.5,481C 854.167,480.333 859.833,480.333 865.5,481C 841.493,489.746 820.326,502.912 802,520.5C 803.73,509.69 807.73,499.69 814,490.5C 819.411,482.418 825.578,474.918 832.5,468C 839.798,462.187 847.465,457.02 855.5,452.5 Z"/></g>
<g><path style="opacity:1" fill="#030101" d="M 684.5,470.5 C 684.168,484.634 679.335,497.3 670,508.5C 663.602,516.573 655.769,522.74 646.5,527C 643.558,528.124 640.558,528.458 637.5,528C 657.126,511.893 672.792,492.727 684.5,470.5 Z"/></g>
<g><path style="opacity:1" fill="#5c5c5c" d="M 872.5,481.5 C 876.514,481.334 880.514,481.501 884.5,482C 865.501,489.243 848.334,499.41 833,512.5C 833.374,509.725 834.374,507.058 836,504.5C 846.276,493.703 858.442,486.037 872.5,481.5 Z"/></g>
<g><path style="opacity:1" fill="#030101" d="M 912.5,482.5 C 919.841,482.334 927.174,482.5 934.5,483C 936.608,483.36 938.608,484.027 940.5,485C 914.814,489.764 891.314,499.598 870,514.5C 879.032,497.212 893.198,486.546 912.5,482.5 Z"/></g>
<g><path style="opacity:1" fill="#5d5c5c" d="M 614.5,492.5 C 616.842,492.775 616.842,493.608 614.5,495C 593.721,512.145 573.221,529.645 553,547.5C 568.334,523.552 588.834,505.219 614.5,492.5 Z"/></g>
<g><path style="opacity:1" fill="#5d5d5d" d="M 940.5,495.5 C 950.506,495.334 960.506,495.5 970.5,496C 948.152,501.871 925.819,507.871 903.5,514C 892.026,517.593 881.026,521.926 870.5,527C 882.783,513.735 897.783,505.069 915.5,501C 923.923,498.974 932.256,497.141 940.5,495.5 Z"/></g>
<g><path style="opacity:1" fill="#030101" d="M 993.5,506.5 C 999.865,505.901 1005.86,507.068 1011.5,510C 1004.27,510.31 997.601,512.31 991.5,516C 997.274,517.524 1002.94,519.191 1008.5,521C 989.437,523.258 970.437,525.591 951.5,528C 963.773,517.364 977.773,510.197 993.5,506.5 Z"/></g>
<g><path style="opacity:1" fill="#030101" d="M 616.5,510.5 C 617.139,511.097 617.472,511.93 617.5,513C 615.553,524.955 613.053,536.788 610,548.5C 607.578,544.495 605.911,540.162 605,535.5C 598,543.167 591,550.833 584,558.5C 586.112,546.276 591.445,535.609 600,526.5C 605.395,520.936 610.895,515.603 616.5,510.5 Z"/></g>
<g><path style="opacity:1" fill="#5e5e5e" d="M 770.5,514.5 C 771.043,514.56 771.376,514.893 771.5,515.5C 762.931,532.241 750.931,546.074 735.5,557C 729.163,560.847 722.496,563.514 715.5,565C 733.729,547.932 752.063,531.099 770.5,514.5 Z"/></g>
<g><path style="opacity:1" fill="#030202" d="M 1028.5,522.5 C 1031.19,522.336 1033.85,522.503 1036.5,523C 1025.1,530.398 1014.27,538.565 1004,547.5C 1006.9,534.102 1015.06,525.769 1028.5,522.5 Z"/></g>
<g><path style="opacity:1" fill="#5b5b5b" d="M 734.5,529.5 C 735.873,529.343 737.207,529.51 738.5,530C 721.915,537.96 705.581,546.46 689.5,555.5C 689.167,555.167 688.833,554.833 688.5,554.5C 693.383,548.729 699.049,543.895 705.5,540C 714.878,535.377 724.545,531.877 734.5,529.5 Z"/></g>
<g><path style="opacity:1" fill="#040202" d="M 681.5,539.5 C 682.239,539.369 682.906,539.536 683.5,540C 672.805,560.686 656.138,574.019 633.5,580C 630.5,580.667 627.5,580.667 624.5,580C 646.182,570.132 665.182,556.632 681.5,539.5 Z"/></g>
<g><path style="opacity:1" fill="#5d5d5d" d="M 662.5,540.5 C 663.525,540.897 663.692,541.563 663,542.5C 648.025,561.763 628.525,574.263 604.5,580C 599.187,580.999 593.854,581.332 588.5,581C 597.254,578.639 605.588,575.306 613.5,571C 608.204,571.379 602.871,571.879 597.5,572.5C 595.5,572.333 593.5,572.167 591.5,572C 607.558,567.535 623.225,561.868 638.5,555C 647.062,550.895 655.062,546.062 662.5,540.5 Z"/></g>
<g><path style="opacity:1" fill="#030101" d="M 888.5,550.5 C 897.173,550.334 905.84,550.5 914.5,551C 917.043,551.14 919.377,551.806 921.5,553C 897.605,557.366 875.105,565.533 854,577.5C 856.511,570.629 861.011,565.129 867.5,561C 874.035,556.399 881.035,552.899 888.5,550.5 Z"/></g>
<g><path style="opacity:1" fill="#030202" d="M 1021.5,560.5 C 1034.78,559.149 1046.78,562.316 1057.5,570C 1053.35,569.762 1049.19,569.262 1045,568.5C 1041.01,568.697 1037.18,569.531 1033.5,571C 1045.88,576.372 1054.38,585.205 1059,597.5C 1041.51,582.339 1021.34,572.339 998.5,567.5C 1006.04,564.371 1013.71,562.037 1021.5,560.5 Z"/></g>
<g><path style="opacity:1" fill="#5d5c5c" d="M 508.5,624.5 C 509.043,624.56 509.376,624.893 509.5,625.5C 500.588,638.327 494.088,652.327 490,667.5C 488.535,649.774 494.702,635.44 508.5,624.5 Z"/></g>
<g><path style="opacity:1" fill="#f0ac87" d="M 1073.5,862.5 C 1068.53,858.009 1062.86,854.509 1056.5,852C 1045.26,848.083 1033.92,844.916 1022.5,842.5C 1018.47,818.609 1006.47,799.775 986.5,786C 973.009,778.918 958.676,776.251 943.5,778C 914.246,780.096 886.246,787.096 859.5,799C 850.116,802.745 846.116,809.745 847.5,820C 846.321,829.489 850.321,833.489 859.5,832C 889.725,819.941 921.058,814.608 953.5,816C 975.801,818.809 995.468,827.309 1012.5,841.5C 967.298,836.607 922.298,838.107 877.5,846C 857.825,849.249 841.325,858.083 828,872.5C 820.635,882.955 817.468,894.622 818.5,907.5C 799.109,898.228 779.775,898.228 760.5,907.5C 761.951,885.565 753.285,869.065 734.5,858C 718.168,849.583 700.835,844.583 682.5,843C 640.825,837.188 599.158,837.021 557.5,842.5C 585.037,819.528 616.704,811.028 652.5,817C 671.908,820.269 690.908,825.269 709.5,832C 719.915,834.423 724.582,830.256 723.5,819.5C 723.302,813.537 721.635,808.037 718.5,803C 681.59,784.916 642.59,776.916 601.5,779C 574.366,788.803 556.866,807.636 549,835.5C 548.502,838.482 548.335,841.482 548.5,844.5C 535.405,846.365 523.071,850.532 511.5,857C 502.835,862.824 498.169,870.991 497.5,881.5C 496.167,881.5 494.833,881.5 493.5,881.5C 494.034,848.329 499.534,815.996 510,784.5C 514.396,773.977 518.396,763.311 522,752.5C 524.712,733.915 526.712,715.248 528,696.5C 531.353,673.626 541.187,654.126 557.5,638C 567.072,631.81 577.572,628.643 589,628.5C 643.798,632.497 698.632,635.997 753.5,639C 781.833,639.667 810.167,639.667 838.5,639C 882.13,635.781 925.796,633.281 969.5,631.5C 984.136,630.575 998.469,632.075 1012.5,636C 1024,640.833 1032.17,649 1037,660.5C 1041.56,671.415 1044.56,682.748 1046,694.5C 1046.81,712.209 1048.14,729.875 1050,747.5C 1054.67,766.828 1059.33,786.162 1064,805.5C 1068.03,824.366 1071.2,843.366 1073.5,862.5 Z"/></g>
<g><path style="opacity:1" fill="#1a1b1b" d="M 557.5,842.5 C 554.454,843.062 551.454,843.729 548.5,844.5C 548.335,841.482 548.502,838.482 549,835.5C 556.866,807.636 574.366,788.803 601.5,779C 642.59,776.916 681.59,784.916 718.5,803C 721.635,808.037 723.302,813.537 723.5,819.5C 724.582,830.256 719.915,834.423 709.5,832C 690.908,825.269 671.908,820.269 652.5,817C 616.704,811.028 585.037,819.528 557.5,842.5 Z"/></g>
<g><path style="opacity:1" fill="#1a1c1b" d="M 1022.5,842.5 C 1019.06,842.747 1015.73,842.414 1012.5,841.5C 995.468,827.309 975.801,818.809 953.5,816C 921.058,814.608 889.725,819.941 859.5,832C 850.321,833.489 846.321,829.489 847.5,820C 846.116,809.745 850.116,802.745 859.5,799C 886.246,787.096 914.246,780.096 943.5,778C 958.676,776.251 973.009,778.918 986.5,786C 1006.47,799.775 1018.47,818.609 1022.5,842.5 Z"/></g>
<g><path style="opacity:1" fill="#fefbfa" d="M 760.5,907.5 C 760.344,917.922 759.344,928.255 757.5,938.5C 754.916,952.334 750.083,965.334 743,977.5C 734.482,988.678 723.648,996.845 710.5,1002C 679.635,1014.72 647.468,1020.55 614,1019.5C 587.913,1019.51 562.413,1015.68 537.5,1008C 525.203,1003.03 517.036,994.201 513,981.5C 504.957,957.454 499.791,932.787 497.5,907.5C 497.813,903.958 497.479,900.625 496.5,897.5C 496.5,896.5 496.5,895.5 496.5,894.5C 490.167,894.5 483.833,894.5 477.5,894.5C 477.5,893.167 477.5,891.833 477.5,890.5C 484.167,890.5 490.833,890.5 497.5,890.5C 497.5,887.5 497.5,884.5 497.5,881.5C 498.169,870.991 502.835,862.824 511.5,857C 523.071,850.532 535.405,846.365 548.5,844.5C 551.454,843.729 554.454,843.062 557.5,842.5C 599.158,837.021 640.825,837.188 682.5,843C 700.835,844.583 718.168,849.583 734.5,858C 753.285,869.065 761.951,885.565 760.5,907.5 Z"/></g>
<g><path style="opacity:1" fill="#fdfbfa" d="M 1012.5,841.5 C 1015.73,842.414 1019.06,842.747 1022.5,842.5C 1033.92,844.916 1045.26,848.083 1056.5,852C 1062.86,854.509 1068.53,858.009 1073.5,862.5C 1077.55,867.592 1080.21,873.258 1081.5,879.5C 1081.5,882.833 1081.5,886.167 1081.5,889.5C 1088.17,889.5 1094.83,889.5 1101.5,889.5C 1101.5,891.167 1101.5,892.833 1101.5,894.5C 1094.75,893.877 1088.41,894.544 1082.5,896.5C 1081.52,899.287 1081.19,902.287 1081.5,905.5C 1080.64,919.263 1078.98,932.93 1076.5,946.5C 1073.3,960.3 1069.3,973.967 1064.5,987.5C 1061.04,994.552 1056.04,1000.39 1049.5,1005C 1031.46,1011.84 1012.8,1016.18 993.5,1018C 954.659,1022.49 916.659,1018.82 879.5,1007C 869.676,1002.26 860.01,997.255 850.5,992C 845,987.833 840.167,983 836,977.5C 831.309,969.127 827.476,960.46 824.5,951.5C 823.809,946.74 822.809,942.074 821.5,937.5C 819.717,927.584 818.717,917.584 818.5,907.5C 817.468,894.622 820.635,882.955 828,872.5C 841.325,858.083 857.825,849.249 877.5,846C 922.298,838.107 967.298,836.607 1012.5,841.5 Z"/></g>
<g><path style="opacity:1" fill="#f0ac87" d="M 588.5,846.5 C 623.027,845.147 657.36,846.98 691.5,852C 709.75,853.635 726.084,859.968 740.5,871C 753.002,884.837 757.169,901.004 753,919.5C 751.469,939.969 745.469,958.969 735,976.5C 731.466,980.369 727.633,983.869 723.5,987C 695.408,1003.16 665.075,1011.49 632.5,1012C 602.907,1014.46 574.241,1010.46 546.5,1000C 530.121,992.284 520.621,979.451 518,961.5C 511.684,933.77 509.684,905.77 512,877.5C 518.004,867.506 526.504,860.339 537.5,856C 554.205,850.627 571.205,847.46 588.5,846.5 Z"/></g>
<g><path style="opacity:1" fill="#f0ac87" d="M 826.5,895.5 C 826.337,897.857 826.503,900.19 827,902.5C 827.962,898.023 828.795,893.523 829.5,889C 829.486,887.615 829.152,886.449 828.5,885.5C 837.912,869.269 851.912,859.102 870.5,855C 899.172,848.916 928.172,846.083 957.5,846.5C 982.45,845.687 1007.12,847.853 1031.5,853C 1064.8,861.071 1076.97,881.904 1068,915.5C 1066.45,934.073 1063.45,952.406 1059,970.5C 1054.06,983.772 1045.23,993.605 1032.5,1000C 999.08,1011.83 964.747,1015.49 929.5,1011C 900.087,1008.64 873.42,998.976 849.5,982C 841.921,975.017 836.755,966.517 834,956.5C 827.158,936.527 824.658,916.193 826.5,895.5 Z"/></g>
<g><path style="opacity:1" fill="#cb6e56" d="M 899.5,865.5 C 916.799,864.885 933.799,866.718 950.5,871C 928.829,867.382 907.162,867.715 885.5,872C 883.129,872.735 880.795,873.568 878.5,874.5C 877.304,874.154 877.304,873.654 878.5,873C 885.162,869.171 892.162,866.671 899.5,865.5 Z"/></g>
<g><path style="opacity:1" fill="#cd7259" d="M 647.5,865.5 C 658.293,865.021 668.959,865.854 679.5,868C 684.122,869.427 688.455,871.427 692.5,874C 684.255,872.528 675.922,871.195 667.5,870C 653.134,869.423 638.801,869.423 624.5,870C 632.201,867.978 639.867,866.478 647.5,865.5 Z"/></g>
<g><path style="opacity:1" fill="#060504" d="M 898.5,875.5 C 918.199,874.57 937.532,876.736 956.5,882C 976.627,889.128 990.46,902.628 998,922.5C 998.74,925.176 999.073,927.842 999,930.5C 990.281,940.19 979.614,946.523 967,949.5C 956.56,947.628 946.06,946.128 935.5,945C 910.85,943.836 886.184,943.17 861.5,943C 852.238,937.788 843.405,931.954 835,925.5C 835.383,919.699 837.383,914.366 841,909.5C 855.243,889.797 874.409,878.463 898.5,875.5 Z"/></g>
<g><path style="opacity:1" fill="#070504" d="M 641.5,875.5 C 657.733,874.573 673.733,876.073 689.5,880C 710.631,886.798 725.798,900.298 735,920.5C 735.706,922.971 735.373,925.305 734,927.5C 726.5,932.333 719,937.167 711.5,942C 709.212,942.822 706.878,943.489 704.5,944C 669.783,941.885 635.283,943.718 601,949.5C 589.824,946.072 580.158,940.072 572,931.5C 572.675,916.651 578.842,904.484 590.5,895C 605.841,883.99 622.841,877.49 641.5,875.5 Z"/></g>
<g><path style="opacity:1" fill="#353535" d="M 1081.5,879.5 C 1089.84,879.334 1098.17,879.5 1106.5,880C 1108.26,881.008 1109.43,882.508 1110,884.5C 1110.18,887.365 1110.68,890.031 1111.5,892.5C 1111.45,896.927 1110.45,901.093 1108.5,905C 1107.26,905.791 1105.92,906.291 1104.5,906.5C 1097.02,905.508 1089.35,905.175 1081.5,905.5C 1081.19,902.287 1081.52,899.287 1082.5,896.5C 1089.25,897.123 1095.59,896.456 1101.5,894.5C 1101.5,892.833 1101.5,891.167 1101.5,889.5C 1094.83,889.5 1088.17,889.5 1081.5,889.5C 1081.5,886.167 1081.5,882.833 1081.5,879.5 Z"/></g>
<g><path style="opacity:1" fill="#333333" d="M 493.5,881.5 C 494.833,881.5 496.167,881.5 497.5,881.5C 497.5,884.5 497.5,887.5 497.5,890.5C 490.833,890.5 484.167,890.5 477.5,890.5C 477.5,891.833 477.5,893.167 477.5,894.5C 477.414,895.496 477.748,896.329 478.5,897C 484.491,897.499 490.491,897.666 496.5,897.5C 496.5,900.5 496.5,903.5 496.5,906.5C 495.167,906.5 493.833,906.5 492.5,906.5C 485.442,906.797 478.442,906.464 471.5,905.5C 468.189,898.763 467.689,891.763 470,884.5C 470.5,883.333 471.333,882.5 472.5,882C 479.492,881.5 486.492,881.334 493.5,881.5 Z"/></g>
<g><path style="opacity:1" fill="#eca985" d="M 467.5,919.5 C 467.565,919.938 467.399,920.272 467,920.5C 460.25,910.405 450.916,904.405 439,902.5C 437.106,902.58 435.273,902.913 433.5,903.5C 432.289,904.274 432.289,905.107 433.5,906C 436.312,907.328 438.978,908.828 441.5,910.5C 437.33,915.497 434.163,921.164 432,927.5C 428.42,957.524 435.587,984.524 453.5,1008.5C 458.037,1018.37 465.037,1026.04 474.5,1031.5C 475.657,1040.32 475.824,1049.32 475,1058.5C 471.053,1056.22 467.387,1053.55 464,1050.5C 427.843,1010.23 414.176,963.23 423,909.5C 428.371,889.729 440.204,883.895 458.5,892C 460.36,893.86 462.194,895.694 464,897.5C 465.308,904.827 466.475,912.16 467.5,919.5 Z"/></g>
<g><path style="opacity:1" fill="#eca985" d="M 1095.5,1031.5 C 1104.96,1026.04 1111.96,1018.37 1116.5,1008.5C 1134.89,984.265 1142.06,956.932 1138,926.5C 1136.07,920.281 1132.9,914.948 1128.5,910.5C 1131.02,908.828 1133.69,907.328 1136.5,906C 1137.45,905.282 1137.62,904.449 1137,903.5C 1122.11,902.284 1110.77,908.284 1103,921.5C 1102.31,922.738 1101.81,922.738 1101.5,921.5C 1101.86,916.344 1102.86,911.344 1104.5,906.5C 1105.92,906.291 1107.26,905.791 1108.5,905C 1110.45,901.093 1111.45,896.927 1111.5,892.5C 1126.03,883.727 1137.2,887.06 1145,902.5C 1157.58,960.004 1143.75,1010.17 1103.5,1053C 1101.3,1054.7 1098.97,1056.2 1096.5,1057.5C 1095.5,1048.86 1095.17,1040.19 1095.5,1031.5 Z"/></g>
<g><path style="opacity:1" fill="#141414" d="M 915.5,888.5 C 925.456,888.724 935.122,890.057 944.5,892.5C 944.062,892.435 943.728,892.601 943.5,893C 950.108,904.496 949.941,915.996 943,927.5C 940.331,931 937.498,934.333 934.5,937.5C 919.853,936.464 905.186,935.797 890.5,935.5C 878.638,922.757 876.305,908.423 883.5,892.5C 888.167,891.5 892.833,890.5 897.5,889.5C 895.891,894.179 896.558,898.512 899.5,902.5C 898.069,902.881 897.236,903.881 897,905.5C 895.878,917.382 901.212,924.382 913,926.5C 928.668,923.501 933.668,914.501 928,899.5C 925.386,895.699 921.886,893.366 917.5,892.5C 916.833,891.167 916.167,889.833 915.5,888.5 Z"/></g>
<g><path style="opacity:1" fill="#141413" d="M 640.5,889.5 C 638.897,894.215 639.564,898.549 642.5,902.5C 641.25,902.577 640.417,903.244 640,904.5C 638.393,916.892 643.727,924.225 656,926.5C 668.301,924.866 673.967,917.866 673,905.5C 671.351,898.686 667.185,894.352 660.5,892.5C 659.833,891.5 659.167,890.5 658.5,889.5C 668.545,889.129 678.212,890.462 687.5,893.5C 693.651,908.696 690.985,922.529 679.5,935C 685.491,935.499 691.491,935.666 697.5,935.5C 675.624,936.031 653.624,937.031 631.5,938.5C 632.609,937.71 633.942,937.21 635.5,937C 624.613,927.679 620.446,915.846 623,901.5C 624.18,898.479 625.346,895.479 626.5,892.5C 630.958,891.085 635.625,890.085 640.5,889.5 Z"/></g>
<g><path style="opacity:1" fill="#f8f8f8" d="M 640.5,889.5 C 646.5,889.5 652.5,889.5 658.5,889.5C 659.167,890.5 659.833,891.5 660.5,892.5C 660.207,902.292 655.207,906.459 645.5,905C 644.429,904.148 643.429,903.315 642.5,902.5C 639.564,898.549 638.897,894.215 640.5,889.5 Z"/></g>
<g><path style="opacity:1" fill="#79372d" d="M 828.5,885.5 C 829.152,886.449 829.486,887.615 829.5,889C 828.795,893.523 827.962,898.023 827,902.5C 826.503,900.19 826.337,897.857 826.5,895.5C 826.547,892.031 827.213,888.698 828.5,885.5 Z"/></g>
<g><path style="opacity:1" fill="#f3f3f3" d="M 915.5,888.5 C 916.167,889.833 916.833,891.167 917.5,892.5C 916.314,904.666 910.314,907.999 899.5,902.5C 896.558,898.512 895.891,894.179 897.5,889.5C 903.477,888.835 909.477,888.502 915.5,888.5 Z"/></g>
<g><path style="opacity:1" fill="#010101" d="M 660.5,892.5 C 667.185,894.352 671.351,898.686 673,905.5C 673.967,917.866 668.301,924.866 656,926.5C 643.727,924.225 638.393,916.892 640,904.5C 640.417,903.244 641.25,902.577 642.5,902.5C 643.429,903.315 644.429,904.148 645.5,905C 655.207,906.459 660.207,902.292 660.5,892.5 Z"/></g>
<g><path style="opacity:1" fill="#010101" d="M 917.5,892.5 C 921.886,893.366 925.386,895.699 928,899.5C 933.668,914.501 928.668,923.501 913,926.5C 901.212,924.382 895.878,917.382 897,905.5C 897.236,903.881 898.069,902.881 899.5,902.5C 910.314,907.999 916.314,904.666 917.5,892.5 Z"/></g>
<g><path style="opacity:1" fill="#fafafa" d="M 626.5,892.5 C 625.346,895.479 624.18,898.479 623,901.5C 620.446,915.846 624.613,927.679 635.5,937C 633.942,937.21 632.609,937.71 631.5,938.5C 621.863,939.747 612.196,940.247 602.5,940C 595.118,936.618 589.785,931.285 586.5,924C 591.784,910.716 601.118,901.382 614.5,896C 618.43,894.523 622.43,893.356 626.5,892.5 Z"/></g>
<g><path style="opacity:1" fill="#fafafa" d="M 883.5,892.5 C 876.305,908.423 878.638,922.757 890.5,935.5C 882.493,935.666 874.493,935.5 866.5,935C 860.275,932.439 854.275,929.439 848.5,926C 847.106,925.044 846.439,923.711 846.5,922C 850.72,910.112 858.72,901.779 870.5,897C 874.76,895.191 879.094,893.691 883.5,892.5 Z"/></g>
<g><path style="opacity:1" fill="#fafafa" d="M 944.5,892.5 C 963.327,896.174 976.661,906.674 984.5,924C 979.498,934.496 971.164,939.996 959.5,940.5C 951.195,939.253 942.861,938.253 934.5,937.5C 937.498,934.333 940.331,931 943,927.5C 949.941,915.996 950.108,904.496 943.5,893C 943.728,892.601 944.062,892.435 944.5,892.5 Z"/></g>
<g><path style="opacity:1" fill="#909090" d="M 477.5,894.5 C 483.833,894.5 490.167,894.5 496.5,894.5C 496.5,895.5 496.5,896.5 496.5,897.5C 490.491,897.666 484.491,897.499 478.5,897C 477.748,896.329 477.414,895.496 477.5,894.5 Z"/></g>
<g><path style="opacity:1" fill="#fafafa" d="M 687.5,893.5 C 705.067,896.913 717.4,906.746 724.5,923C 724.355,923.772 724.022,924.439 723.5,925C 718.167,928 712.833,931 707.5,934C 704.274,935.199 700.941,935.699 697.5,935.5C 691.491,935.666 685.491,935.499 679.5,935C 690.985,922.529 693.651,908.696 687.5,893.5 Z"/></g>
<g><path style="opacity:1" fill="#858585" d="M 1101.5,894.5 C 1095.59,896.456 1089.25,897.123 1082.5,896.5C 1088.41,894.544 1094.75,893.877 1101.5,894.5 Z"/></g>
<g><path style="opacity:1" fill="#383736" d="M 818.5,907.5 C 818.717,917.584 819.717,927.584 821.5,937.5C 819.421,937.029 817.421,936.363 815.5,935.5C 795.722,929.366 776.388,930.366 757.5,938.5C 759.344,928.255 760.344,917.922 760.5,907.5C 779.775,898.228 799.109,898.228 818.5,907.5 Z"/></g>
<g><path style="opacity:1" fill="#69261d" d="M 467.5,919.5 C 469.282,927.966 470.616,936.633 471.5,945.5C 468.775,941.732 466.275,937.732 464,933.5C 450.884,949.126 447.884,966.46 455,985.5C 444.407,971.566 442.74,956.566 450,940.5C 452.74,935.936 455.24,931.269 457.5,926.5C 453.174,920.174 447.841,914.841 441.5,910.5C 438.978,908.828 436.312,907.328 433.5,906C 432.289,905.107 432.289,904.274 433.5,903.5C 435.273,902.913 437.106,902.58 439,902.5C 450.916,904.405 460.25,910.405 467,920.5C 467.399,920.272 467.565,919.938 467.5,919.5 Z"/></g>
<g><path style="opacity:1" fill="#69261d" d="M 1128.5,910.5 C 1122.36,914.804 1117.03,919.971 1112.5,926C 1117.68,933.855 1121.51,942.355 1124,951.5C 1126.03,963.708 1123.36,974.708 1116,984.5C 1122.33,966.466 1119.49,949.966 1107.5,935C 1106.83,934.333 1106.17,934.333 1105.5,935C 1102.6,939.981 1099.6,944.815 1096.5,949.5C 1097.32,939.913 1098.99,930.58 1101.5,921.5C 1101.81,922.738 1102.31,922.738 1103,921.5C 1110.77,908.284 1122.11,902.284 1137,903.5C 1137.62,904.449 1137.45,905.282 1136.5,906C 1133.69,907.328 1131.02,908.828 1128.5,910.5 Z"/></g>
<g><path style="opacity:1" fill="#f0ac87" d="M 497.5,907.5 C 499.791,932.787 504.957,957.454 513,981.5C 517.036,994.201 525.203,1003.03 537.5,1008C 562.413,1015.68 587.913,1019.51 614,1019.5C 647.468,1020.55 679.635,1014.72 710.5,1002C 723.648,996.845 734.482,988.678 743,977.5C 750.083,965.334 754.916,952.334 757.5,938.5C 776.388,930.366 795.722,929.366 815.5,935.5C 815.208,965.971 820.708,995.304 832,1023.5C 833.444,1025.16 835.278,1025.82 837.5,1025.5C 834.735,1012.51 831.902,999.511 829,986.5C 826.925,974.897 825.425,963.231 824.5,951.5C 827.476,960.46 831.309,969.127 836,977.5C 840.167,983 845,987.833 850.5,992C 860.01,997.255 869.676,1002.26 879.5,1007C 916.659,1018.82 954.659,1022.49 993.5,1018C 1012.8,1016.18 1031.46,1011.84 1049.5,1005C 1056.04,1000.39 1061.04,994.552 1064.5,987.5C 1054.7,1024.71 1045.53,1062.05 1037,1099.5C 1041,1092.83 1045,1086.17 1049,1079.5C 1048.08,1085.95 1046.92,1092.45 1045.5,1099C 1045.32,1101.36 1045.99,1101.86 1047.5,1100.5C 1052.53,1097.47 1056.53,1093.47 1059.5,1088.5C 1059.5,1091.83 1059.5,1095.17 1059.5,1098.5C 1054.8,1130.64 1046.97,1161.97 1036,1192.5C 1019.77,1228.74 996.603,1259.91 966.5,1286C 937.769,1311.54 906.102,1332.88 871.5,1350C 790.755,1379.99 715.755,1369.65 646.5,1319C 609.709,1293.88 578.542,1263.04 553,1226.5C 539.796,1205.75 530.13,1183.42 524,1159.5C 519.381,1139.57 515.215,1119.57 511.5,1099.5C 511.187,1095.96 511.521,1092.62 512.5,1089.5C 514.116,1094.06 517.116,1097.39 521.5,1099.5C 523.092,1101.69 524.426,1101.69 525.5,1099.5C 523.347,1092.23 521.847,1084.9 521,1077.5C 524.747,1084.66 528.747,1091.66 533,1098.5C 521.804,1046.51 508.637,995.177 493.5,944.5C 493.5,936.5 493.5,928.5 493.5,920.5C 493.5,916.167 493.5,911.833 493.5,907.5C 494.833,907.5 496.167,907.5 497.5,907.5 Z"/></g>
<g><path style="opacity:1" fill="#9e7c69" d="M 496.5,897.5 C 497.479,900.625 497.813,903.958 497.5,907.5C 496.167,907.5 494.833,907.5 493.5,907.5C 493.5,911.833 493.5,916.167 493.5,920.5C 492.514,916.03 492.181,911.363 492.5,906.5C 493.833,906.5 495.167,906.5 496.5,906.5C 496.5,903.5 496.5,900.5 496.5,897.5 Z"/></g>
<g><path style="opacity:1" fill="#f9f9f9" d="M 815.5,920.5 C 815.53,921.497 815.03,922.164 814,922.5C 796.658,915.57 779.492,915.904 762.5,923.5C 762.589,920.061 763.922,917.228 766.5,915C 769.674,913.275 773.007,911.942 776.5,911C 784.167,910.333 791.833,910.333 799.5,911C 804.383,912.072 809.05,913.739 813.5,916C 815.037,917.11 815.703,918.61 815.5,920.5 Z"/></g>
<g><path style="opacity:1" fill="#cf785e" d="M 1128.5,910.5 C 1132.9,914.948 1136.07,920.281 1138,926.5C 1142.06,956.932 1134.89,984.265 1116.5,1008.5C 1110.46,1014.7 1103.96,1020.37 1097,1025.5C 1096.5,1010.84 1096.33,996.17 1096.5,981.5C 1096.5,970.833 1096.5,960.167 1096.5,949.5C 1099.6,944.815 1102.6,939.981 1105.5,935C 1106.17,934.333 1106.83,934.333 1107.5,935C 1119.49,949.966 1122.33,966.466 1116,984.5C 1123.36,974.708 1126.03,963.708 1124,951.5C 1121.51,942.355 1117.68,933.855 1112.5,926C 1117.03,919.971 1122.36,914.804 1128.5,910.5 Z"/></g>
<g><path style="opacity:1" fill="#d0785e" d="M 441.5,910.5 C 447.841,914.841 453.174,920.174 457.5,926.5C 455.24,931.269 452.74,935.936 450,940.5C 442.74,956.566 444.407,971.566 455,985.5C 447.884,966.46 450.884,949.126 464,933.5C 466.275,937.732 468.775,941.732 471.5,945.5C 472.172,949.188 473.005,952.855 474,956.5C 474.5,979.498 474.667,1002.5 474.5,1025.5C 471.91,1024.87 469.577,1023.7 467.5,1022C 462.917,1017.25 458.251,1012.75 453.5,1008.5C 435.587,984.524 428.42,957.524 432,927.5C 434.163,921.164 437.33,915.497 441.5,910.5 Z"/></g>
<g><path style="opacity:1" fill="#969696" d="M 815.5,920.5 C 816.451,921.919 816.784,923.585 816.5,925.5C 802.653,922.637 788.653,921.803 774.5,923C 771.219,923.455 768.052,924.289 765,925.5C 763.624,925.316 762.791,924.649 762.5,923.5C 779.492,915.904 796.658,915.57 814,922.5C 815.03,922.164 815.53,921.497 815.5,920.5 Z"/></g>
<g><path style="opacity:1" fill="#6c281f" d="M 815.5,935.5 C 817.421,936.363 819.421,937.029 821.5,937.5C 822.809,942.074 823.809,946.74 824.5,951.5C 825.425,963.231 826.925,974.897 829,986.5C 831.902,999.511 834.735,1012.51 837.5,1025.5C 835.278,1025.82 833.444,1025.16 832,1023.5C 820.708,995.304 815.208,965.971 815.5,935.5 Z"/></g>
<g><path style="opacity:1" fill="#d27b61" d="M 732.5,941.5 C 733.043,941.56 733.376,941.893 733.5,942.5C 730.06,949.045 726.894,955.712 724,962.5C 715.208,975.282 703.041,982.116 687.5,983C 705.856,972.811 720.856,958.978 732.5,941.5 Z"/></g>
<g><path style="opacity:1" fill="#d27b61" d="M 837.5,942.5 C 850.118,958.993 865.452,972.493 883.5,983C 868.102,982.387 855.936,975.887 847,963.5C 843.731,956.518 840.564,949.518 837.5,942.5 Z"/></g>
<g><path style="opacity:1" fill="#1e1e1d" d="M 1076.5,946.5 C 1077.83,989.85 1077.33,1033.18 1075,1076.5C 1074.65,1079.58 1073.99,1082.58 1073,1085.5C 1068.12,1088.71 1064.29,1092.88 1061.5,1098C 1060.91,1098.46 1060.24,1098.63 1059.5,1098.5C 1059.5,1095.17 1059.5,1091.83 1059.5,1088.5C 1063.23,1074.01 1065.73,1059.35 1067,1044.5C 1060.2,1063.08 1053.7,1081.74 1047.5,1100.5C 1045.99,1101.86 1045.32,1101.36 1045.5,1099C 1046.92,1092.45 1048.08,1085.95 1049,1079.5C 1045,1086.17 1041,1092.83 1037,1099.5C 1045.53,1062.05 1054.7,1024.71 1064.5,987.5C 1069.3,973.967 1073.3,960.3 1076.5,946.5 Z"/></g>
<g><path style="opacity:1" fill="#1d1d1d" d="M 493.5,944.5 C 508.637,995.177 521.804,1046.51 533,1098.5C 528.747,1091.66 524.747,1084.66 521,1077.5C 521.847,1084.9 523.347,1092.23 525.5,1099.5C 524.426,1101.69 523.092,1101.69 521.5,1099.5C 522.097,1099.26 522.43,1098.76 522.5,1098C 516.333,1080.83 510.167,1063.67 504,1046.5C 504.8,1060.01 506.967,1073.34 510.5,1086.5C 510.942,1087.74 511.609,1088.74 512.5,1089.5C 511.521,1092.62 511.187,1095.96 511.5,1099.5C 510.883,1099.61 510.383,1099.94 510,1100.5C 507.817,1094.46 503.984,1089.8 498.5,1086.5C 497.573,1084.89 496.739,1083.22 496,1081.5C 494.92,1068.19 494.254,1054.86 494,1041.5C 493.5,1009.17 493.333,976.835 493.5,944.5 Z"/></g>
<g><path style="opacity:1" fill="#732f24" d="M 453.5,1008.5 C 458.251,1012.75 462.917,1017.25 467.5,1022C 469.577,1023.7 471.91,1024.87 474.5,1025.5C 474.5,1027.5 474.5,1029.5 474.5,1031.5C 465.037,1026.04 458.037,1018.37 453.5,1008.5 Z"/></g>
<g><path style="opacity:1" fill="#6c3025" d="M 1096.5,981.5 C 1096.33,996.17 1096.5,1010.84 1097,1025.5C 1103.96,1020.37 1110.46,1014.7 1116.5,1008.5C 1111.96,1018.37 1104.96,1026.04 1095.5,1031.5C 1095.17,1014.66 1095.5,997.992 1096.5,981.5 Z"/></g>
<g><path style="opacity:1" fill="#050404" d="M 521.5,1099.5 C 517.116,1097.39 514.116,1094.06 512.5,1089.5C 511.609,1088.74 510.942,1087.74 510.5,1086.5C 506.967,1073.34 504.8,1060.01 504,1046.5C 510.167,1063.67 516.333,1080.83 522.5,1098C 522.43,1098.76 522.097,1099.26 521.5,1099.5 Z"/></g>
<g><path style="opacity:1" fill="#040403" d="M 1059.5,1088.5 C 1056.53,1093.47 1052.53,1097.47 1047.5,1100.5C 1053.7,1081.74 1060.2,1063.08 1067,1044.5C 1065.73,1059.35 1063.23,1074.01 1059.5,1088.5 Z"/></g>
<g><path style="opacity:1" fill="#6b271e" d="M 753.5,1089.5 C 757.709,1094.22 761.209,1099.55 764,1105.5C 773.514,1118.58 785.347,1121.08 799.5,1113C 805.462,1105.57 810.795,1097.74 815.5,1089.5C 818.779,1088.51 822.112,1088.34 825.5,1089C 829.74,1093.75 834.407,1097.91 839.5,1101.5C 839.611,1102.12 839.944,1102.62 840.5,1103C 846.361,1103.66 850.361,1101.16 852.5,1095.5C 854.43,1090.35 854.93,1085.01 854,1079.5C 852.369,1073.61 850.535,1067.77 848.5,1062C 848.833,1061.5 849.167,1061 849.5,1060.5C 859.575,1069.22 863.408,1080.22 861,1093.5C 858.761,1103.03 853.094,1109.36 844,1112.5C 841.317,1111.91 838.817,1110.91 836.5,1109.5C 832.062,1105.56 827.729,1101.4 823.5,1097C 820.682,1096.16 818.516,1096.99 817,1099.5C 814.143,1104.55 811.309,1109.55 808.5,1114.5C 796.867,1126.52 783.533,1128.68 768.5,1121C 766.237,1119.38 764.237,1117.55 762.5,1115.5C 758.51,1110.2 755.01,1104.53 752,1098.5C 750.938,1097.1 749.605,1096.1 748,1095.5C 742.676,1099.66 737.843,1104.32 733.5,1109.5C 730.923,1110.37 728.423,1111.37 726,1112.5C 717.289,1109.45 711.622,1103.45 709,1094.5C 706.435,1083.09 708.768,1072.76 716,1063.5C 717.724,1061.16 719.557,1060.66 721.5,1062C 716.551,1071.62 714.718,1081.79 716,1092.5C 717.455,1095.91 719.288,1099.08 721.5,1102C 723.212,1103.75 725.212,1104.42 727.5,1104C 733.167,1099 738.833,1094 744.5,1089C 747.555,1088.37 750.555,1088.53 753.5,1089.5 Z"/></g>
<g><path style="opacity:1" fill="#c66751" d="M 753.5,1089.5 C 759.478,1089.49 764.811,1091.33 769.5,1095C 783.239,1099.99 796.239,1098.33 808.5,1090C 810.81,1089.5 813.143,1089.34 815.5,1089.5C 810.795,1097.74 805.462,1105.57 799.5,1113C 785.347,1121.08 773.514,1118.58 764,1105.5C 761.209,1099.55 757.709,1094.22 753.5,1089.5 Z"/></g>
<g><path style="opacity:1" fill="#bb775d" d="M 762.5,1115.5 C 752.992,1112.73 743.326,1110.73 733.5,1109.5C 737.843,1104.32 742.676,1099.66 748,1095.5C 749.605,1096.1 750.938,1097.1 752,1098.5C 755.01,1104.53 758.51,1110.2 762.5,1115.5 Z"/></g>
<g><path style="opacity:1" fill="#bc785e" d="M 836.5,1109.5 C 826.936,1109.91 817.602,1111.58 808.5,1114.5C 811.309,1109.55 814.143,1104.55 817,1099.5C 818.516,1096.99 820.682,1096.16 823.5,1097C 827.729,1101.4 832.062,1105.56 836.5,1109.5 Z"/></g>
<g><path style="opacity:1" fill="#c26650" d="M 852.5,1095.5 C 850.361,1101.16 846.361,1103.66 840.5,1103C 839.944,1102.62 839.611,1102.12 839.5,1101.5C 844.693,1101.29 849.027,1099.29 852.5,1095.5 Z"/></g>
<g><path style="opacity:1" fill="#070504" d="M 913.5,1187.5 C 898.069,1209.4 877.403,1224.24 851.5,1232C 817.249,1240.73 782.582,1242.73 747.5,1238C 720.231,1234.36 696.231,1223.69 675.5,1206C 671.968,1201.64 668.301,1197.47 664.5,1193.5C 659.76,1186.36 655.26,1179.03 651,1171.5C 647.271,1169.75 643.437,1168.08 639.5,1166.5C 635.794,1160.33 637.461,1156.16 644.5,1154C 648.833,1153.33 653.167,1153.33 657.5,1154C 659.405,1155.42 661.405,1156.59 663.5,1157.5C 713.925,1170.38 765.258,1175.22 817.5,1172C 842.103,1171.14 866.436,1168.14 890.5,1163C 896.727,1161.45 902.727,1159.62 908.5,1157.5C 910.978,1156.81 912.978,1155.31 914.5,1153C 922.2,1150.47 929.034,1151.97 935,1157.5C 935.711,1159.9 935.544,1162.23 934.5,1164.5C 930.984,1166.76 927.318,1168.76 923.5,1170.5C 919.891,1176.06 916.558,1181.72 913.5,1187.5 Z"/></g>
<g><path style="opacity:1" fill="#dd8b64" d="M 663.5,1157.5 C 674.441,1158.92 685.441,1159.59 696.5,1159.5C 717.812,1158 739.145,1157.5 760.5,1158C 768.758,1158.52 776.924,1159.68 785,1161.5C 793.75,1159.77 802.583,1158.61 811.5,1158C 831.864,1157.44 852.198,1157.94 872.5,1159.5C 884.553,1159.59 896.553,1158.93 908.5,1157.5C 902.727,1159.62 896.727,1161.45 890.5,1163C 866.436,1168.14 842.103,1171.14 817.5,1172C 765.258,1175.22 713.925,1170.38 663.5,1157.5 Z"/></g>
<g><path style="opacity:1" fill="#f6f6f6" d="M 898.5,1185.5 C 869.829,1196.06 840.162,1201.89 809.5,1203C 780.387,1204.18 751.387,1202.85 722.5,1199C 705.755,1196.98 689.755,1192.48 674.5,1185.5C 671.092,1181.7 668.426,1177.36 666.5,1172.5C 667,1172.17 667.5,1171.83 668,1171.5C 706.924,1179.95 746.257,1185.28 786,1187.5C 818.31,1185.58 850.477,1182.08 882.5,1177C 890.426,1175.56 898.26,1173.73 906,1171.5C 907.257,1171.85 907.591,1172.52 907,1173.5C 904.882,1178.09 902.048,1182.09 898.5,1185.5 Z"/></g>
<g><path style="opacity:1" fill="#969696" d="M 674.5,1185.5 C 689.755,1192.48 705.755,1196.98 722.5,1199C 751.387,1202.85 780.387,1204.18 809.5,1203C 840.162,1201.89 869.829,1196.06 898.5,1185.5C 895.544,1190.4 891.877,1194.73 887.5,1198.5C 830.89,1211.45 773.557,1213.61 715.5,1205C 705.189,1203.42 695.189,1200.92 685.5,1197.5C 681.124,1194.13 677.458,1190.13 674.5,1185.5 Z"/></g>
<g><path style="opacity:1" fill="#de8c64" d="M 913.5,1187.5 C 897.571,1218.26 873.905,1241.09 842.5,1256C 817.925,1265.02 792.591,1268.02 766.5,1265C 721.037,1257.35 687.037,1233.52 664.5,1193.5C 668.301,1197.47 671.968,1201.64 675.5,1206C 696.231,1223.69 720.231,1234.36 747.5,1238C 782.582,1242.73 817.249,1240.73 851.5,1232C 877.403,1224.24 898.069,1209.4 913.5,1187.5 Z"/></g>
<g><path style="opacity:1" fill="#f6f6f6" d="M 685.5,1197.5 C 695.189,1200.92 705.189,1203.42 715.5,1205C 773.557,1213.61 830.89,1211.45 887.5,1198.5C 872.91,1210.63 856.244,1218.79 837.5,1223C 820.017,1226.61 802.35,1228.11 784.5,1227.5C 756.058,1228.8 729.058,1223.3 703.5,1211C 696.895,1207.21 690.895,1202.71 685.5,1197.5 Z"/></g>
<g><path style="opacity:1" fill="#f0ac87" d="M 671.5,1358.5 C 723.542,1384.51 778.208,1392.01 835.5,1381C 857.776,1376.02 879.109,1368.52 899.5,1358.5C 900.273,1366.37 901.94,1374.03 904.5,1381.5C 912.087,1384.8 919.753,1387.8 927.5,1390.5C 929.542,1411.24 922.208,1427.74 905.5,1440C 890.681,1449.39 874.681,1456.05 857.5,1460C 821.183,1467.53 784.517,1469.86 747.5,1467C 718.359,1464.4 691.692,1455.07 667.5,1439C 655.842,1430.52 648.009,1419.35 644,1405.5C 642.71,1400.89 642.376,1396.22 643,1391.5C 650.857,1388.27 658.691,1384.93 666.5,1381.5C 668.956,1374.01 670.623,1366.34 671.5,1358.5 Z"/></g>
<g><path style="opacity:1" fill="#065593" d="M 1124.5,1435.5 C 1018.33,1493.08 904.661,1521.74 783.5,1521.5C 675.678,1521.57 573.011,1498.74 475.5,1453C 464.788,1447.98 454.454,1442.48 444.5,1436.5C 450.214,1432.31 456.548,1429.14 463.5,1427C 518.238,1414.49 572.905,1401.65 627.5,1388.5C 626.921,1409.94 634.254,1428.11 649.5,1443C 669.25,1459.04 691.583,1470.04 716.5,1476C 748.558,1482.43 780.891,1484.1 813.5,1481C 845.067,1479.25 875.067,1471.58 903.5,1458C 932.418,1444.34 946.085,1421.5 944.5,1389.5C 999.843,1402.22 1055.18,1415.06 1110.5,1428C 1115.39,1430.27 1120.05,1432.77 1124.5,1435.5 Z"/></g>
<g><path style="opacity:1" fill="#004d87" d="M 661.5,1482.5 C 704.203,1500.84 749.203,1508.68 796.5,1506C 810.989,1505.06 825.322,1503.39 839.5,1501C 808.233,1511.39 776.233,1514.39 743.5,1510C 713.774,1507.58 686.441,1498.41 661.5,1482.5 Z"/></g>
</svg>
