<?xml version="1.0" encoding="UTF-8"?>
<!DOCTYPE svg PUBLIC "-//W3C//DTD SVG 1.1//EN" "http://www.w3.org/Graphics/SVG/1.1/DTD/svg11.dtd">
<svg xmlns="http://www.w3.org/2000/svg" version="1.1" width="1592px" height="1592px" style="shape-rendering:geometricPrecision; text-rendering:geometricPrecision; image-rendering:optimizeQuality; fill-rule:evenodd; clip-rule:evenodd" xmlns:xlink="http://www.w3.org/1999/xlink">
<g><path style="opacity:0.99" fill="#010000" d="M 1123.5,1436.5 C 1123.59,1435.5 1123.25,1434.67 1122.5,1434C 1117.4,1431.12 1112.07,1428.78 1106.5,1427C 1062.99,1417.46 1019.66,1407.29 976.5,1396.5C 965.977,1393.54 955.31,1391.2 944.5,1389.5C 946.587,1420.84 933.587,1443.34 905.5,1457C 877.347,1470.46 847.68,1478.46 816.5,1481C 777.869,1485.39 739.869,1482.39 702.5,1472C 678.102,1465.07 657.602,1452.24 641,1433.5C 631.865,1419.93 627.031,1404.93 626.5,1388.5C 616.053,1391.18 605.72,1393.85 595.5,1396.5C 551.589,1406.98 507.589,1417.14 463.5,1427C 458.669,1428.61 454.003,1430.61 449.5,1433C 447.365,1433.88 446.031,1435.38 445.5,1437.5C 438.371,1434.44 431.704,1430.6 425.5,1426C 443.902,1411.53 464.902,1403.53 488.5,1402C 535.463,1390.51 582.463,1379.18 629.5,1368C 635.306,1367.38 640.973,1367.71 646.5,1369C 647.766,1368.69 648.933,1368.19 650,1367.5C 652.013,1363.29 652.513,1358.96 651.5,1354.5C 609.868,1334.78 573.368,1308.11 542,1274.5C 520.566,1249.65 504.232,1221.65 493,1190.5C 486,1170.83 479,1151.17 472,1131.5C 452.862,1131.46 436.362,1124.96 422.5,1112C 377.021,1071.23 356.855,1020.4 362,959.5C 367.967,936.531 382.8,925.365 406.5,926C 394.186,890.055 383.686,853.555 375,816.5C 364.976,774.381 355.976,732.048 348,689.5C 341.693,647.402 349.36,608.068 371,571.5C 374.429,566.981 378.096,562.648 382,558.5C 388.201,540.099 396.534,522.766 407,506.5C 414.603,498.108 422.77,490.275 431.5,483C 473.979,453.254 517.645,425.254 562.5,399C 593.687,383.272 626.687,373.606 661.5,370C 692.332,365.157 722.999,366.157 753.5,373C 763.231,375.079 772.898,377.413 782.5,380C 803.385,387.11 824.052,394.777 844.5,403C 857.044,407.404 869.711,411.404 882.5,415C 892.463,416.495 902.463,417.662 912.5,418.5C 918.872,417.91 925.206,417.41 931.5,417C 932.976,420.132 933.643,423.465 933.5,427C 932.911,432.517 932.245,438.017 931.5,443.5C 954.24,448.436 972.073,460.436 985,479.5C 986.938,485.147 988.771,490.813 990.5,496.5C 1016.17,513.141 1030.67,536.808 1034,567.5C 1036.95,587.128 1039.61,606.795 1042,626.5C 1047.12,691.215 1052.78,755.882 1059,820.5C 1075.01,815.503 1089.01,818.836 1101,830.5C 1110.26,841.909 1116.26,854.909 1119,869.5C 1130.18,922.418 1120.52,971.084 1090,1015.5C 1081.31,1025.7 1070.48,1032.36 1057.5,1035.5C 1057.59,1068.25 1056.09,1100.91 1053,1133.5C 1044.45,1184.25 1023.78,1229.25 991,1268.5C 968.254,1295.75 943.087,1320.41 915.5,1342.5C 916.998,1350.15 918.498,1357.82 920,1365.5C 922.972,1369.91 926.472,1370.41 930.5,1367C 932.833,1366.33 935.167,1366.33 937.5,1367C 992.995,1380.79 1048.66,1393.79 1104.5,1406C 1119.25,1408.91 1132.25,1415.24 1143.5,1425C 1136.97,1429.1 1130.3,1432.93 1123.5,1436.5 Z"/></g>
<g><path style="opacity:1" fill="#201e1e" d="M 849.5,425.5 C 848.262,425.81 848.262,426.31 849.5,427C 858.83,434.523 869.163,440.023 880.5,443.5C 862.324,441.748 844.657,437.748 827.5,431.5C 824.718,431.859 824.052,433.192 825.5,435.5C 855.621,446.947 886.621,455.114 918.5,460C 936.663,463.329 952.163,471.496 965,484.5C 967.575,487.726 969.075,491.393 969.5,495.5C 956.885,491.794 944.885,486.627 933.5,480C 929.176,479.955 928.51,481.621 931.5,485C 949.508,497.008 968.175,508.008 987.5,518C 999.219,527.274 1007.05,539.107 1011,553.5C 1017.81,588.894 1022.64,624.561 1025.5,660.5C 1025.33,662.5 1025.17,664.5 1025,666.5C 1023.33,663.833 1021.67,661.167 1020,658.5C 1018.62,660.635 1017.62,662.968 1017,665.5C 1015.81,680.802 1015.14,696.135 1015,711.5C 1013.97,716.921 1011.97,721.921 1009,726.5C 1003.7,716.947 999.369,706.947 996,696.5C 989.538,671.854 983.205,647.187 977,622.5C 973.781,613.722 969.281,605.722 963.5,598.5C 965.523,597.959 967.523,598.459 969.5,600C 973.092,602.713 976.592,605.547 980,608.5C 975.219,587.07 961.719,575.57 939.5,574C 949.422,560.985 952.255,546.485 948,530.5C 946.217,524.933 943.883,519.599 941,514.5C 932.956,506.791 925.29,498.791 918,490.5C 916.5,490.667 915.667,491.5 915.5,493C 931.809,521.903 925.476,544.403 896.5,560.5C 896.167,559.833 895.833,559.167 895.5,558.5C 899.417,545.905 897.584,534.238 890,523.5C 884.5,515.333 877.667,508.5 869.5,503C 857.021,494.536 844.021,486.87 830.5,480C 826.85,478.555 823.183,477.555 819.5,477C 818.14,478.938 818.473,480.604 820.5,482C 835.541,487.064 847.707,495.897 857,508.5C 868.553,529.899 866.553,549.899 851,568.5C 860.388,539.275 852.221,516.275 826.5,499.5C 839.411,531.695 829.411,554.029 796.5,566.5C 796.432,559.909 796.266,553.242 796,546.5C 794.771,541.471 792.771,536.804 790,532.5C 790.233,543.7 785.9,552.7 777,559.5C 782.328,532.795 772.161,514.628 746.5,505C 725.726,497.075 704.726,489.742 683.5,483C 667.36,477.393 662.36,466.727 668.5,451C 666.398,447.77 664.232,447.937 662,451.5C 655.163,462.976 656.33,473.476 665.5,483C 671.178,486.841 677.178,490.174 683.5,493C 699.487,498.551 715.154,504.884 730.5,512C 748.924,523.685 757.091,540.519 755,562.5C 753.669,566.489 752.335,570.489 751,574.5C 747.517,553.351 735.684,539.184 715.5,532C 710.833,530.667 706.167,529.333 701.5,528C 684.818,525.797 668.151,523.464 651.5,521C 641.049,518.863 632.216,514.03 625,506.5C 622.266,499.444 620.6,492.111 620,484.5C 609.961,496.507 608.961,509.174 617,522.5C 619.537,525.372 622.37,527.872 625.5,530C 641.049,537.274 656.715,544.274 672.5,551C 699.309,569.684 698.976,587.851 671.5,605.5C 669.326,575.818 653.659,557.652 624.5,551C 606.544,547.118 588.544,543.452 570.5,540C 563.341,538.173 557.174,534.673 552,529.5C 548.293,518.692 549.126,508.192 554.5,498C 554.333,496.5 553.5,495.667 552,495.5C 549.883,497.032 548.216,499.032 547,501.5C 534.558,522.158 539.058,537.658 560.5,548C 579.325,554.941 597.991,562.275 616.5,570C 623.723,574.527 628.557,580.693 631,588.5C 622.361,583.512 613.028,581.178 603,581.5C 588.476,583.059 573.976,584.892 559.5,587C 536.087,589.53 516.921,581.696 502,563.5C 504.779,573.39 509.446,582.39 516,590.5C 524.705,600.883 534.872,609.383 546.5,616C 517.788,609.3 496.621,592.8 483,566.5C 478.273,552.793 477.273,538.793 480,524.5C 481.306,520.554 483.139,516.888 485.5,513.5C 485,512.119 484,511.453 482.5,511.5C 470.458,524.918 462.624,540.585 459,558.5C 456.561,589.967 469.394,612.634 497.5,626.5C 478.686,635.784 459.019,637.95 438.5,633C 412.848,623.675 400.182,605.342 400.5,578C 400.638,570.337 401.805,562.837 404,555.5C 410.166,536.982 419.999,520.816 433.5,507C 440.985,500.759 448.652,494.759 456.5,489C 498.776,460.747 542.109,434.081 586.5,409C 647.64,384.427 709.974,380.76 773.5,398C 799.039,406.952 824.372,416.118 849.5,425.5 Z"/></g>
<g><path style="opacity:1" fill="#5e5d5d" d="M 673.5,392.5 C 700.459,391.233 727.125,393.4 753.5,399C 679.202,390.654 612.202,408.654 552.5,453C 551.833,453.667 551.167,453.667 550.5,453C 572.792,427.015 600.459,409.348 633.5,400C 646.838,396.724 660.171,394.224 673.5,392.5 Z"/></g>
<g><path style="opacity:1" fill="#5d5c5c" d="M 659.5,419.5 C 660.552,419.351 661.552,419.517 662.5,420C 647.135,430.699 636.301,444.866 630,462.5C 628.268,449.125 632.768,438.291 643.5,430C 648.727,426.228 654.061,422.728 659.5,419.5 Z"/></g>
<g><path style="opacity:1" fill="#030101" d="M 668.5,422.5 C 671.569,424.881 674.903,427.048 678.5,429C 695.489,434.663 712.489,440.33 729.5,446C 756.615,455.546 779.615,471.046 798.5,492.5C 797.998,493.521 797.332,493.688 796.5,493C 772.235,474.032 745.235,460.032 715.5,451C 700.561,446.131 685.561,441.465 670.5,437C 659.327,433.331 658.66,428.498 668.5,422.5 Z"/></g>
<g><path style="opacity:1" fill="#5e5d5d" d="M 849.5,425.5 C 869.795,433.068 890.795,437.402 912.5,438.5C 912.5,439.5 912.5,440.5 912.5,441.5C 901.912,443.147 891.245,443.814 880.5,443.5C 869.163,440.023 858.83,434.523 849.5,427C 848.262,426.31 848.262,425.81 849.5,425.5 Z"/></g>
<g><path style="opacity:1" fill="#5f5e5e" d="M 742.5,435.5 C 742.56,434.957 742.893,434.624 743.5,434.5C 754.176,441.003 765.51,446.17 777.5,450C 791.87,453.207 806.203,456.54 820.5,460C 830.724,463.444 840.058,468.444 848.5,475C 839.03,471.509 829.363,468.175 819.5,465C 807.896,462.817 796.229,461.484 784.5,461C 795.082,467.335 803.748,475.168 810.5,484.5C 796.833,476 783.167,467.5 769.5,459C 759.741,452.077 750.741,444.244 742.5,435.5 Z"/></g>
<g><path style="opacity:1" fill="#5f5e5e" d="M 551.5,437.5 C 553.379,437.393 553.712,437.893 552.5,439C 520.698,458.342 492.198,481.842 467,509.5C 463.606,513.898 460.606,518.565 458,523.5C 457.333,521.5 457.333,519.5 458,517.5C 459.175,512.986 460.508,508.652 462,504.5C 436.695,519.496 421.028,541.496 415,570.5C 414.667,575.5 414.333,580.5 414,585.5C 407.159,547.345 420.326,518.178 453.5,498C 459.5,495.333 465.5,492.667 471.5,490C 495.637,468.706 522.304,451.206 551.5,437.5 Z"/></g>
<g><path style="opacity:1" fill="#5f5e5e" d="M 652.5,446.5 C 653.043,446.56 653.376,446.893 653.5,447.5C 647.568,458.639 647.068,469.973 652,481.5C 656.471,487.493 662.304,491.66 669.5,494C 689.112,499.147 707.778,506.48 725.5,516C 729.013,518.467 731.179,521.634 732,525.5C 727.874,521.518 723.041,518.685 717.5,517C 698.998,510.305 679.998,505.639 660.5,503C 641.914,494.553 636.414,480.72 644,461.5C 646.845,456.473 649.679,451.473 652.5,446.5 Z"/></g>
<g><path style="opacity:1" fill="#5e5d5d" d="M 835.5,449.5 C 857.174,453.327 876.84,462.16 894.5,476C 905.276,485.046 910.442,496.546 910,510.5C 903.592,496.511 894.425,484.677 882.5,475C 867.994,464.413 852.327,455.913 835.5,449.5 Z"/></g>
<g><path style="opacity:1" fill="#605f5f" d="M 600.5,467.5 C 601.239,467.369 601.906,467.536 602.5,468C 594.496,478.173 591.329,489.673 593,502.5C 596.003,509.501 600.503,515.335 606.5,520C 599.125,518.326 592.958,514.493 588,508.5C 586.031,504.768 585.031,500.768 585,496.5C 577.31,504.025 575.644,512.691 580,522.5C 588.235,529.87 597.735,535.037 608.5,538C 595.03,539.132 582.363,536.466 570.5,530C 561.118,522.997 558.285,513.831 562,502.5C 565.683,493.982 571.183,486.816 578.5,481C 585.73,476.224 593.063,471.724 600.5,467.5 Z"/></g>
<g><path style="opacity:1" fill="#5d5c5c" d="M 724.5,476.5 C 741.216,478.586 756.549,484.753 770.5,495C 779.802,503.102 784.635,513.269 785,525.5C 781.799,516.928 776.966,509.428 770.5,503C 756.036,492.713 740.703,483.88 724.5,476.5 Z"/></g>
<g><path style="opacity:1" fill="#5f5e5e" d="M 526.5,473.5 C 527.239,473.369 527.906,473.536 528.5,474C 518.559,484.62 511.059,496.786 506,510.5C 504.427,524.115 508.593,535.615 518.5,545C 519.167,545.667 519.833,545.667 520.5,545C 515.079,534.45 515.245,523.95 521,513.5C 524.251,508.245 528.251,503.578 533,499.5C 530.209,504.436 527.875,509.77 526,515.5C 522.894,534.948 529.727,549.614 546.5,559.5C 529.305,562.158 515.138,556.824 504,543.5C 500.606,539.102 497.606,534.435 495,529.5C 491.071,550.131 495.237,569.131 507.5,586.5C 507.167,586.833 506.833,587.167 506.5,587.5C 485.464,569.421 478.964,547.087 487,520.5C 491.43,511.301 497.097,502.967 504,495.5C 511.395,487.937 518.895,480.603 526.5,473.5 Z"/></g>
<g><path style="opacity:1" fill="#030202" d="M 957.5,516.5 C 964.587,517.039 971.254,519.539 977.5,524C 988.04,536.092 986.374,546.092 972.5,554C 969.702,555.914 966.702,556.914 963.5,557C 970.815,550.382 973.315,542.216 971,532.5C 967.703,526.045 963.203,520.712 957.5,516.5 Z"/></g>
<g><path style="opacity:1" fill="#030101" d="M 450.5,527.5 C 451.043,527.56 451.376,527.893 451.5,528.5C 434.788,564.365 440.622,594.698 469,619.5C 436.396,609.626 424.729,588.292 434,555.5C 438.238,545.348 443.738,536.015 450.5,527.5 Z"/></g>
<g><path style="opacity:1" fill="#1f1d1d" d="M 389.5,579.5 C 389.41,600.091 394.577,619.424 405,637.5C 412.353,648.76 422.186,657.093 434.5,662.5C 412.905,669.349 403.739,684.016 407,706.5C 411.07,699.76 415.904,693.593 421.5,688C 422.332,687.312 422.998,687.479 423.5,688.5C 416.458,697.794 413.125,708.294 413.5,720C 415.865,738.164 418.365,756.331 421,774.5C 421.667,781.167 421.667,787.833 421,794.5C 415.947,788.448 411.281,782.115 407,775.5C 403.707,785.339 401.04,795.339 399,805.5C 394.304,799.444 390.637,792.777 388,785.5C 379.16,748.457 371.826,711.124 366,673.5C 363.509,639.465 371.342,608.131 389.5,579.5 Z"/></g>
<g><path style="opacity:1" fill="#f0ac87" d="M 1006.5,816.5 C 990.523,812.063 974.19,810.063 957.5,810.5C 948.13,796.297 935.797,785.464 920.5,778C 907.684,774.176 894.684,773.509 881.5,776C 852.54,785.311 824.873,797.645 798.5,813C 792.704,817.428 790.371,823.262 791.5,830.5C 791.032,835.53 792.032,840.197 794.5,844.5C 795.417,845.127 796.417,845.461 797.5,845.5C 783.393,853.782 773.893,865.782 769,881.5C 768.335,889.856 768.501,898.189 769.5,906.5C 748.888,900.022 729.888,903.022 712.5,915.5C 708.232,886.067 691.232,869.567 661.5,866C 606.976,861.487 553.643,867.32 501.5,883.5C 521.529,859.816 547.196,846.65 578.5,844C 591.5,843.333 604.5,843.333 617.5,844C 628.654,845.631 639.82,847.131 651,848.5C 655.98,849.507 659.647,847.84 662,843.5C 662.973,835.058 660.973,827.391 656,820.5C 649.512,817.498 642.678,815.331 635.5,814C 611.092,808.905 586.426,807.239 561.5,809C 535.12,809.098 515.62,820.598 503,843.5C 495.108,856.799 491.608,871.132 492.5,886.5C 478.434,891.118 465.934,898.451 455,908.5C 450.044,914.989 447.877,922.323 448.5,930.5C 447.833,930.5 447.167,930.5 446.5,930.5C 445.296,913.181 444.296,895.848 443.5,878.5C 444.083,861.422 445.583,844.422 448,827.5C 447.864,795.168 447.864,762.835 448,730.5C 448.679,714.117 452.346,698.45 459,683.5C 468.92,669.443 482.087,659.609 498.5,654C 527.196,645.128 556.529,639.461 586.5,637C 634.074,636.511 681.074,631.178 727.5,621C 758.01,612.706 788.677,605.039 819.5,598C 841.657,593.771 863.99,591.771 886.5,592C 903.232,592.566 917.065,599.066 928,611.5C 932.759,618.011 936.759,625.011 940,632.5C 962.284,693.857 984.451,755.191 1006.5,816.5 Z"/></g>
<g><path style="opacity:1" fill="#1a1c1b" d="M 957.5,810.5 C 943.825,811.001 930.158,811.667 916.5,812.5C 889.536,811.054 863.869,816.387 839.5,828.5C 824.986,833.002 810.986,838.669 797.5,845.5C 796.417,845.461 795.417,845.127 794.5,844.5C 792.032,840.197 791.032,835.53 791.5,830.5C 790.371,823.262 792.704,817.428 798.5,813C 824.873,797.645 852.54,785.311 881.5,776C 894.684,773.509 907.684,774.176 920.5,778C 935.797,785.464 948.13,796.297 957.5,810.5 Z"/></g>
<g><path style="opacity:1" fill="#1a1b1b" d="M 501.5,883.5 C 498.426,884.302 495.426,885.302 492.5,886.5C 491.608,871.132 495.108,856.799 503,843.5C 515.62,820.598 535.12,809.098 561.5,809C 586.426,807.239 611.092,808.905 635.5,814C 642.678,815.331 649.512,817.498 656,820.5C 660.973,827.391 662.973,835.058 662,843.5C 659.647,847.84 655.98,849.507 651,848.5C 639.82,847.131 628.654,845.631 617.5,844C 604.5,843.333 591.5,843.333 578.5,844C 547.196,846.65 521.529,859.816 501.5,883.5 Z"/></g>
<g><path style="opacity:1" fill="#fdfbfa" d="M 957.5,810.5 C 974.19,810.063 990.523,812.063 1006.5,816.5C 1015.63,820.3 1021.63,826.966 1024.5,836.5C 1025.58,839.402 1026.24,842.402 1026.5,845.5C 1033.18,844.964 1039.85,844.297 1046.5,843.5C 1046.5,845.167 1046.5,846.833 1046.5,848.5C 1040.21,849.459 1033.87,850.125 1027.5,850.5C 1027.23,852.099 1027.57,853.432 1028.5,854.5C 1028.28,857.279 1028.61,859.946 1029.5,862.5C 1030.42,875.47 1030.76,888.47 1030.5,901.5C 1030.5,903.167 1030.5,904.833 1030.5,906.5C 1029.85,918.259 1028.35,929.926 1026,941.5C 1022.98,957.522 1013.81,968.355 998.5,974C 950.065,994.634 899.731,1001.63 847.5,995C 832.022,992.066 817.689,986.4 804.5,978C 795.441,970.371 788.441,961.204 783.5,950.5C 781.499,945.495 779.499,940.495 777.5,935.5C 774.327,925.965 771.66,916.298 769.5,906.5C 768.501,898.189 768.335,889.856 769,881.5C 773.893,865.782 783.393,853.782 797.5,845.5C 810.986,838.669 824.986,833.002 839.5,828.5C 864.964,821.608 890.631,816.275 916.5,812.5C 930.158,811.667 943.825,811.001 957.5,810.5 Z"/></g>
<g><path style="opacity:1" fill="#e0a382" d="M 916.5,812.5 C 890.631,816.275 864.964,821.608 839.5,828.5C 863.869,816.387 889.536,811.054 916.5,812.5 Z"/></g>
<g><path style="opacity:1" fill="#f0ac87" d="M 941.5,818.5 C 948.727,821.783 955.727,825.616 962.5,830C 963.793,830.49 965.127,830.657 966.5,830.5C 966.674,826.189 965.674,822.189 963.5,818.5C 981.852,817.336 997.352,823.336 1010,836.5C 1012.44,841.933 1014.11,847.6 1015,853.5C 1018.48,879.104 1019.14,904.77 1017,930.5C 1014.34,943.988 1007.51,954.821 996.5,963C 961.161,982.219 923.327,991.386 883,990.5C 862.097,991.117 841.931,987.617 822.5,980C 811.928,975.763 803.428,968.93 797,959.5C 786.795,942.423 779.962,924.09 776.5,904.5C 777.833,896.833 777.833,889.167 776.5,881.5C 781.019,868.478 789.352,858.644 801.5,852C 815.21,844.763 829.544,839.096 844.5,835C 876.135,825.503 908.468,820.003 941.5,818.5 Z"/></g>
<g><path style="opacity:1" fill="#242423" d="M 963.5,818.5 C 965.674,822.189 966.674,826.189 966.5,830.5C 965.127,830.657 963.793,830.49 962.5,830C 955.727,825.616 948.727,821.783 941.5,818.5C 948.864,817.199 956.197,817.199 963.5,818.5 Z"/></g>
<g><path style="opacity:1" fill="#333333" d="M 1029.5,862.5 C 1028.61,859.946 1028.28,857.279 1028.5,854.5C 1028.79,853.351 1029.62,852.684 1031,852.5C 1035.16,851.787 1039.33,851.12 1043.5,850.5C 1045.03,850.36 1046.03,849.693 1046.5,848.5C 1046.5,846.833 1046.5,845.167 1046.5,843.5C 1039.85,844.297 1033.18,844.964 1026.5,845.5C 1026.24,842.402 1025.58,839.402 1024.5,836.5C 1033.48,835.2 1042.48,834.367 1051.5,834C 1056.13,840.799 1057.63,848.299 1056,856.5C 1055.5,857 1055,857.5 1054.5,858C 1046.22,859.744 1037.89,861.244 1029.5,862.5 Z"/></g>
<g><path style="opacity:1" fill="#ca6d55" d="M 851.5,835.5 C 864.879,835.119 878.212,835.619 891.5,837C 868.435,836.346 846.101,839.68 824.5,847C 832.534,840.717 841.534,836.883 851.5,835.5 Z"/></g>
<g><path style="opacity:1" fill="#edaa86" d="M 1058.5,986.5 C 1068.81,980.563 1075.81,971.897 1079.5,960.5C 1087.8,944.493 1092.46,927.326 1093.5,909C 1093.17,898.003 1091.67,887.17 1089,876.5C 1086.84,870.008 1082.84,865.008 1077,861.5C 1076.54,860.906 1076.37,860.239 1076.5,859.5C 1079.18,857.164 1081.84,854.831 1084.5,852.5C 1082.13,850.605 1079.47,850.105 1076.5,851C 1070.19,853.635 1064.69,857.468 1060,862.5C 1059.5,855.842 1059.33,849.175 1059.5,842.5C 1060.89,840.292 1062.89,838.792 1065.5,838C 1075.65,835.99 1083.82,839.157 1090,847.5C 1100.44,866.965 1104.94,887.798 1103.5,910C 1103.72,944.677 1093.88,976.177 1074,1004.5C 1069.71,1009.31 1064.54,1012.64 1058.5,1014.5C 1058.5,1005.17 1058.5,995.833 1058.5,986.5 Z"/></g>
<g><path style="opacity:1" fill="#060504" d="M 868.5,844.5 C 907.897,842.02 935.564,858.687 951.5,894.5C 935.667,923.806 911.333,941.973 878.5,949C 860.982,952.251 843.982,950.584 827.5,944C 814.338,937.256 801.672,929.756 789.5,921.5C 790.916,881.836 810.916,857.336 849.5,848C 856.01,847.029 862.343,845.862 868.5,844.5 Z"/></g>
<g><path style="opacity:1" fill="#a2a2a2" d="M 1046.5,848.5 C 1046.03,849.693 1045.03,850.36 1043.5,850.5C 1039.33,851.12 1035.16,851.787 1031,852.5C 1029.62,852.684 1028.79,853.351 1028.5,854.5C 1027.57,853.432 1027.23,852.099 1027.5,850.5C 1033.87,850.125 1040.21,849.459 1046.5,848.5 Z"/></g>
<g><path style="opacity:1" fill="#141414" d="M 885.5,859.5 C 882.428,859.183 879.428,859.516 876.5,860.5C 882.266,876.496 878.933,890.33 866.5,902C 854.411,909.488 841.744,910.488 828.5,905C 825.577,902.955 822.743,900.788 820,898.5C 817.143,894.102 814.309,889.768 811.5,885.5C 816.206,879.627 821.706,874.627 828,870.5C 828.583,886.694 836.75,893.194 852.5,890C 863.981,881.948 865.314,872.448 856.5,861.5C 866.153,858.71 875.819,858.043 885.5,859.5 Z"/></g>
<g><path style="opacity:1" fill="#fcfcfc" d="M 885.5,859.5 C 910.152,861.323 927.152,873.656 936.5,896.5C 926.851,918.355 910.518,932.855 887.5,940C 868.161,945.368 849.161,944.368 830.5,937C 819.584,931.964 809.418,925.797 800,918.5C 800.741,906.445 804.574,895.445 811.5,885.5C 814.309,889.768 817.143,894.102 820,898.5C 822.743,900.788 825.577,902.955 828.5,905C 841.744,910.488 854.411,909.488 866.5,902C 878.933,890.33 882.266,876.496 876.5,860.5C 879.428,859.516 882.428,859.183 885.5,859.5 Z"/></g>
<g><path style="opacity:1" fill="#cf785e" d="M 1076.5,859.5 C 1076.37,860.239 1076.54,860.906 1077,861.5C 1082.84,865.008 1086.84,870.008 1089,876.5C 1091.67,887.17 1093.17,898.003 1093.5,909C 1092.46,927.326 1087.8,944.493 1079.5,960.5C 1078.67,959.668 1077.84,960.001 1077,961.5C 1072.65,969.683 1066.48,976.017 1058.5,980.5C 1058.41,957.995 1056.41,935.662 1052.5,913.5C 1054.96,904.643 1056.63,895.643 1057.5,886.5C 1060.73,888.22 1063.56,890.553 1066,893.5C 1072.18,902.223 1075.68,911.89 1076.5,922.5C 1076.74,927.434 1075.74,932.101 1073.5,936.5C 1073.85,937.696 1074.35,937.696 1075,936.5C 1082.58,921.667 1082.25,907 1074,892.5C 1070.36,887.358 1066.52,882.358 1062.5,877.5C 1066.22,870.707 1070.89,864.707 1076.5,859.5 Z"/></g>
<g><path style="opacity:1" fill="#fefbfa" d="M 712.5,915.5 C 714.162,925.379 714.828,935.379 714.5,945.5C 714.175,960.797 711.009,975.463 705,989.5C 697.12,1001.71 686.954,1011.55 674.5,1019C 638.8,1038.84 600.466,1049.84 559.5,1052C 542.099,1052.98 524.765,1052.31 507.5,1050C 497.521,1048.01 489.688,1042.84 484,1034.5C 476.007,1021.55 469.34,1007.88 464,993.5C 459.888,980.994 455.721,968.661 451.5,956.5C 451.492,953.455 451.159,950.455 450.5,947.5C 450.5,946.5 450.5,945.5 450.5,944.5C 444.054,944.856 437.721,945.856 431.5,947.5C 430.088,945.77 430.422,944.27 432.5,943C 438.144,941.948 443.811,941.115 449.5,940.5C 448.793,937.214 448.46,933.881 448.5,930.5C 447.877,922.323 450.044,914.989 455,908.5C 465.934,898.451 478.434,891.118 492.5,886.5C 495.426,885.302 498.426,884.302 501.5,883.5C 553.643,867.32 606.976,861.487 661.5,866C 691.232,869.567 708.232,886.067 712.5,915.5 Z"/></g>
<g><path style="opacity:1" fill="#efefef" d="M 843.5,863.5 C 844.675,863.281 845.675,863.614 846.5,864.5C 842.934,871.435 837.601,873.269 830.5,870C 834.771,867.533 839.104,865.366 843.5,863.5 Z"/></g>
<g><path style="opacity:1" fill="#f0ac87" d="M 614.5,871.5 C 626.838,871.333 639.171,871.5 651.5,872C 664.402,872.889 676.402,876.556 687.5,883C 696.394,889.283 701.894,897.783 704,908.5C 708.585,929.481 708.585,950.481 704,971.5C 700.939,984.12 694.439,994.62 684.5,1003C 661.516,1020.32 635.85,1031.99 607.5,1038C 577.69,1045.24 547.69,1046.24 517.5,1041C 499.169,1035.93 487.002,1024.43 481,1006.5C 472.814,984.421 466.814,961.755 463,938.5C 460.802,928.758 462.802,920.091 469,912.5C 482.279,899.441 498.112,890.941 516.5,887C 548.754,878.234 581.421,873.067 614.5,871.5 Z"/></g>
<g><path style="opacity:1" fill="#cb6e57" d="M 609.5,874.5 C 617.759,873.917 625.759,875.084 633.5,878C 621.085,878.076 608.752,879.076 596.5,881C 587.433,883.361 578.433,885.694 569.5,888C 582.279,881.423 595.612,876.923 609.5,874.5 Z"/></g>
<g><path style="opacity:1" fill="#6a271e" d="M 1059.5,842.5 C 1059.33,849.175 1059.5,855.842 1060,862.5C 1064.69,857.468 1070.19,853.635 1076.5,851C 1079.47,850.105 1082.13,850.605 1084.5,852.5C 1081.84,854.831 1079.18,857.164 1076.5,859.5C 1070.89,864.707 1066.22,870.707 1062.5,877.5C 1066.52,882.358 1070.36,887.358 1074,892.5C 1082.25,907 1082.58,921.667 1075,936.5C 1074.35,937.696 1073.85,937.696 1073.5,936.5C 1075.74,932.101 1076.74,927.434 1076.5,922.5C 1075.68,911.89 1072.18,902.223 1066,893.5C 1063.56,890.553 1060.73,888.22 1057.5,886.5C 1058.06,871.677 1058.73,857.011 1059.5,842.5 Z"/></g>
<g><path style="opacity:1" fill="#060504" d="M 606.5,886.5 C 640.782,882.509 666.616,895.176 684,924.5C 686.421,928.34 688.588,932.34 690.5,936.5C 679.063,953.438 665.063,967.938 648.5,980C 608.478,999.42 570.478,996.087 534.5,970C 531.568,967.577 529.235,964.743 527.5,961.5C 531.452,924.724 551.119,901.224 586.5,891C 593.29,889.445 599.957,887.945 606.5,886.5 Z"/></g>
<g><path style="opacity:1" fill="#8f5044" d="M 776.5,881.5 C 777.833,889.167 777.833,896.833 776.5,904.5C 775.202,896.82 775.202,889.154 776.5,881.5 Z"/></g>
<g><path style="opacity:1" fill="#131313" d="M 622.5,900.5 C 628.739,916.945 625.405,931.112 612.5,943C 596.073,953.804 580.573,952.637 566,939.5C 562.339,934.507 559.506,929.173 557.5,923.5C 562.266,917.427 568.266,912.76 575.5,909.5C 575.833,910.167 576.167,910.833 576.5,911.5C 573.332,921.011 576.665,927.844 586.5,932C 597.754,933.958 604.921,929.458 608,918.5C 608.667,912.334 606.833,907.001 602.5,902.5C 609.046,900.794 615.713,900.127 622.5,900.5 Z"/></g>
<g><path style="opacity:1" fill="#fcfcfc" d="M 622.5,900.5 C 649.199,900.893 667.865,913.226 678.5,937.5C 652.023,980.273 614.69,994.107 566.5,979C 557.877,975.045 550.377,969.545 544,962.5C 542.212,947.366 546.712,934.366 557.5,923.5C 559.506,929.173 562.339,934.507 566,939.5C 580.573,952.637 596.073,953.804 612.5,943C 625.405,931.112 628.739,916.945 622.5,900.5 Z"/></g>
<g><path style="opacity:1" fill="#373636" d="M 769.5,906.5 C 771.66,916.298 774.327,925.965 777.5,935.5C 775.435,935.483 773.435,935.15 771.5,934.5C 751.152,931.285 732.152,934.952 714.5,945.5C 714.828,935.379 714.162,925.379 712.5,915.5C 729.888,903.022 748.888,900.022 769.5,906.5 Z"/></g>
<g><path style="opacity:1" fill="#efefef" d="M 576.5,911.5 C 576.167,910.833 575.833,910.167 575.5,909.5C 580.905,906.966 586.571,905.299 592.5,904.5C 589.724,912.215 584.391,914.548 576.5,911.5 Z"/></g>
<g><path style="opacity:1" fill="#d19676" d="M 1030.5,901.5 C 1034.95,919.79 1037.78,938.457 1039,957.5C 1039.58,984.172 1039.41,1010.84 1038.5,1037.5C 1037.53,1039.95 1037.19,1042.61 1037.5,1045.5C 1031.5,1046.5 1025.5,1047.5 1019.5,1048.5C 1030.76,1001.62 1034.43,954.29 1030.5,906.5C 1030.5,904.833 1030.5,903.167 1030.5,901.5 Z"/></g>
<g><path style="opacity:1" fill="#f8f8f8" d="M 769.5,921.5 C 750.951,916.978 733.784,919.978 718,930.5C 717.505,928.527 717.338,926.527 717.5,924.5C 720.764,920.753 724.764,917.92 729.5,916C 742.187,911.426 754.854,911.426 767.5,916C 768.861,917.584 769.528,919.418 769.5,921.5 Z"/></g>
<g><path style="opacity:1" fill="#f0ac87" d="M 1030.5,906.5 C 1034.43,954.29 1030.76,1001.62 1019.5,1048.5C 1016.17,1059.5 1012.83,1070.5 1009.5,1081.5C 1006.13,1088.61 1003.13,1095.94 1000.5,1103.5C 995.25,1112.33 990.25,1121.33 985.5,1130.5C 979.27,1141.92 971.27,1152.08 961.5,1161C 953.52,1167.32 944.52,1171.49 934.5,1173.5C 933.624,1173.63 932.957,1173.3 932.5,1172.5C 922.329,1151.84 905.996,1138.68 883.5,1133C 868.595,1129.14 853.429,1127.31 838,1127.5C 795.907,1130.2 754.407,1136.7 713.5,1147C 689.166,1153.41 668.332,1165.58 651,1183.5C 642.274,1193.95 637.108,1205.95 635.5,1219.5C 634.5,1219.5 633.5,1219.5 632.5,1219.5C 609.738,1214.95 588.738,1206.28 569.5,1193.5C 555.342,1183.69 542.342,1172.35 530.5,1159.5C 525.5,1152.83 520.5,1146.17 515.5,1139.5C 508.748,1130.34 502.748,1120.67 497.5,1110.5C 482.301,1081.76 470.134,1051.76 461,1020.5C 460.284,1018.12 459.117,1016.12 457.5,1014.5C 454.835,995.509 452.168,976.509 449.5,957.5C 449.842,956.662 450.508,956.328 451.5,956.5C 455.721,968.661 459.888,980.994 464,993.5C 469.34,1007.88 476.007,1021.55 484,1034.5C 489.688,1042.84 497.521,1048.01 507.5,1050C 524.765,1052.31 542.099,1052.98 559.5,1052C 600.466,1049.84 638.8,1038.84 674.5,1019C 686.954,1011.55 697.12,1001.71 705,989.5C 711.009,975.463 714.175,960.797 714.5,945.5C 732.152,934.952 751.152,931.285 771.5,934.5C 775.775,963.159 784.942,990.159 799,1015.5C 800.886,1018.24 803.386,1019.91 806.5,1020.5C 806.579,1017.73 806.079,1015.06 805,1012.5C 795.271,992.712 788.104,972.045 783.5,950.5C 788.441,961.204 795.441,970.371 804.5,978C 817.689,986.4 832.022,992.066 847.5,995C 899.731,1001.63 950.065,994.634 998.5,974C 1013.81,968.355 1022.98,957.522 1026,941.5C 1028.35,929.926 1029.85,918.259 1030.5,906.5 Z"/></g>
<g><path style="opacity:1" fill="#9b9b9b" d="M 769.5,921.5 C 770.404,922.209 770.737,923.209 770.5,924.5C 751.868,921.772 734.201,924.772 717.5,933.5C 716.197,930.355 716.197,927.355 717.5,924.5C 717.338,926.527 717.505,928.527 718,930.5C 733.784,919.978 750.951,916.978 769.5,921.5 Z"/></g>
<g><path style="opacity:1" fill="#333333" d="M 446.5,930.5 C 447.167,930.5 447.833,930.5 448.5,930.5C 448.46,933.881 448.793,937.214 449.5,940.5C 443.811,941.115 438.144,941.948 432.5,943C 430.422,944.27 430.088,945.77 431.5,947.5C 431.791,948.649 432.624,949.316 434,949.5C 439.433,948.233 444.933,947.567 450.5,947.5C 451.159,950.455 451.492,953.455 451.5,956.5C 450.508,956.328 449.842,956.662 449.5,957.5C 441.835,958.336 434.169,958.836 426.5,959C 421.861,952.923 420.361,946.09 422,938.5C 422.465,937.069 423.299,935.903 424.5,935C 432.048,933.818 439.382,932.318 446.5,930.5 Z"/></g>
<g><path style="opacity:1" fill="#6c281f" d="M 771.5,934.5 C 773.435,935.15 775.435,935.483 777.5,935.5C 779.499,940.495 781.499,945.495 783.5,950.5C 788.104,972.045 795.271,992.712 805,1012.5C 806.079,1015.06 806.579,1017.73 806.5,1020.5C 803.386,1019.91 800.886,1018.24 799,1015.5C 784.942,990.159 775.775,963.159 771.5,934.5 Z"/></g>
<g><path style="opacity:1" fill="#d37c61" d="M 796.5,940.5 C 804.006,946.501 811.673,952.334 819.5,958C 828.333,963.416 837.666,967.75 847.5,971C 822.96,973.076 805.96,962.909 796.5,940.5 Z"/></g>
<g><path style="opacity:1" fill="#9c9c9c" d="M 450.5,947.5 C 444.933,947.567 439.433,948.233 434,949.5C 432.624,949.316 431.791,948.649 431.5,947.5C 437.721,945.856 444.054,944.856 450.5,944.5C 450.5,945.5 450.5,946.5 450.5,947.5 Z"/></g>
<g><path style="opacity:1" fill="#edaa85" d="M 424.5,974.5 C 418.67,969.08 412.003,964.913 404.5,962C 399.833,961.333 395.167,961.333 390.5,962C 389.5,963 388.5,964 387.5,965C 391.236,966.41 394.902,967.91 398.5,969.5C 393.691,975.426 391.358,982.259 391.5,990C 392.766,1019.35 404.1,1043.85 425.5,1063.5C 426.412,1065.6 427.579,1067.6 429,1069.5C 436.044,1076.94 444.544,1081.6 454.5,1083.5C 458.001,1091.99 461.335,1100.66 464.5,1109.5C 459.339,1110.87 454.339,1110.37 449.5,1108C 399.427,1072.5 376.594,1024 381,962.5C 388.117,944.35 399.784,940.683 416,951.5C 418.847,959.188 421.68,966.854 424.5,974.5 Z"/></g>
<g><path style="opacity:1" fill="#d27b61" d="M 689.5,955.5 C 688.353,966.329 684.853,976.662 679,986.5C 671.215,994.322 662.048,999.488 651.5,1002C 667.863,989.395 680.529,973.895 689.5,955.5 Z"/></g>
<g><path style="opacity:1" fill="#69251d" d="M 424.5,974.5 C 429.012,983.533 433.012,992.866 436.5,1002.5C 432.199,998.028 428.032,993.361 424,988.5C 416.019,1000.41 413.686,1013.41 417,1027.5C 418.75,1031.64 420.416,1035.64 422,1039.5C 410.696,1028.58 406.863,1015.42 410.5,1000C 411.468,993.423 413.801,987.423 417.5,982C 411.794,976.818 405.461,972.652 398.5,969.5C 394.902,967.91 391.236,966.41 387.5,965C 388.5,964 389.5,963 390.5,962C 395.167,961.333 399.833,961.333 404.5,962C 412.003,964.913 418.67,969.08 424.5,974.5 Z"/></g>
<g><path style="opacity:1" fill="#702c22" d="M 1079.5,960.5 C 1075.81,971.897 1068.81,980.563 1058.5,986.5C 1058.5,984.5 1058.5,982.5 1058.5,980.5C 1066.48,976.017 1072.65,969.683 1077,961.5C 1077.84,960.001 1078.67,959.668 1079.5,960.5 Z"/></g>
<g><path style="opacity:1" fill="#cf785e" d="M 398.5,969.5 C 405.461,972.652 411.794,976.818 417.5,982C 413.801,987.423 411.468,993.423 410.5,1000C 406.863,1015.42 410.696,1028.58 422,1039.5C 420.416,1035.64 418.75,1031.64 417,1027.5C 413.686,1013.41 416.019,1000.41 424,988.5C 428.032,993.361 432.199,998.028 436.5,1002.5C 440.24,1028.28 445.906,1053.61 453.5,1078.5C 449.951,1078.56 446.618,1077.73 443.5,1076C 437.297,1072.07 431.297,1067.9 425.5,1063.5C 404.1,1043.85 392.766,1019.35 391.5,990C 391.358,982.259 393.691,975.426 398.5,969.5 Z"/></g>
<g><path style="opacity:1" fill="#d59978" d="M 457.5,1014.5 C 459.117,1016.12 460.284,1018.12 461,1020.5C 470.134,1051.76 482.301,1081.76 497.5,1110.5C 493.5,1110.83 489.5,1111.17 485.5,1111.5C 472.927,1080.11 463.594,1047.78 457.5,1014.5 Z"/></g>
<g><path style="opacity:1" fill="#6b271e" d="M 819.5,1102.5 C 814.119,1098.46 808.452,1094.8 802.5,1091.5C 801.833,1091.83 801.167,1092.17 800.5,1092.5C 797.827,1098.86 795.161,1105.19 792.5,1111.5C 784.395,1124.54 772.728,1129.38 757.5,1126C 753.689,1124.93 750.356,1123.1 747.5,1120.5C 742.11,1114.61 736.61,1108.94 731,1103.5C 729.289,1103.44 727.956,1104.11 727,1105.5C 724.313,1110.22 721.146,1114.55 717.5,1118.5C 711.775,1123.64 705.775,1123.8 699.5,1119C 687.026,1105.9 685.193,1091.4 694,1075.5C 696.119,1072.52 697.286,1072.86 697.5,1076.5C 695.713,1084.76 695.213,1093.09 696,1101.5C 698.015,1106.52 701.182,1110.69 705.5,1114C 707.5,1114.67 709.5,1114.67 711.5,1114C 716.262,1107.82 721.262,1101.82 726.5,1096C 728.81,1095.5 731.143,1095.34 733.5,1095.5C 737.316,1098.06 740.482,1101.39 743,1105.5C 747.714,1111.56 753.548,1116.06 760.5,1119C 769.02,1120.27 776.52,1118.1 783,1112.5C 787.985,1103.69 792.485,1094.69 796.5,1085.5C 799.012,1084.07 801.678,1083.57 804.5,1084C 809.651,1087 814.651,1090.16 819.5,1093.5C 824.039,1097.83 827.873,1097.17 831,1091.5C 832.009,1089.98 832.509,1088.31 832.5,1086.5C 834.191,1083.35 834.691,1080.02 834,1076.5C 831.048,1068.59 827.548,1060.93 823.5,1053.5C 825.187,1052.43 826.854,1052.6 828.5,1054C 842.275,1066.59 844.775,1081.09 836,1097.5C 831.917,1104.31 826.417,1105.98 819.5,1102.5 Z"/></g>
<g><path style="opacity:1" fill="#b78367" d="M 1038.5,1037.5 C 1038.67,1041.51 1038.5,1045.51 1038,1049.5C 1037.59,1049.04 1037.09,1048.71 1036.5,1048.5C 1036.17,1050.33 1035.83,1052.17 1035.5,1054C 1037.14,1062.07 1037.81,1070.23 1037.5,1078.5C 1036.83,1078.83 1036.17,1079.17 1035.5,1079.5C 1036.15,1071.8 1033.32,1065.8 1027,1061.5C 1026.54,1062.09 1026.37,1062.76 1026.5,1063.5C 1025.6,1064.21 1025.26,1065.21 1025.5,1066.5C 1021.99,1066.9 1018.66,1067.57 1015.5,1068.5C 1015.35,1069.55 1015.52,1070.55 1016,1071.5C 1018.32,1073.5 1020.16,1075.83 1021.5,1078.5C 1021.39,1079.12 1021.06,1079.62 1020.5,1080C 1016.85,1080.72 1013.19,1081.22 1009.5,1081.5C 1012.83,1070.5 1016.17,1059.5 1019.5,1048.5C 1025.5,1047.5 1031.5,1046.5 1037.5,1045.5C 1037.19,1042.61 1037.53,1039.95 1038.5,1037.5 Z"/></g>
<g><path style="opacity:1" fill="#21201f" d="M 1035.5,1079.5 C 1034.28,1080.46 1032.95,1080.3 1031.5,1079C 1028.22,1074.4 1026.55,1069.23 1026.5,1063.5C 1026.37,1062.76 1026.54,1062.09 1027,1061.5C 1033.32,1065.8 1036.15,1071.8 1035.5,1079.5 Z"/></g>
<g><path style="opacity:1" fill="#712d22" d="M 425.5,1063.5 C 431.297,1067.9 437.297,1072.07 443.5,1076C 446.618,1077.73 449.951,1078.56 453.5,1078.5C 454.038,1080.12 454.371,1081.78 454.5,1083.5C 444.544,1081.6 436.044,1076.94 429,1069.5C 427.579,1067.6 426.412,1065.6 425.5,1063.5 Z"/></g>
<g><path style="opacity:1" fill="#22211f" d="M 1015.5,1068.5 C 1021.05,1071.21 1025.55,1075.21 1029,1080.5C 1031.86,1084.86 1033.53,1089.52 1034,1094.5C 1030.05,1088.92 1025.89,1083.58 1021.5,1078.5C 1020.16,1075.83 1018.32,1073.5 1016,1071.5C 1015.52,1070.55 1015.35,1069.55 1015.5,1068.5 Z"/></g>
<g><path style="opacity:1" fill="#a5765d" d="M 1026.5,1063.5 C 1026.55,1069.23 1028.22,1074.4 1031.5,1079C 1032.95,1080.3 1034.28,1080.46 1035.5,1079.5C 1036.17,1079.17 1036.83,1078.83 1037.5,1078.5C 1037.59,1088.2 1037.09,1097.86 1036,1107.5C 1033.82,1101.83 1030.65,1096.83 1026.5,1092.5C 1025.7,1092.96 1025.37,1093.62 1025.5,1094.5C 1024.08,1095.45 1022.41,1095.78 1020.5,1095.5C 1017.42,1093.53 1014.59,1091.2 1012,1088.5C 1011.83,1088.83 1011.67,1089.17 1011.5,1089.5C 1014.57,1092.56 1017.24,1095.9 1019.5,1099.5C 1019.39,1100.12 1019.06,1100.62 1018.5,1101C 1015.79,1101.4 1013.13,1101.9 1010.5,1102.5C 1009.83,1102.5 1009.17,1102.5 1008.5,1102.5C 1005.9,1103.27 1003.24,1103.6 1000.5,1103.5C 1003.13,1095.94 1006.13,1088.61 1009.5,1081.5C 1013.19,1081.22 1016.85,1080.72 1020.5,1080C 1021.06,1079.62 1021.39,1079.12 1021.5,1078.5C 1025.89,1083.58 1030.05,1088.92 1034,1094.5C 1033.53,1089.52 1031.86,1084.86 1029,1080.5C 1025.55,1075.21 1021.05,1071.21 1015.5,1068.5C 1018.66,1067.57 1021.99,1066.9 1025.5,1066.5C 1025.26,1065.21 1025.6,1064.21 1026.5,1063.5 Z"/></g>
<g><path style="opacity:1" fill="#c66751" d="M 796.5,1085.5 C 792.485,1094.69 787.985,1103.69 783,1112.5C 776.52,1118.1 769.02,1120.27 760.5,1119C 753.548,1116.06 747.714,1111.56 743,1105.5C 740.482,1101.39 737.316,1098.06 733.5,1095.5C 736.518,1095.34 739.518,1095.5 742.5,1096C 755.604,1102.65 768.271,1101.99 780.5,1094C 785.037,1089.62 790.37,1086.79 796.5,1085.5 Z"/></g>
<g><path style="opacity:1" fill="#ba765d" d="M 819.5,1102.5 C 810.296,1104.9 801.296,1107.9 792.5,1111.5C 795.161,1105.19 797.827,1098.86 800.5,1092.5C 801.167,1092.17 801.833,1091.83 802.5,1091.5C 808.452,1094.8 814.119,1098.46 819.5,1102.5 Z"/></g>
<g><path style="opacity:1" fill="#c36952" d="M 832.5,1086.5 C 832.509,1088.31 832.009,1089.98 831,1091.5C 827.873,1097.17 824.039,1097.83 819.5,1093.5C 825.44,1094.03 829.773,1091.7 832.5,1086.5 Z"/></g>
<g><path style="opacity:1" fill="#242220" d="M 1020.5,1095.5 C 1021.96,1097.46 1023.63,1099.3 1025.5,1101C 1024.81,1102.07 1024.31,1103.23 1024,1104.5C 1022.48,1102.76 1020.98,1101.09 1019.5,1099.5C 1017.24,1095.9 1014.57,1092.56 1011.5,1089.5C 1011.67,1089.17 1011.83,1088.83 1012,1088.5C 1014.59,1091.2 1017.42,1093.53 1020.5,1095.5 Z"/></g>
<g><path style="opacity:1" fill="#bb775d" d="M 747.5,1120.5 C 737.551,1119.27 727.551,1118.61 717.5,1118.5C 721.146,1114.55 724.313,1110.22 727,1105.5C 727.956,1104.11 729.289,1103.44 731,1103.5C 736.61,1108.94 742.11,1114.61 747.5,1120.5 Z"/></g>
<g><path style="opacity:1" fill="#976c55" d="M 1025.5,1094.5 C 1031.12,1104.7 1034.12,1115.7 1034.5,1127.5C 1033.73,1128.26 1033.23,1129.26 1033,1130.5C 1032.07,1126.36 1030.73,1122.36 1029,1118.5C 1027.81,1119.56 1027.31,1120.9 1027.5,1122.5C 1021.4,1124.36 1015.06,1125.69 1008.5,1126.5C 1006.16,1122.16 1002.83,1118.83 998.5,1116.5C 997.833,1116.83 997.167,1117.17 996.5,1117.5C 998.504,1121.17 1001.17,1124.17 1004.5,1126.5C 1000.73,1127.79 996.733,1128.46 992.5,1128.5C 990.901,1128.23 989.568,1128.57 988.5,1129.5C 987.391,1129.56 986.391,1129.89 985.5,1130.5C 990.25,1121.33 995.25,1112.33 1000.5,1103.5C 1003.24,1103.6 1005.9,1103.27 1008.5,1102.5C 1011.5,1106.34 1014.34,1110.34 1017,1114.5C 1018.26,1116.61 1020.1,1117.61 1022.5,1117.5C 1021.46,1110.13 1017.46,1105.13 1010.5,1102.5C 1013.13,1101.9 1015.79,1101.4 1018.5,1101C 1019.06,1100.62 1019.39,1100.12 1019.5,1099.5C 1020.98,1101.09 1022.48,1102.76 1024,1104.5C 1024.31,1103.23 1024.81,1102.07 1025.5,1101C 1023.63,1099.3 1021.96,1097.46 1020.5,1095.5C 1022.41,1095.78 1024.08,1095.45 1025.5,1094.5 Z"/></g>
<g><path style="opacity:1" fill="#1f1f1e" d="M 1008.5,1102.5 C 1009.17,1102.5 1009.83,1102.5 1010.5,1102.5C 1017.46,1105.13 1021.46,1110.13 1022.5,1117.5C 1020.1,1117.61 1018.26,1116.61 1017,1114.5C 1014.34,1110.34 1011.5,1106.34 1008.5,1102.5 Z"/></g>
<g><path style="opacity:1" fill="#1f1f1d" d="M 1008.5,1126.5 C 1007.29,1127.69 1005.96,1127.69 1004.5,1126.5C 1001.17,1124.17 998.504,1121.17 996.5,1117.5C 997.167,1117.17 997.833,1116.83 998.5,1116.5C 1002.83,1118.83 1006.16,1122.16 1008.5,1126.5 Z"/></g>
<g><path style="opacity:1" fill="#272320" d="M 1034.5,1127.5 C 1034.09,1131.22 1033.42,1134.89 1032.5,1138.5C 1030.83,1133.17 1029.17,1127.83 1027.5,1122.5C 1027.31,1120.9 1027.81,1119.56 1029,1118.5C 1030.73,1122.36 1032.07,1126.36 1033,1130.5C 1033.23,1129.26 1033.73,1128.26 1034.5,1127.5 Z"/></g>
<g><path style="opacity:1" fill="#c38c6e" d="M 497.5,1110.5 C 502.748,1120.67 508.748,1130.34 515.5,1139.5C 509.154,1140.06 502.821,1140.72 496.5,1141.5C 492.462,1131.73 488.796,1121.73 485.5,1111.5C 489.5,1111.17 493.5,1110.83 497.5,1110.5 Z"/></g>
<g><path style="opacity:1" fill="#21201e" d="M 988.5,1129.5 C 989.568,1128.57 990.901,1128.23 992.5,1128.5C 996.777,1130.67 999.944,1134.01 1002,1138.5C 1005.23,1143.94 1007.56,1149.6 1009,1155.5C 1002.3,1146.65 995.47,1137.98 988.5,1129.5 Z"/></g>
<g><path style="opacity:1" fill="#22201e" d="M 1031.5,1146.5 C 1030.13,1149.78 1029.13,1153.11 1028.5,1156.5C 1026.78,1147.35 1024.45,1138.35 1021.5,1129.5C 1022.82,1129.33 1023.99,1129.66 1025,1130.5C 1027.5,1135.82 1029.67,1141.15 1031.5,1146.5 Z"/></g>
<g><path style="opacity:1" fill="#8d6550" d="M 934.5,1173.5 C 935.138,1175.46 935.138,1177.29 934.5,1179C 935.066,1179.99 935.733,1180.83 936.5,1181.5C 936.833,1182.17 937.167,1182.83 937.5,1183.5C 939.192,1188.63 940.192,1193.63 940.5,1198.5C 941.833,1205.83 943.167,1213.17 944.5,1220.5C 946.058,1231.52 947.725,1242.52 949.5,1253.5C 951.5,1253.17 953.5,1252.83 955.5,1252.5C 955.216,1254.41 955.549,1256.08 956.5,1257.5C 956.5,1263.17 956.5,1268.83 956.5,1274.5C 955.566,1275.57 955.232,1276.9 955.5,1278.5C 954.069,1280.19 953.236,1282.19 953,1284.5C 946.605,1291.06 940.105,1297.4 933.5,1303.5C 932.398,1290.26 929.565,1277.26 925,1264.5C 926.13,1279.45 926.63,1294.45 926.5,1309.5C 924.194,1311.14 922.194,1313.14 920.5,1315.5C 919.629,1311.98 918.795,1308.31 918,1304.5C 917.586,1304.04 917.086,1303.71 916.5,1303.5C 915.505,1308.79 915.172,1314.13 915.5,1319.5C 912.272,1322.04 909.105,1324.71 906,1327.5C 905.829,1322.47 905.329,1317.47 904.5,1312.5C 903.399,1318.51 902.232,1324.51 901,1330.5C 894.95,1334.72 888.784,1338.72 882.5,1342.5C 882.776,1333.12 882.276,1323.79 881,1314.5C 880.592,1311.58 879.259,1309.25 877,1307.5C 876.687,1320.51 876.187,1333.51 875.5,1346.5C 873.046,1347.23 870.713,1348.23 868.5,1349.5C 868.862,1338.34 867.695,1327.34 865,1316.5C 863.27,1311.2 861.77,1311.2 860.5,1316.5C 862.275,1328.43 862.942,1340.43 862.5,1352.5C 861.167,1352.83 859.833,1353.17 858.5,1353.5C 858.881,1321.98 850.548,1292.98 833.5,1266.5C 832.369,1268.07 832.202,1269.74 833,1271.5C 843.751,1298.84 849.917,1327.17 851.5,1356.5C 848.579,1357.7 845.579,1358.7 842.5,1359.5C 840.799,1336.7 835.633,1314.7 827,1293.5C 825.392,1289.96 823.058,1286.96 820,1284.5C 823.605,1300.84 827.605,1317.17 832,1333.5C 834.057,1342.73 835.223,1352.06 835.5,1361.5C 834.167,1361.83 832.833,1362.17 831.5,1362.5C 831.423,1358.12 830.923,1353.79 830,1349.5C 828.667,1348.17 827.333,1348.17 826,1349.5C 825.501,1354.49 825.334,1359.49 825.5,1364.5C 824.5,1364.5 823.5,1364.5 822.5,1364.5C 821.195,1362.6 820.529,1360.27 820.5,1357.5C 820.691,1325.31 814.858,1294.31 803,1264.5C 799.508,1256.85 795.508,1249.51 791,1242.5C 803.353,1282.75 812.853,1323.75 819.5,1365.5C 816.904,1366.27 814.237,1366.6 811.5,1366.5C 807.961,1351.38 803.128,1336.72 797,1322.5C 796.333,1327.5 796.333,1332.5 797,1337.5C 798.697,1347.95 800.864,1358.28 803.5,1368.5C 801.167,1368.5 798.833,1368.5 796.5,1368.5C 795.21,1367.94 794.377,1366.94 794,1365.5C 790.684,1354.9 787.684,1344.23 785,1333.5C 783.883,1345.66 784.717,1357.66 787.5,1369.5C 786.5,1369.5 785.5,1369.5 784.5,1369.5C 783.414,1369.38 782.747,1368.71 782.5,1367.5C 774.495,1341.8 770.495,1315.46 770.5,1288.5C 769.186,1289.31 768.019,1290.31 767,1291.5C 764.77,1318.09 767.604,1344.09 775.5,1369.5C 772.813,1369.66 770.146,1369.5 767.5,1369C 762.403,1355.34 760.737,1355.51 762.5,1369.5C 759.833,1369.5 757.167,1369.5 754.5,1369.5C 752.252,1362.36 750.752,1355.02 750,1347.5C 749,1346.5 748,1345.5 747,1344.5C 746.062,1352.62 746.562,1360.62 748.5,1368.5C 747.833,1368.5 747.167,1368.5 746.5,1368.5C 742.961,1357.05 739.128,1345.72 735,1334.5C 733.445,1339.38 733.112,1344.38 734,1349.5C 734.954,1355.23 736.121,1360.9 737.5,1366.5C 735.097,1366.55 732.764,1366.22 730.5,1365.5C 716.955,1341.99 709.955,1316.66 709.5,1289.5C 708.5,1289.5 707.5,1289.5 706.5,1289.5C 705.125,1314.92 709.458,1339.25 719.5,1362.5C 715.91,1362.46 713.41,1360.79 712,1357.5C 711.751,1358.62 711.251,1359.62 710.5,1360.5C 705.299,1358.72 700.299,1356.72 695.5,1354.5C 689.058,1337.79 685.892,1320.46 686,1302.5C 682.385,1318.95 682.885,1335.28 687.5,1351.5C 684.093,1349.82 680.759,1348.15 677.5,1346.5C 674.762,1335.98 672.595,1325.31 671,1314.5C 669.234,1324.12 669.067,1333.79 670.5,1343.5C 669.005,1343.01 667.671,1342.34 666.5,1341.5C 661.388,1327.06 656.888,1312.39 653,1297.5C 651.98,1290.2 651.313,1282.87 651,1275.5C 649.806,1277.62 649.14,1279.96 649,1282.5C 647.7,1301.03 650.2,1319.03 656.5,1336.5C 653.237,1336.04 650.904,1334.38 649.5,1331.5C 649.806,1328.61 649.473,1325.95 648.5,1323.5C 645.7,1307.23 643.367,1290.9 641.5,1274.5C 640.252,1271.28 639.252,1267.95 638.5,1264.5C 637.61,1255.49 636.61,1246.49 635.5,1237.5C 635.376,1231.21 634.376,1225.21 632.5,1219.5C 633.5,1219.5 634.5,1219.5 635.5,1219.5C 637.108,1205.95 642.274,1193.95 651,1183.5C 668.332,1165.58 689.166,1153.41 713.5,1147C 754.407,1136.7 795.907,1130.2 838,1127.5C 853.429,1127.31 868.595,1129.14 883.5,1133C 905.996,1138.68 922.329,1151.84 932.5,1172.5C 932.957,1173.3 933.624,1173.63 934.5,1173.5 Z"/></g>
<g><path style="opacity:1" fill="#1f1f1e" d="M 861.5,1133.5 C 861.56,1132.96 861.893,1132.62 862.5,1132.5C 867.585,1135.12 872.418,1138.12 877,1141.5C 879.333,1144.5 881.667,1147.5 884,1150.5C 885.639,1153.74 886.639,1157.08 887,1160.5C 878.633,1151.3 870.133,1142.3 861.5,1133.5 Z"/></g>
<g><path style="opacity:1" fill="#21201e" d="M 811.5,1131.5 C 813.812,1132.32 816.146,1133.15 818.5,1134C 823,1138.5 827.5,1143 832,1147.5C 834.544,1153.63 837.377,1159.63 840.5,1165.5C 840.167,1165.83 839.833,1166.17 839.5,1166.5C 830.089,1154.77 820.756,1143.1 811.5,1131.5 Z"/></g>
<g><path style="opacity:1" fill="#1f1e1d" d="M 842.5,1130.5 C 845.757,1131.46 848.757,1132.96 851.5,1135C 856.833,1139.67 862.167,1144.33 867.5,1149C 871.725,1152.72 875.392,1156.89 878.5,1161.5C 877.998,1162.52 877.332,1162.69 876.5,1162C 871.306,1157.97 865.973,1154.14 860.5,1150.5C 860.167,1150.83 859.833,1151.17 859.5,1151.5C 862.124,1154.57 863.958,1157.9 865,1161.5C 855.709,1152.39 848.209,1142.06 842.5,1130.5 Z"/></g>
<g><path style="opacity:1" fill="#1d1d1d" d="M 791.5,1132.5 C 798.162,1138.33 804.329,1144.66 810,1151.5C 808.463,1145.89 807.13,1140.22 806,1134.5C 812.245,1142.66 818.245,1150.99 824,1159.5C 825.953,1162.26 827.12,1165.26 827.5,1168.5C 822.052,1167.44 817.052,1165.28 812.5,1162C 803.885,1153.25 796.885,1143.42 791.5,1132.5 Z"/></g>
<g><path style="opacity:1" fill="#242220" d="M 828.5,1131.5 C 828.897,1130.47 829.563,1130.31 830.5,1131C 840.044,1140.28 846.877,1151.12 851,1163.5C 843.724,1152.59 836.224,1141.92 828.5,1131.5 Z"/></g>
<g><path style="opacity:1" fill="#1d1d1c" d="M 805.5,1167.5 C 802.5,1167.5 799.5,1167.5 796.5,1167.5C 791.292,1156.99 787.792,1145.99 786,1134.5C 792.511,1145.53 799.011,1156.53 805.5,1167.5 Z"/></g>
<g><path style="opacity:1" fill="#1f1e1d" d="M 788.5,1169.5 C 786.716,1169.89 785.05,1170.56 783.5,1171.5C 782.504,1171.59 781.671,1171.25 781,1170.5C 776.744,1159.14 775.578,1147.48 777.5,1135.5C 781.567,1146.7 785.234,1158.03 788.5,1169.5 Z"/></g>
<g><path style="opacity:1" fill="#1e1e1d" d="M 882.5,1137.5 C 894.008,1141.59 905.008,1146.75 915.5,1153C 919.826,1156.62 922.326,1161.12 923,1166.5C 921.5,1165 920,1163.5 918.5,1162C 910.815,1157.01 903.148,1152.34 895.5,1148C 912.515,1171.41 910.682,1172.58 890,1151.5C 886.712,1147.26 884.212,1142.59 882.5,1137.5 Z"/></g>
<g><path style="opacity:1" fill="#1f1e1d" d="M 750.5,1175.5 C 750.158,1176.34 749.492,1176.67 748.5,1176.5C 747.414,1176.38 746.747,1175.71 746.5,1174.5C 749.249,1160.67 755.416,1148.67 765,1138.5C 760.773,1150.97 755.94,1163.31 750.5,1175.5 Z"/></g>
<g><path style="opacity:1" fill="#b38065" d="M 515.5,1139.5 C 520.5,1146.17 525.5,1152.83 530.5,1159.5C 526.466,1159.5 522.466,1159.84 518.5,1160.5C 518.802,1157.94 518.468,1155.61 517.5,1153.5C 516.29,1153.93 515.29,1154.6 514.5,1155.5C 513.596,1156.21 513.263,1157.21 513.5,1158.5C 512.041,1158.57 510.708,1158.23 509.5,1157.5C 509.122,1152.11 508.288,1146.77 507,1141.5C 505.377,1143.7 504.543,1146.2 504.5,1149C 505.068,1152.2 505.735,1155.37 506.5,1158.5C 505.432,1159.43 504.099,1159.77 502.5,1159.5C 500.3,1153.57 498.3,1147.57 496.5,1141.5C 502.821,1140.72 509.154,1140.06 515.5,1139.5 Z"/></g>
<g><path style="opacity:1" fill="#252320" d="M 509.5,1157.5 C 509.649,1158.55 509.483,1159.55 509,1160.5C 508.292,1159.62 507.458,1158.95 506.5,1158.5C 505.735,1155.37 505.068,1152.2 504.5,1149C 504.543,1146.2 505.377,1143.7 507,1141.5C 508.288,1146.77 509.122,1152.11 509.5,1157.5 Z"/></g>
<g><path style="opacity:1" fill="#1e1e1d" d="M 737.5,1143.5 C 738.552,1143.35 739.552,1143.52 740.5,1144C 734.371,1160.09 726.538,1175.26 717,1189.5C 716.874,1184.33 717.874,1179.33 720,1174.5C 734.998,1153.34 733.498,1152.17 715.5,1171C 714.668,1171.69 714.002,1171.52 713.5,1170.5C 720.095,1160.24 728.095,1151.24 737.5,1143.5 Z"/></g>
<g><path style="opacity:1" fill="#1f1f1e" d="M 763.5,1174.5 C 762.167,1174.5 760.833,1174.5 759.5,1174.5C 761.25,1162.75 765.083,1151.75 771,1141.5C 772.113,1153.38 769.613,1164.38 763.5,1174.5 Z"/></g>
<g><path style="opacity:1" fill="#1f1f1e" d="M 735.5,1182.5 C 734.128,1183.51 732.795,1184.51 731.5,1185.5C 730.761,1185.63 730.094,1185.46 729.5,1185C 735.266,1171.97 741.433,1159.14 748,1146.5C 748.326,1160.11 744.16,1172.11 735.5,1182.5 Z"/></g>
<g><path style="opacity:1" fill="#23211f" d="M 1024.5,1170.5 C 1024.67,1171.49 1024.34,1172.16 1023.5,1172.5C 1020.79,1165.42 1016.79,1159.09 1011.5,1153.5C 1012.79,1152.59 1014.12,1152.76 1015.5,1154C 1020.5,1158.52 1023.5,1164.02 1024.5,1170.5 Z"/></g>
<g><path style="opacity:1" fill="#242220" d="M 517.5,1153.5 C 518.391,1160.07 518.391,1166.57 517.5,1173C 517.167,1173.17 516.833,1173.33 516.5,1173.5C 515.579,1167.52 514.912,1161.52 514.5,1155.5C 515.29,1154.6 516.29,1153.93 517.5,1153.5 Z"/></g>
<g><path style="opacity:1" fill="#201f1e" d="M 707.5,1155.5 C 709.225,1155.84 709.725,1156.84 709,1158.5C 696.333,1174.5 683.667,1190.5 671,1206.5C 671.168,1203.33 672.168,1200.33 674,1197.5C 679.052,1188.45 684.886,1179.95 691.5,1172C 687.317,1174.26 682.984,1176.26 678.5,1178C 687.512,1169.51 697.179,1162.01 707.5,1155.5 Z"/></g>
<g><path style="opacity:1" fill="#23211f" d="M 527.5,1177.5 C 526.379,1179.74 525.213,1182.07 524,1184.5C 523.809,1182.29 523.309,1180.29 522.5,1178.5C 522.456,1172.79 522.289,1167.12 522,1161.5C 526.387,1165.94 528.221,1171.28 527.5,1177.5 Z"/></g>
<g><path style="opacity:1" fill="#1f1e1d" d="M 709.5,1163.5 C 709.951,1168.8 709.117,1174.13 707,1179.5C 703.748,1184.33 700.748,1189.33 698,1194.5C 697.622,1189.71 698.289,1185.05 700,1180.5C 703.179,1174.81 706.345,1169.14 709.5,1163.5 Z"/></g>
<g><path style="opacity:1" fill="#89624d" d="M 1027.5,1122.5 C 1029.17,1127.83 1030.83,1133.17 1032.5,1138.5C 1032.17,1141.17 1031.83,1143.83 1031.5,1146.5C 1029.67,1141.15 1027.5,1135.82 1025,1130.5C 1023.99,1129.66 1022.82,1129.33 1021.5,1129.5C 1024.45,1138.35 1026.78,1147.35 1028.5,1156.5C 1027.17,1161.17 1025.83,1165.83 1024.5,1170.5C 1023.5,1164.02 1020.5,1158.52 1015.5,1154C 1014.12,1152.76 1012.79,1152.59 1011.5,1153.5C 1016.79,1159.09 1020.79,1165.42 1023.5,1172.5C 1022.49,1175.84 1021.49,1179.18 1020.5,1182.5C 1018.95,1175.36 1016.11,1168.69 1012,1162.5C 1013.63,1170.46 1015.46,1178.46 1017.5,1186.5C 1016.42,1191.06 1014.76,1195.39 1012.5,1199.5C 1010.4,1192.53 1006.73,1186.36 1001.5,1181C 1000.67,1180.31 1000,1180.48 999.5,1181.5C 1002.87,1189.56 1006.2,1197.56 1009.5,1205.5C 1008.09,1208.66 1006.42,1211.66 1004.5,1214.5C 1004.66,1206.28 1002.49,1198.61 998,1191.5C 999.266,1200.77 1000.43,1210.11 1001.5,1219.5C 997.665,1226.51 993.331,1233.17 988.5,1239.5C 987.948,1226.94 984.781,1214.94 979,1203.5C 977.062,1200.61 974.895,1197.94 972.5,1195.5C 972.167,1195.83 971.833,1196.17 971.5,1196.5C 979.531,1210.59 984.531,1225.59 986.5,1241.5C 977.266,1254.74 966.933,1267.07 955.5,1278.5C 955.232,1276.9 955.566,1275.57 956.5,1274.5C 956.435,1274.94 956.601,1275.27 957,1275.5C 961.869,1258.42 961.536,1241.42 956,1224.5C 954.587,1221.34 952.92,1218.34 951,1215.5C 953.525,1229.35 955.358,1243.35 956.5,1257.5C 955.549,1256.08 955.216,1254.41 955.5,1252.5C 953.5,1252.83 951.5,1253.17 949.5,1253.5C 947.725,1242.52 946.058,1231.52 944.5,1220.5C 946.443,1224.57 947.943,1228.9 949,1233.5C 951.085,1219.95 948.252,1208.28 940.5,1198.5C 940.192,1193.63 939.192,1188.63 937.5,1183.5C 944.091,1191.93 950.924,1200.27 958,1208.5C 956.761,1204.13 955.094,1199.8 953,1195.5C 947.968,1190.13 942.635,1185.13 937,1180.5C 936.601,1180.73 936.435,1181.06 936.5,1181.5C 935.733,1180.83 935.066,1179.99 934.5,1179C 935.138,1177.29 935.138,1175.46 934.5,1173.5C 944.52,1171.49 953.52,1167.32 961.5,1161C 971.27,1152.08 979.27,1141.92 985.5,1130.5C 986.391,1129.89 987.391,1129.56 988.5,1129.5C 995.47,1137.98 1002.3,1146.65 1009,1155.5C 1007.56,1149.6 1005.23,1143.94 1002,1138.5C 999.944,1134.01 996.777,1130.67 992.5,1128.5C 996.733,1128.46 1000.73,1127.79 1004.5,1126.5C 1005.96,1127.69 1007.29,1127.69 1008.5,1126.5C 1015.06,1125.69 1021.4,1124.36 1027.5,1122.5 Z"/></g>
<g><path style="opacity:1" fill="#201f1e" d="M 971.5,1153.5 C 985.068,1162.24 993.235,1174.57 996,1190.5C 987.585,1178.27 979.418,1165.93 971.5,1153.5 Z"/></g>
<g><path style="opacity:1" fill="#23211f" d="M 978.5,1147.5 C 981.813,1150.48 985.147,1153.48 988.5,1156.5C 987.537,1158.49 986.204,1158.82 984.5,1157.5C 982.477,1154.11 980.477,1150.78 978.5,1147.5 Z"/></g>
<g><path style="opacity:1" fill="#21201e" d="M 982.5,1141.5 C 983.251,1140.43 984.251,1140.26 985.5,1141C 992,1144.83 997.167,1150 1001,1156.5C 1005.28,1164.37 1008.94,1172.37 1012,1180.5C 1002.3,1167.32 992.47,1154.32 982.5,1141.5 Z"/></g>
<g><path style="opacity:1" fill="#21201e" d="M 1010.5,1131.5 C 1019.44,1137.38 1023.6,1145.71 1023,1156.5C 1019,1149.83 1015,1143.17 1011,1136.5C 1010.51,1134.87 1010.34,1133.2 1010.5,1131.5 Z"/></g>
<g><path style="opacity:1" fill="#21201e" d="M 1020.5,1182.5 C 1019.49,1183.87 1018.49,1185.2 1017.5,1186.5C 1015.46,1178.46 1013.63,1170.46 1012,1162.5C 1016.11,1168.69 1018.95,1175.36 1020.5,1182.5 Z"/></g>
<g><path style="opacity:1" fill="#db8a63" d="M 796.5,1167.5 C 799.5,1167.5 802.5,1167.5 805.5,1167.5C 819.464,1170.24 833.13,1174.07 846.5,1179C 843.305,1179.18 840.305,1179.68 837.5,1180.5C 828.808,1181 820.142,1181.84 811.5,1183C 800.153,1186.34 788.819,1189.68 777.5,1193C 766.167,1193.33 754.833,1193.67 743.5,1194C 731.764,1196.65 720.098,1199.48 708.5,1202.5C 716.448,1197.22 724.115,1191.55 731.5,1185.5C 732.795,1184.51 734.128,1183.51 735.5,1182.5C 739.762,1180.2 744.095,1178.2 748.5,1176.5C 749.492,1176.67 750.158,1176.34 750.5,1175.5C 753.455,1174.84 756.455,1174.51 759.5,1174.5C 760.833,1174.5 762.167,1174.5 763.5,1174.5C 767.33,1175.11 771.163,1175.78 775,1176.5C 777.985,1175 780.818,1173.33 783.5,1171.5C 785.05,1170.56 786.716,1169.89 788.5,1169.5C 790.993,1168.23 793.659,1167.56 796.5,1167.5 Z"/></g>
<g><path style="opacity:1" fill="#a2745b" d="M 517.5,1153.5 C 518.468,1155.61 518.802,1157.94 518.5,1160.5C 522.466,1159.84 526.466,1159.5 530.5,1159.5C 542.342,1172.35 555.342,1183.69 569.5,1193.5C 566.546,1194.27 563.546,1194.94 560.5,1195.5C 560.631,1194.76 560.464,1194.09 560,1193.5C 559.722,1194.42 559.222,1195.08 558.5,1195.5C 556.658,1195.72 554.825,1196.06 553,1196.5C 551.624,1196.32 550.791,1195.65 550.5,1194.5C 550.802,1191.94 550.468,1189.61 549.5,1187.5C 546.873,1188.09 544.206,1188.42 541.5,1188.5C 541.817,1184.3 541.483,1180.3 540.5,1176.5C 540.431,1173.92 539.265,1171.92 537,1170.5C 535.921,1173.06 535.421,1175.73 535.5,1178.5C 533.451,1179.64 531.451,1179.64 529.5,1178.5C 528.794,1177.44 528.461,1177.78 528.5,1179.5C 527.662,1179.16 527.328,1178.49 527.5,1177.5C 528.221,1171.28 526.387,1165.94 522,1161.5C 522.289,1167.12 522.456,1172.79 522.5,1178.5C 522.423,1179.75 521.756,1180.58 520.5,1181C 517.173,1181.61 513.839,1182.11 510.5,1182.5C 507.833,1174.83 505.167,1167.17 502.5,1159.5C 504.099,1159.77 505.432,1159.43 506.5,1158.5C 507.458,1158.95 508.292,1159.62 509,1160.5C 509.483,1159.55 509.649,1158.55 509.5,1157.5C 510.708,1158.23 512.041,1158.57 513.5,1158.5C 513.263,1157.21 513.596,1156.21 514.5,1155.5C 514.912,1161.52 515.579,1167.52 516.5,1173.5C 516.833,1173.33 517.167,1173.17 517.5,1173C 518.391,1166.57 518.391,1160.07 517.5,1153.5 Z"/></g>
<g><path style="opacity:1" fill="#1f1e1d" d="M 969.5,1168.5 C 984.947,1180.63 992.447,1196.63 992,1216.5C 985.822,1199.81 978.322,1183.81 969.5,1168.5 Z"/></g>
<g><path style="opacity:1" fill="#23211f" d="M 540.5,1176.5 C 540.831,1184.2 540.497,1191.86 539.5,1199.5C 538.914,1199.29 538.414,1198.96 538,1198.5C 536.196,1191.95 535.363,1185.29 535.5,1178.5C 535.421,1175.73 535.921,1173.06 537,1170.5C 539.265,1171.92 540.431,1173.92 540.5,1176.5 Z"/></g>
<g><path style="opacity:1" fill="#1f1f1d" d="M 878.5,1169.5 C 884.311,1175.17 888.811,1181.84 892,1189.5C 895.556,1197.28 898.556,1205.28 901,1213.5C 900.94,1219.86 899.606,1219.86 897,1213.5C 890.73,1198.85 884.563,1184.18 878.5,1169.5 Z"/></g>
<g><path style="opacity:1" fill="#201f1e" d="M 947.5,1170.5 C 951.086,1172.58 954.253,1175.25 957,1178.5C 961.764,1184.71 965.431,1191.37 968,1198.5C 962.374,1191.21 956.374,1184.21 950,1177.5C 948.589,1175.35 947.755,1173.02 947.5,1170.5 Z"/></g>
<g><path style="opacity:1" fill="#252220" d="M 959.5,1171.5 C 962.28,1171.48 964.78,1172.81 967,1175.5C 970.198,1180.22 972.531,1185.22 974,1190.5C 969.631,1183.74 964.798,1177.4 959.5,1171.5 Z"/></g>
<g><path style="opacity:1" fill="#1f1e1d" d="M 895.5,1165.5 C 906.836,1180.84 915.003,1197.84 920,1216.5C 921.112,1225.83 921.778,1235.16 922,1244.5C 916.684,1227.23 911.684,1209.9 907,1192.5C 903.453,1183.35 899.62,1174.35 895.5,1165.5 Z"/></g>
<g><path style="opacity:1" fill="#040201" d="M 867.5,1192.5 C 862.833,1192.5 858.167,1192.5 853.5,1192.5C 831.353,1191.27 810.02,1194.77 789.5,1203C 785.853,1203.77 782.186,1204.44 778.5,1205C 753.87,1203.71 730.203,1207.54 707.5,1216.5C 703.914,1217.69 700.247,1218.69 696.5,1219.5C 694.486,1219.56 692.819,1218.9 691.5,1217.5C 687.552,1213.41 687.552,1209.24 691.5,1205C 697.328,1204.88 702.995,1204.04 708.5,1202.5C 720.098,1199.48 731.764,1196.65 743.5,1194C 754.833,1193.67 766.167,1193.33 777.5,1193C 788.819,1189.68 800.153,1186.34 811.5,1183C 820.142,1181.84 828.808,1181 837.5,1180.5C 844.175,1180.67 850.842,1180.5 857.5,1180C 864.672,1174.24 869.339,1175.74 871.5,1184.5C 871.46,1187.86 870.126,1190.52 867.5,1192.5 Z"/></g>
<g><path style="opacity:1" fill="#1f1f1d" d="M 913.5,1177.5 C 913.897,1176.47 914.563,1176.31 915.5,1177C 934.325,1195.13 943.158,1217.3 942,1243.5C 936.542,1219.6 927.042,1197.6 913.5,1177.5 Z"/></g>
<g><path style="opacity:1" fill="#916952" d="M 527.5,1177.5 C 527.328,1178.49 527.662,1179.16 528.5,1179.5C 527.785,1195.02 529.118,1210.36 532.5,1225.5C 532.457,1226.42 532.124,1227.08 531.5,1227.5C 529.68,1223.86 527.847,1220.19 526,1216.5C 524.51,1207.05 522.51,1197.72 520,1188.5C 519.667,1193.17 519.333,1197.83 519,1202.5C 516.062,1195.85 513.229,1189.18 510.5,1182.5C 513.839,1182.11 517.173,1181.61 520.5,1181C 521.756,1180.58 522.423,1179.75 522.5,1178.5C 523.309,1180.29 523.809,1182.29 524,1184.5C 525.213,1182.07 526.379,1179.74 527.5,1177.5 Z"/></g>
<g><path style="opacity:1" fill="#22201f" d="M 529.5,1178.5 C 532.659,1195.33 534.326,1212.33 534.5,1229.5C 532.973,1229.57 531.973,1228.91 531.5,1227.5C 532.124,1227.08 532.457,1226.42 532.5,1225.5C 529.118,1210.36 527.785,1195.02 528.5,1179.5C 528.461,1177.78 528.794,1177.44 529.5,1178.5 Z"/></g>
<g><path style="opacity:1" fill="#201f1e" d="M 664.5,1180.5 C 665.497,1180.47 666.164,1180.97 666.5,1182C 665.389,1185.06 663.889,1187.89 662,1190.5C 654.667,1198.5 647.333,1206.5 640,1214.5C 644.951,1200.96 653.118,1189.63 664.5,1180.5 Z"/></g>
<g><path style="opacity:1" fill="#201f1e" d="M 937.5,1183.5 C 937.167,1182.83 936.833,1182.17 936.5,1181.5C 936.435,1181.06 936.601,1180.73 937,1180.5C 942.635,1185.13 947.968,1190.13 953,1195.5C 955.094,1199.8 956.761,1204.13 958,1208.5C 950.924,1200.27 944.091,1191.93 937.5,1183.5 Z"/></g>
<g><path style="opacity:1" fill="#1f1f1d" d="M 1012.5,1199.5 C 1011.49,1201.57 1010.49,1203.57 1009.5,1205.5C 1006.2,1197.56 1002.87,1189.56 999.5,1181.5C 1000,1180.48 1000.67,1180.31 1001.5,1181C 1006.73,1186.36 1010.4,1192.53 1012.5,1199.5 Z"/></g>
<g><path style="opacity:1" fill="#22201f" d="M 674.5,1182.5 C 675.239,1182.37 675.906,1182.54 676.5,1183C 670.785,1193.38 664.285,1203.21 657,1212.5C 657.581,1206.43 659.581,1200.76 663,1195.5C 667.436,1191.57 671.269,1187.24 674.5,1182.5 Z"/></g>
<g><path style="opacity:1" fill="#1f1f1d" d="M 549.5,1187.5 C 550.468,1189.61 550.802,1191.94 550.5,1194.5C 549.668,1209.34 548.835,1224.34 548,1239.5C 544.225,1221.99 544.725,1204.66 549.5,1187.5 Z"/></g>
<g><path style="opacity:1" fill="#1e1e1d" d="M 954.5,1190.5 C 966.189,1199.18 973.356,1210.85 976,1225.5C 976.667,1230.17 976.667,1234.83 976,1239.5C 968.35,1223.38 961.183,1207.05 954.5,1190.5 Z"/></g>
<g><path style="opacity:1" fill="#de8c64" d="M 853.5,1192.5 C 842.243,1211.1 826.91,1225.1 807.5,1234.5C 800.155,1236.56 792.822,1238.73 785.5,1241C 779.555,1242.16 773.555,1242.66 767.5,1242.5C 744.634,1240.4 724.634,1231.73 707.5,1216.5C 730.203,1207.54 753.87,1203.71 778.5,1205C 782.186,1204.44 785.853,1203.77 789.5,1203C 810.02,1194.77 831.353,1191.27 853.5,1192.5 Z"/></g>
<g><path style="opacity:1" fill="#efac87" d="M 853.5,1192.5 C 858.167,1192.5 862.833,1192.5 867.5,1192.5C 874.733,1198.97 877.4,1206.97 875.5,1216.5C 874.637,1218.42 873.971,1220.42 873.5,1222.5C 868.697,1231.31 861.697,1237.64 852.5,1241.5C 851.508,1241.33 850.842,1241.66 850.5,1242.5C 840.995,1245.03 831.328,1245.87 821.5,1245C 815.515,1243.17 810.848,1239.67 807.5,1234.5C 826.91,1225.1 842.243,1211.1 853.5,1192.5 Z"/></g>
<g><path style="opacity:1" fill="#22211f" d="M 876.5,1192.5 C 878.017,1192.51 879.184,1193.18 880,1194.5C 884.042,1200.62 886.042,1207.29 886,1214.5C 883.473,1208.29 880.473,1202.29 877,1196.5C 876.51,1195.21 876.343,1193.87 876.5,1192.5 Z"/></g>
<g><path style="opacity:1" fill="#252220" d="M 1004.5,1214.5 C 1003.74,1216.37 1002.74,1218.04 1001.5,1219.5C 1000.43,1210.11 999.266,1200.77 998,1191.5C 1002.49,1198.61 1004.66,1206.28 1004.5,1214.5 Z"/></g>
<g><path style="opacity:1" fill="#23211f" d="M 988.5,1239.5 C 988.167,1240.5 987.5,1241.17 986.5,1241.5C 984.531,1225.59 979.531,1210.59 971.5,1196.5C 971.833,1196.17 972.167,1195.83 972.5,1195.5C 974.895,1197.94 977.062,1200.61 979,1203.5C 984.781,1214.94 987.948,1226.94 988.5,1239.5 Z"/></g>
<g><path style="opacity:1" fill="#1d1d1c" d="M 944.5,1220.5 C 943.167,1213.17 941.833,1205.83 940.5,1198.5C 948.252,1208.28 951.085,1219.95 949,1233.5C 947.943,1228.9 946.443,1224.57 944.5,1220.5 Z"/></g>
<g><path style="opacity:1" fill="#201f1e" d="M 680.5,1204.5 C 681.146,1221.55 677.646,1237.88 670,1253.5C 670.896,1236.64 674.396,1220.3 680.5,1204.5 Z"/></g>
<g><path style="opacity:1" fill="#22201f" d="M 924.5,1210.5 C 937.444,1232.55 941.777,1256.22 937.5,1281.5C 936.522,1281.02 935.689,1280.36 935,1279.5C 934.721,1268.14 934.055,1256.81 933,1245.5C 929.86,1233.91 927.027,1222.25 924.5,1210.5 Z"/></g>
<g><path style="opacity:1" fill="#efac87" d="M 707.5,1216.5 C 724.634,1231.73 744.634,1240.4 767.5,1242.5C 766.167,1245.17 764.833,1247.83 763.5,1250.5C 763.5,1250.83 763.5,1251.17 763.5,1251.5C 748.008,1261.19 731.342,1263.69 713.5,1259C 705.518,1255.51 698.518,1250.67 692.5,1244.5C 692.672,1243.51 692.338,1242.84 691.5,1242.5C 687.514,1234.07 687.514,1225.74 691.5,1217.5C 692.819,1218.9 694.486,1219.56 696.5,1219.5C 700.247,1218.69 703.914,1217.69 707.5,1216.5 Z"/></g>
<g><path style="opacity:1" fill="#22211f" d="M 955.5,1211.5 C 966.791,1225.08 970.791,1240.75 967.5,1258.5C 965.53,1242.29 961.53,1226.62 955.5,1211.5 Z"/></g>
<g><path style="opacity:1" fill="#21201f" d="M 875.5,1216.5 C 880.86,1225.38 885.86,1234.55 890.5,1244C 889.898,1245.56 889.065,1245.4 888,1243.5C 883.909,1237.65 879.576,1231.99 875,1226.5C 874.209,1225.26 873.709,1223.92 873.5,1222.5C 873.971,1220.42 874.637,1218.42 875.5,1216.5 Z"/></g>
<g><path style="opacity:1" fill="#1d1e1d" d="M 956.5,1274.5 C 956.5,1268.83 956.5,1263.17 956.5,1257.5C 955.358,1243.35 953.525,1229.35 951,1215.5C 952.92,1218.34 954.587,1221.34 956,1224.5C 961.536,1241.42 961.869,1258.42 957,1275.5C 956.601,1275.27 956.435,1274.94 956.5,1274.5 Z"/></g>
<g><path style="opacity:1" fill="#21201e" d="M 665.5,1215.5 C 665.913,1231.23 663.079,1246.57 657,1261.5C 656.725,1245.59 659.559,1230.26 665.5,1215.5 Z"/></g>
<g><path style="opacity:1" fill="#89624e" d="M 540.5,1176.5 C 541.483,1180.3 541.817,1184.3 541.5,1188.5C 544.206,1188.42 546.873,1188.09 549.5,1187.5C 544.725,1204.66 544.225,1221.99 548,1239.5C 548.835,1224.34 549.668,1209.34 550.5,1194.5C 550.791,1195.65 551.624,1196.32 553,1196.5C 554.825,1196.06 556.658,1195.72 558.5,1195.5C 558.338,1201.56 558.838,1207.56 560,1213.5C 561.828,1207.56 561.995,1201.56 560.5,1195.5C 563.546,1194.94 566.546,1194.27 569.5,1193.5C 588.738,1206.28 609.738,1214.95 632.5,1219.5C 634.376,1225.21 635.376,1231.21 635.5,1237.5C 634.525,1246.65 635.525,1255.65 638.5,1264.5C 639.252,1267.95 640.252,1271.28 641.5,1274.5C 639.955,1275.23 639.122,1276.56 639,1278.5C 637.085,1295.16 640.085,1310.83 648,1325.5C 648.464,1324.91 648.631,1324.24 648.5,1323.5C 649.473,1325.95 649.806,1328.61 649.5,1331.5C 646.826,1330.5 644.492,1329 642.5,1327C 640.563,1320.42 638.396,1313.92 636,1307.5C 635.567,1314.13 637.067,1320.29 640.5,1326C 633.464,1322.98 626.797,1319.14 620.5,1314.5C 616.633,1304.07 612.466,1293.74 608,1283.5C 607.94,1294.27 611.107,1303.94 617.5,1312.5C 611.918,1309.59 606.585,1306.26 601.5,1302.5C 602.091,1301.85 602.757,1301.18 603.5,1300.5C 600.079,1294.66 596.912,1288.66 594,1282.5C 592.981,1281.31 591.814,1280.31 590.5,1279.5C 590.62,1286.52 592.954,1292.85 597.5,1298.5C 588.618,1292.96 580.618,1286.29 573.5,1278.5C 571.148,1270.25 568.982,1261.92 567,1253.5C 565.989,1252.66 564.822,1252.33 563.5,1252.5C 564.035,1258.91 565.035,1265.25 566.5,1271.5C 563.833,1269.5 561.5,1267.17 559.5,1264.5C 554.197,1258.36 549.031,1252.02 544,1245.5C 543.776,1237.46 543.109,1229.46 542,1221.5C 539.85,1219.15 538.684,1219.31 538.5,1222C 539.546,1227.47 539.712,1232.97 539,1238.5C 536.429,1236.02 534.929,1233.02 534.5,1229.5C 534.326,1212.33 532.659,1195.33 529.5,1178.5C 531.451,1179.64 533.451,1179.64 535.5,1178.5C 535.363,1185.29 536.196,1191.95 538,1198.5C 538.414,1198.96 538.914,1199.29 539.5,1199.5C 540.497,1191.86 540.831,1184.2 540.5,1176.5 Z"/></g>
<g><path style="opacity:1" fill="#242220" d="M 598.5,1212.5 C 602.616,1228.31 606.116,1244.31 609,1260.5C 601.749,1245.33 598.249,1229.33 598.5,1212.5 Z"/></g>
<g><path style="opacity:1" fill="#262321" d="M 591.5,1210.5 C 592.268,1211.26 592.768,1212.26 593,1213.5C 594.134,1223.83 594.8,1234.16 595,1244.5C 592.274,1235.87 590.441,1227.04 589.5,1218C 589.41,1215.26 590.077,1212.76 591.5,1210.5 Z"/></g>
<g><path style="opacity:1" fill="#2e2824" d="M 574.5,1200.5 C 575.684,1214.66 576.184,1229 576,1243.5C 574.581,1236.24 573.081,1228.91 571.5,1221.5C 572.776,1214.49 573.776,1207.49 574.5,1200.5 Z"/></g>
<g><path style="opacity:1" fill="#242220" d="M 581.5,1203.5 C 587.022,1222.66 589.856,1242.33 590,1262.5C 584.346,1243.24 581.513,1223.58 581.5,1203.5 Z"/></g>
<g><path style="opacity:1" fill="#22201f" d="M 560.5,1195.5 C 561.995,1201.56 561.828,1207.56 560,1213.5C 558.838,1207.56 558.338,1201.56 558.5,1195.5C 559.222,1195.08 559.722,1194.42 560,1193.5C 560.464,1194.09 560.631,1194.76 560.5,1195.5 Z"/></g>
<g><path style="opacity:1" fill="#22201f" d="M 612.5,1219.5 C 613.163,1221.47 613.496,1223.64 613.5,1226C 612.694,1236.17 611.861,1246.34 611,1256.5C 607.323,1243.98 607.823,1231.65 612.5,1219.5 Z"/></g>
<g><path style="opacity:1" fill="#1b1c1c" d="M 646.5,1219.5 C 647.833,1235.17 647.833,1250.83 646.5,1266.5C 645.01,1257.06 644.01,1247.56 643.5,1238C 643.096,1231.57 644.096,1225.41 646.5,1219.5 Z"/></g>
<g><path style="opacity:1" fill="#1e1e1d" d="M 625.5,1220.5 C 626.925,1223.9 627.758,1227.57 628,1231.5C 629.935,1250.85 631.602,1270.18 633,1289.5C 628.72,1275.71 625.387,1261.71 623,1247.5C 622.045,1238.32 622.878,1229.32 625.5,1220.5 Z"/></g>
<g><path style="opacity:1" fill="#262321" d="M 565.5,1222.5 C 568.188,1223.02 569.688,1224.69 570,1227.5C 571.518,1235.12 572.185,1242.78 572,1250.5C 567.667,1241.67 565.501,1232.34 565.5,1222.5 Z"/></g>
<g><path style="opacity:1" fill="#1f1f1d" d="M 891.5,1222.5 C 894.645,1227.05 897.145,1232.05 899,1237.5C 904.585,1252.75 908.419,1268.42 910.5,1284.5C 910.59,1288.54 909.423,1289.21 907,1286.5C 901.833,1265.16 896.666,1243.83 891.5,1222.5 Z"/></g>
<g><path style="opacity:1" fill="#1d1d1c" d="M 559.5,1264.5 C 554.875,1254.33 553.375,1243.66 555,1232.5C 555.113,1230.03 556.113,1228.03 558,1226.5C 558.285,1237.71 559.119,1248.88 560.5,1260C 560.492,1261.71 560.158,1263.21 559.5,1264.5 Z"/></g>
<g><path style="opacity:1" fill="#524035" d="M 646.5,1266.5 C 647.833,1250.83 647.833,1235.17 646.5,1219.5C 646.783,1218.71 647.283,1218.04 648,1217.5C 648.667,1235.17 648.667,1252.83 648,1270.5C 646.812,1269.44 646.312,1268.1 646.5,1266.5 Z"/></g>
<g><path style="opacity:1" fill="#262320" d="M 684.5,1228.5 C 684.911,1241.08 682.744,1253.41 678,1265.5C 677.954,1252.8 680.121,1240.46 684.5,1228.5 Z"/></g>
<g><path style="opacity:1" fill="#1d1d1d" d="M 910.5,1232.5 C 912.411,1232.57 913.578,1233.57 914,1235.5C 916.333,1247.83 918.667,1260.17 921,1272.5C 921.609,1279.19 921.443,1285.86 920.5,1292.5C 919.178,1292.67 918.011,1292.34 917,1291.5C 916.667,1284.5 916.333,1277.5 916,1270.5C 913.839,1257.87 912.006,1245.2 910.5,1232.5 Z"/></g>
<g><path style="opacity:1" fill="#22201f" d="M 863.5,1236.5 C 865.017,1236.51 866.184,1237.18 867,1238.5C 872.858,1245.38 877.524,1253.04 881,1261.5C 881.667,1263.5 881.667,1265.5 881,1267.5C 876.501,1259.16 871.501,1251.16 866,1243.5C 864.864,1241.26 864.03,1238.92 863.5,1236.5 Z"/></g>
<g><path style="opacity:1" fill="#1f1e1d" d="M 804.5,1240.5 C 810.251,1243.48 814.418,1248.48 817,1255.5C 820.711,1264.29 823.378,1273.29 825,1282.5C 816.791,1269.08 809.958,1255.08 804.5,1240.5 Z"/></g>
<g><path style="opacity:1" fill="#1f1e1d" d="M 852.5,1241.5 C 858.237,1246.62 862.237,1252.95 864.5,1260.5C 863.277,1261.61 861.944,1261.78 860.5,1261C 855.201,1255.9 851.867,1249.73 850.5,1242.5C 850.842,1241.66 851.508,1241.33 852.5,1241.5 Z"/></g>
<g><path style="opacity:1" fill="#292522" d="M 615.5,1237.5 C 618.468,1250.08 621.301,1262.74 624,1275.5C 618.573,1263.39 615.739,1250.72 615.5,1237.5 Z"/></g>
<g><path style="opacity:1" fill="#22201f" d="M 691.5,1242.5 C 692.338,1242.84 692.672,1243.51 692.5,1244.5C 692.666,1250.51 692.499,1256.51 692,1262.5C 690.266,1269.8 689.1,1269.97 688.5,1263C 688.758,1255.91 689.758,1249.08 691.5,1242.5 Z"/></g>
<g><path style="opacity:1" fill="#1e1e1d" d="M 783.5,1243.5 C 785.117,1245.12 786.284,1247.12 787,1249.5C 792.877,1266.67 796.043,1284.34 796.5,1302.5C 795.167,1302.5 793.833,1302.5 792.5,1302.5C 788.541,1286.33 785.375,1270 783,1253.5C 782.341,1250.11 782.508,1246.78 783.5,1243.5 Z"/></g>
<g><path style="opacity:1" fill="#1e1e1d" d="M 822.5,1364.5 C 821.791,1365.4 820.791,1365.74 819.5,1365.5C 812.853,1323.75 803.353,1282.75 791,1242.5C 795.508,1249.51 799.508,1256.85 803,1264.5C 814.858,1294.31 820.691,1325.31 820.5,1357.5C 820.529,1360.27 821.195,1362.6 822.5,1364.5 Z"/></g>
<g><path style="opacity:1" fill="#21201e" d="M 635.5,1237.5 C 636.61,1246.49 637.61,1255.49 638.5,1264.5C 635.525,1255.65 634.525,1246.65 635.5,1237.5 Z"/></g>
<g><path style="opacity:1" fill="#1e1e1d" d="M 881.5,1243.5 C 885.576,1247.3 888.409,1251.97 890,1257.5C 892.053,1263.7 892.72,1270.04 892,1276.5C 891.586,1276.96 891.086,1277.29 890.5,1277.5C 887.181,1266.22 884.181,1254.89 881.5,1243.5 Z"/></g>
<g><path style="opacity:1" fill="#22201f" d="M 579.5,1248.5 C 581.13,1250.03 581.963,1252.03 582,1254.5C 583.477,1264.2 584.811,1273.87 586,1283.5C 582.801,1277.77 580.135,1271.77 578,1265.5C 577.052,1259.65 577.552,1253.98 579.5,1248.5 Z"/></g>
<g><path style="opacity:1" fill="#22211f" d="M 597.5,1248.5 C 598.496,1248.41 599.329,1248.75 600,1249.5C 603.135,1258.38 605.468,1267.38 607,1276.5C 600.765,1268.23 597.598,1258.9 597.5,1248.5 Z"/></g>
<g><path style="opacity:1" fill="#21201e" d="M 763.5,1250.5 C 764.94,1254.41 765.606,1258.57 765.5,1263C 764.869,1271.88 763.869,1280.72 762.5,1289.5C 761.178,1289.67 760.011,1289.34 759,1288.5C 758.406,1275.89 759.906,1263.55 763.5,1251.5C 763.5,1251.17 763.5,1250.83 763.5,1250.5 Z"/></g>
<g><path style="opacity:1" fill="#1c1d1c" d="M 774.5,1251.5 C 775.583,1251.54 776.583,1251.87 777.5,1252.5C 780.49,1272.95 783.157,1293.45 785.5,1314C 785.691,1315.97 785.024,1317.47 783.5,1318.5C 781.683,1316.58 780.516,1314.25 780,1311.5C 775.301,1291.79 773.468,1271.79 774.5,1251.5 Z"/></g>
<g><path style="opacity:1" fill="#1f1e1d" d="M 573.5,1278.5 C 570.785,1276.45 568.452,1274.12 566.5,1271.5C 565.035,1265.25 564.035,1258.91 563.5,1252.5C 564.822,1252.33 565.989,1252.66 567,1253.5C 568.982,1261.92 571.148,1270.25 573.5,1278.5 Z"/></g>
<g><path style="opacity:1" fill="#201f1e" d="M 840.5,1258.5 C 843.168,1260.34 845.334,1262.67 847,1265.5C 849.94,1271.05 852.606,1276.71 855,1282.5C 855.711,1286.5 854.711,1287.17 852,1284.5C 848.035,1276.38 843.868,1268.38 839.5,1260.5C 839.863,1259.82 840.196,1259.15 840.5,1258.5 Z"/></g>
<g><path style="opacity:1" fill="#22201f" d="M 592.5,1260.5 C 593.75,1260.58 594.583,1261.24 595,1262.5C 596.47,1267.24 598.136,1271.91 600,1276.5C 600.667,1277.83 600.667,1279.17 600,1280.5C 594.958,1274.76 592.458,1268.09 592.5,1260.5 Z"/></g>
<g><path style="opacity:1" fill="#1c1d1c" d="M 665.5,1261.5 C 666.5,1261.5 667.5,1261.5 668.5,1261.5C 667.168,1281.48 666.001,1301.48 665,1321.5C 661.155,1312.21 659.655,1302.55 660.5,1292.5C 659.775,1281.75 661.441,1271.41 665.5,1261.5 Z"/></g>
<g><path style="opacity:1" fill="#1d1d1d" d="M 857.5,1264.5 C 869.289,1279.76 873.456,1297.09 870,1316.5C 866.149,1299.08 861.983,1281.74 857.5,1264.5 Z"/></g>
<g><path style="opacity:1" fill="#21201e" d="M 703.5,1265.5 C 704.656,1272.99 704.822,1280.66 704,1288.5C 703.311,1289.36 702.478,1290.02 701.5,1290.5C 700.129,1281.99 700.796,1273.65 703.5,1265.5 Z"/></g>
<g><path style="opacity:1" fill="#1f1f1d" d="M 869.5,1264.5 C 880.774,1275.16 885.607,1288.16 884,1303.5C 878.478,1290.77 873.645,1277.77 869.5,1264.5 Z"/></g>
<g><path style="opacity:1" fill="#1c1d1c" d="M 858.5,1353.5 C 856.491,1355.07 854.157,1356.07 851.5,1356.5C 849.917,1327.17 843.751,1298.84 833,1271.5C 832.202,1269.74 832.369,1268.07 833.5,1266.5C 850.548,1292.98 858.881,1321.98 858.5,1353.5 Z"/></g>
<g><path style="opacity:1" fill="#1e1e1d" d="M 933.5,1303.5 C 931.761,1306.24 929.427,1308.24 926.5,1309.5C 926.63,1294.45 926.13,1279.45 925,1264.5C 929.565,1277.26 932.398,1290.26 933.5,1303.5 Z"/></g>
<g><path style="opacity:1" fill="#22201f" d="M 683.5,1263.5 C 683.083,1279.24 680.75,1294.9 676.5,1310.5C 674.826,1304.25 674.326,1297.92 675,1291.5C 678.348,1282.29 681.181,1272.96 683.5,1263.5 Z"/></g>
<g><path style="opacity:1" fill="#242220" d="M 721.5,1270.5 C 722.496,1270.41 723.329,1270.75 724,1271.5C 724.711,1278.22 724.378,1284.88 723,1291.5C 722,1292.83 721,1292.83 720,1291.5C 719.446,1284.43 719.946,1277.43 721.5,1270.5 Z"/></g>
<g><path style="opacity:1" fill="#1e1e1d" d="M 694.5,1272.5 C 697.42,1287.41 699.253,1302.74 700,1318.5C 702.119,1330.88 704.119,1343.21 706,1355.5C 703.092,1350.45 700.758,1345.12 699,1339.5C 693.013,1317.34 691.513,1295.01 694.5,1272.5 Z"/></g>
<g><path style="opacity:1" fill="#1f1f1d" d="M 641.5,1274.5 C 643.367,1290.9 645.7,1307.23 648.5,1323.5C 648.631,1324.24 648.464,1324.91 648,1325.5C 640.085,1310.83 637.085,1295.16 639,1278.5C 639.122,1276.56 639.955,1275.23 641.5,1274.5 Z"/></g>
<g><path style="opacity:1" fill="#201f1e" d="M 617.5,1276.5 C 621.462,1284.53 624.962,1292.86 628,1301.5C 629.318,1304.43 629.985,1307.43 630,1310.5C 621.389,1300.84 617.223,1289.5 617.5,1276.5 Z"/></g>
<g><path style="opacity:1" fill="#1d1d1d" d="M 750.5,1278.5 C 751.458,1278.95 752.292,1279.62 753,1280.5C 752.395,1300.9 754.229,1321.06 758.5,1341C 758.473,1343.36 757.306,1344.86 755,1345.5C 746.873,1323.63 745.373,1301.3 750.5,1278.5 Z"/></g>
<g><path style="opacity:1" fill="#201f1d" d="M 601.5,1302.5 C 599.833,1301.5 598.5,1300.17 597.5,1298.5C 592.954,1292.85 590.62,1286.52 590.5,1279.5C 591.814,1280.31 592.981,1281.31 594,1282.5C 596.912,1288.66 600.079,1294.66 603.5,1300.5C 602.757,1301.18 602.091,1301.85 601.5,1302.5 Z"/></g>
<g><path style="opacity:1" fill="#21201e" d="M 666.5,1341.5 C 662.849,1340.34 659.515,1338.67 656.5,1336.5C 650.2,1319.03 647.7,1301.03 649,1282.5C 649.14,1279.96 649.806,1277.62 651,1275.5C 651.313,1282.87 651.98,1290.2 653,1297.5C 656.888,1312.39 661.388,1327.06 666.5,1341.5 Z"/></g>
<g><path style="opacity:1" fill="#1e1e1d" d="M 737.5,1284.5 C 739.959,1286.05 741.459,1288.39 742,1291.5C 742.524,1297.85 742.358,1304.18 741.5,1310.5C 738.612,1310.78 737.112,1309.45 737,1306.5C 736.548,1299.16 736.715,1291.82 737.5,1284.5 Z"/></g>
<g><path style="opacity:1" fill="#201f1e" d="M 897.5,1284.5 C 900.646,1298.24 899.813,1311.91 895,1325.5C 894.086,1327.66 892.919,1329.66 891.5,1331.5C 891.167,1330.83 890.833,1330.17 890.5,1329.5C 894.261,1314.7 896.594,1299.7 897.5,1284.5 Z"/></g>
<g><path style="opacity:1" fill="#211f1e" d="M 620.5,1314.5 C 619.29,1314.07 618.29,1313.4 617.5,1312.5C 611.107,1303.94 607.94,1294.27 608,1283.5C 612.466,1293.74 616.633,1304.07 620.5,1314.5 Z"/></g>
<g><path style="opacity:1" fill="#1f1f1e" d="M 728.5,1285.5 C 730.067,1286.68 730.901,1288.35 731,1290.5C 733.108,1303.08 733.941,1315.74 733.5,1328.5C 732.178,1328.67 731.011,1328.34 730,1327.5C 727.653,1313.53 727.153,1299.53 728.5,1285.5 Z"/></g>
<g><path style="opacity:1" fill="#1d1d1c" d="M 842.5,1359.5 C 840.299,1360.57 837.965,1361.23 835.5,1361.5C 835.223,1352.06 834.057,1342.73 832,1333.5C 827.605,1317.17 823.605,1300.84 820,1284.5C 823.058,1286.96 825.392,1289.96 827,1293.5C 835.633,1314.7 840.799,1336.7 842.5,1359.5 Z"/></g>
<g><path style="opacity:1" fill="#201f1d" d="M 784.5,1369.5 C 777.167,1370.83 769.833,1370.83 762.5,1369.5C 760.737,1355.51 762.403,1355.34 767.5,1369C 770.146,1369.5 772.813,1369.66 775.5,1369.5C 767.604,1344.09 764.77,1318.09 767,1291.5C 768.019,1290.31 769.186,1289.31 770.5,1288.5C 770.495,1315.46 774.495,1341.8 782.5,1367.5C 782.747,1368.71 783.414,1369.38 784.5,1369.5 Z"/></g>
<g><path style="opacity:1" fill="#1d1d1c" d="M 730.5,1365.5 C 726.554,1365.12 722.888,1364.12 719.5,1362.5C 709.458,1339.25 705.125,1314.92 706.5,1289.5C 707.5,1289.5 708.5,1289.5 709.5,1289.5C 709.955,1316.66 716.955,1341.99 730.5,1365.5 Z"/></g>
<g><path style="opacity:1" fill="#21201e" d="M 715.5,1290.5 C 719.606,1302.57 723.273,1314.9 726.5,1327.5C 726.547,1329 725.881,1330 724.5,1330.5C 721.274,1325.28 719.107,1319.61 718,1313.5C 716.462,1305.9 715.629,1298.24 715.5,1290.5 Z"/></g>
<g><path style="opacity:1" fill="#1e1e1d" d="M 695.5,1354.5 C 692.62,1354.06 689.954,1353.06 687.5,1351.5C 682.885,1335.28 682.385,1318.95 686,1302.5C 685.892,1320.46 689.058,1337.79 695.5,1354.5 Z"/></g>
<g><path style="opacity:1" fill="#262320" d="M 920.5,1315.5 C 918.858,1316.8 917.191,1318.14 915.5,1319.5C 915.172,1314.13 915.505,1308.79 916.5,1303.5C 917.086,1303.71 917.586,1304.04 918,1304.5C 918.795,1308.31 919.629,1311.98 920.5,1315.5 Z"/></g>
<g><path style="opacity:1" fill="#1c1d1c" d="M 882.5,1342.5 C 880.004,1343.58 877.67,1344.91 875.5,1346.5C 876.187,1333.51 876.687,1320.51 877,1307.5C 879.259,1309.25 880.592,1311.58 881,1314.5C 882.276,1323.79 882.776,1333.12 882.5,1342.5 Z"/></g>
<g><path style="opacity:1" fill="#21201e" d="M 868.5,1349.5 C 866.5,1350.5 864.5,1351.5 862.5,1352.5C 862.942,1340.43 862.275,1328.43 860.5,1316.5C 861.77,1311.2 863.27,1311.2 865,1316.5C 867.695,1327.34 868.862,1338.34 868.5,1349.5 Z"/></g>
<g><path style="opacity:1" fill="#22211f" d="M 677.5,1346.5 C 674.759,1346.29 672.426,1345.29 670.5,1343.5C 669.067,1333.79 669.234,1324.12 671,1314.5C 672.595,1325.31 674.762,1335.98 677.5,1346.5 Z"/></g>
<g><path style="opacity:1" fill="#1e1e1d" d="M 811.5,1366.5 C 808.997,1367.37 806.33,1368.04 803.5,1368.5C 800.864,1358.28 798.697,1347.95 797,1337.5C 796.333,1332.5 796.333,1327.5 797,1322.5C 803.128,1336.72 807.961,1351.38 811.5,1366.5 Z"/></g>
<g><path style="opacity:1" fill="#1e1e1d" d="M 746.5,1368.5 C 743.273,1368.32 740.273,1367.66 737.5,1366.5C 736.121,1360.9 734.954,1355.23 734,1349.5C 733.112,1344.38 733.445,1339.38 735,1334.5C 739.128,1345.72 742.961,1357.05 746.5,1368.5 Z"/></g>
<g><path style="opacity:1" fill="#21201e" d="M 796.5,1368.5 C 793.713,1369.48 790.713,1369.81 787.5,1369.5C 784.717,1357.66 783.883,1345.66 785,1333.5C 787.684,1344.23 790.684,1354.9 794,1365.5C 794.377,1366.94 795.21,1367.94 796.5,1368.5 Z"/></g>
<g><path style="opacity:1" fill="#1d1d1c" d="M 754.5,1369.5 C 752.435,1369.48 750.435,1369.15 748.5,1368.5C 746.562,1360.62 746.062,1352.62 747,1344.5C 748,1345.5 749,1346.5 750,1347.5C 750.752,1355.02 752.252,1362.36 754.5,1369.5 Z"/></g>
<g><path style="opacity:1" fill="#272321" d="M 831.5,1362.5 C 829.698,1363.46 827.698,1364.12 825.5,1364.5C 825.334,1359.49 825.501,1354.49 826,1349.5C 827.333,1348.17 828.667,1348.17 830,1349.5C 830.923,1353.79 831.423,1358.12 831.5,1362.5 Z"/></g>
<g><path style="opacity:1" fill="#efac87" d="M 896.5,1353.5 C 897.649,1353.79 898.316,1354.62 898.5,1356C 899.93,1364.65 901.93,1373.15 904.5,1381.5C 912.087,1384.8 919.753,1387.8 927.5,1390.5C 929.542,1411.24 922.208,1427.74 905.5,1440C 891.816,1448.51 877.149,1454.84 861.5,1459C 817.162,1469.36 772.495,1471.03 727.5,1464C 707.471,1459.98 688.804,1452.65 671.5,1442C 656.168,1432.17 646.668,1418.34 643,1400.5C 642.333,1397.5 642.333,1394.5 643,1391.5C 650.857,1388.27 658.691,1384.93 666.5,1381.5C 668.165,1375.51 669.832,1369.51 671.5,1363.5C 730.371,1390.37 790.704,1393.87 852.5,1374C 868.13,1369.02 882.797,1362.18 896.5,1353.5 Z"/></g>
<g><path style="opacity:1" fill="#131313" d="M 976.5,1396.5 C 977.593,1418.97 970.759,1438.64 956,1455.5C 949.571,1462.43 942.738,1468.77 935.5,1474.5C 890.077,1502.94 840.411,1516.61 786.5,1515.5C 732.752,1517.07 683.419,1503.4 638.5,1474.5C 610.569,1455.97 596.236,1429.97 595.5,1396.5C 605.72,1393.85 616.053,1391.18 626.5,1388.5C 627.031,1404.93 631.865,1419.93 641,1433.5C 657.602,1452.24 678.102,1465.07 702.5,1472C 739.869,1482.39 777.869,1485.39 816.5,1481C 847.68,1478.46 877.347,1470.46 905.5,1457C 933.587,1443.34 946.587,1420.84 944.5,1389.5C 955.31,1391.2 965.977,1393.54 976.5,1396.5 Z"/></g>
<g><path style="opacity:1" fill="#2a292d" d="M 595.5,1396.5 C 596.236,1429.97 610.569,1455.97 638.5,1474.5C 625.804,1481.51 613.804,1489.51 602.5,1498.5C 547.598,1484.65 495.265,1464.31 445.5,1437.5C 446.031,1435.38 447.365,1433.88 449.5,1433C 454.003,1430.61 458.669,1428.61 463.5,1427C 507.589,1417.14 551.589,1406.98 595.5,1396.5 Z"/></g>
<g><path style="opacity:1" fill="#2b292d" d="M 976.5,1396.5 C 1019.66,1407.29 1062.99,1417.46 1106.5,1427C 1112.07,1428.78 1117.4,1431.12 1122.5,1434C 1123.25,1434.67 1123.59,1435.5 1123.5,1436.5C 1074.15,1463.51 1022.15,1483.84 967.5,1497.5C 957.391,1489.06 946.725,1481.39 935.5,1474.5C 942.738,1468.77 949.571,1462.43 956,1455.5C 970.759,1438.64 977.593,1418.97 976.5,1396.5 Z"/></g>
<g><path style="opacity:1" fill="#f1a61e" d="M 638.5,1474.5 C 683.419,1503.4 732.752,1517.07 786.5,1515.5C 840.411,1516.61 890.077,1502.94 935.5,1474.5C 946.725,1481.39 957.391,1489.06 967.5,1497.5C 890.911,1518.05 812.911,1525.55 733.5,1520C 688.99,1517.14 645.324,1509.97 602.5,1498.5C 613.804,1489.51 625.804,1481.51 638.5,1474.5 Z"/></g>
</svg>
